G04 #@! TF.GenerationSoftware,KiCad,Pcbnew,5.1.5-52549c5~84~ubuntu19.10.1*
G04 #@! TF.CreationDate,2020-03-02T22:50:27+01:00*
G04 #@! TF.ProjectId,scale,7363616c-652e-46b6-9963-61645f706362,rev?*
G04 #@! TF.SameCoordinates,Original*
G04 #@! TF.FileFunction,Profile,NP*
%FSLAX46Y46*%
G04 Gerber Fmt 4.6, Leading zero omitted, Abs format (unit mm)*
G04 Created by KiCad (PCBNEW 5.1.5-52549c5~84~ubuntu19.10.1) date 2020-03-02 22:50:27*
%MOMM*%
%LPD*%
G04 APERTURE LIST*
%ADD10C,0.050000*%
G04 APERTURE END LIST*
D10*
X186999999Y-122750000D02*
G75*
G02X186000001Y-122750000I-499999J0D01*
G01*
X186000001Y-113000000D02*
G75*
G02X186999999Y-113000000I499999J0D01*
G01*
X124000000Y-165250000D02*
X108000000Y-165250000D01*
X124000000Y-165250000D02*
G75*
G02X124000000Y-166750000I0J-750000D01*
G01*
X108000000Y-166750000D02*
G75*
G02X108000000Y-165250000I0J750000D01*
G01*
X108000000Y-166750000D02*
X124000000Y-166750000D01*
X174000000Y-108250000D02*
G75*
G02X174000000Y-109750000I0J-750000D01*
G01*
X174000000Y-108250000D02*
X163000000Y-108250000D01*
X163000000Y-109750000D02*
X174000000Y-109750000D01*
X163000000Y-109750000D02*
G75*
G02X163000000Y-108250000I0J750000D01*
G01*
X165000000Y-166250000D02*
X175000000Y-166250000D01*
X165000000Y-166250000D02*
G75*
G02X165000000Y-164750000I0J750000D01*
G01*
X175000000Y-164750000D02*
X165000000Y-164750000D01*
X175000000Y-164750000D02*
G75*
G02X175000000Y-166250000I0J-750000D01*
G01*
X119000000Y-108250000D02*
X108000000Y-108250000D01*
X119000000Y-108250000D02*
G75*
G02X119000000Y-109750000I0J-750000D01*
G01*
X108000000Y-109750000D02*
X119000000Y-109750000D01*
X108000000Y-109750000D02*
G75*
G02X108000000Y-108250000I0J750000D01*
G01*
X215750000Y-108500000D02*
G75*
G03X215750000Y-108500000I-750000J0D01*
G01*
X161850000Y-171500000D02*
G75*
G02X161750000Y-171400000I0J100000D01*
G01*
X166250000Y-171400000D02*
G75*
G02X166150000Y-171500000I-100000J0D01*
G01*
X166250000Y-171000000D02*
G75*
G02X166450000Y-171000000I100000J0D01*
G01*
X161550000Y-171000000D02*
G75*
G02X161750000Y-171000000I100000J0D01*
G01*
X151000000Y-169250000D02*
G75*
G02X151750000Y-168500000I750000J0D01*
G01*
X151000001Y-173250000D02*
X151000000Y-169250000D01*
X154500000Y-175000000D02*
X158000001Y-174999999D01*
X151999999Y-173250000D02*
G75*
G02X151000001Y-173250000I-499999J0D01*
G01*
X152000000Y-170250000D02*
G75*
G02X152750000Y-169500000I750000J0D01*
G01*
X155499999Y-173500000D02*
G75*
G02X154500001Y-173500000I-499999J0D01*
G01*
X152750001Y-170750000D02*
G75*
G02X153749999Y-170750000I499999J0D01*
G01*
X152750000Y-170750000D02*
X152750000Y-174250000D01*
X152750000Y-174250000D02*
G75*
G02X152000000Y-175000000I-750000J0D01*
G01*
X153750000Y-170750000D02*
X153750000Y-174250000D01*
X152000000Y-173250000D02*
X152000000Y-170250000D01*
X153750000Y-169500000D02*
X152750000Y-169500000D01*
X154500000Y-170250000D02*
X154500000Y-173500000D01*
X153750000Y-169500000D02*
G75*
G02X154500000Y-170250000I0J-750000D01*
G01*
X154500000Y-175000000D02*
G75*
G02X153750000Y-174250000I0J750000D01*
G01*
X177000000Y-169250000D02*
X177000000Y-173500000D01*
X176250000Y-168500000D02*
G75*
G02X177000000Y-169250000I0J-750000D01*
G01*
X176999999Y-173500000D02*
G75*
G02X176000001Y-173500000I-499999J0D01*
G01*
X176000000Y-175000000D02*
G75*
G02X175250000Y-174250000I0J750000D01*
G01*
X174250000Y-174250000D02*
G75*
G02X173500000Y-175000000I-750000J0D01*
G01*
X170000000Y-175000000D02*
X173500000Y-175000000D01*
X176000000Y-170250000D02*
X176000000Y-173500000D01*
X175250000Y-169500000D02*
X174250000Y-169500000D01*
X174250001Y-170750000D02*
G75*
G02X175249999Y-170750000I499999J0D01*
G01*
X174250001Y-170750000D02*
X174250000Y-174250000D01*
X175249999Y-170750000D02*
X175250000Y-174250000D01*
X175250000Y-169500000D02*
G75*
G02X176000000Y-170250000I0J-750000D01*
G01*
X173500000Y-170250000D02*
G75*
G02X174250000Y-169500000I750000J0D01*
G01*
X173500000Y-173250000D02*
X173500000Y-170250000D01*
X173499999Y-173250000D02*
G75*
G02X172500001Y-173250000I-499999J0D01*
G01*
X171750000Y-169500000D02*
G75*
G02X172500000Y-170250000I0J-750000D01*
G01*
X155500000Y-170250000D02*
G75*
G02X156250000Y-169500000I750000J0D01*
G01*
X156250000Y-169500000D02*
X171750000Y-169500000D01*
X172500000Y-173250000D02*
X172500000Y-170250000D01*
X155499999Y-173500000D02*
X155500000Y-170250000D01*
X176250000Y-168500000D02*
X151750000Y-168500000D01*
X163000000Y-166250000D02*
G75*
G02X162250000Y-167000000I-750000J0D01*
G01*
X163000000Y-163750000D02*
G75*
G02X163750000Y-163000000I750000J0D01*
G01*
X176000000Y-162250000D02*
G75*
G02X175250000Y-163000000I-750000J0D01*
G01*
X175250000Y-112000000D02*
G75*
G02X176000000Y-112750000I0J-750000D01*
G01*
X161750000Y-112000000D02*
G75*
G02X161000000Y-111250000I0J750000D01*
G01*
X160250000Y-108000000D02*
G75*
G02X161000000Y-108750000I0J-750000D01*
G01*
X121000000Y-108750000D02*
G75*
G02X121750000Y-108000000I750000J0D01*
G01*
X121000000Y-111250000D02*
G75*
G02X120250000Y-112000000I-750000J0D01*
G01*
X106000000Y-112750000D02*
G75*
G02X106750000Y-112000000I750000J0D01*
G01*
X176000000Y-175000000D02*
X228000000Y-175000000D01*
X106750000Y-163000000D02*
G75*
G02X106000000Y-162250000I0J750000D01*
G01*
X125250000Y-163000000D02*
G75*
G02X126000000Y-163750000I0J-750000D01*
G01*
X126750000Y-167000000D02*
G75*
G02X126000000Y-166250000I0J750000D01*
G01*
X126000000Y-163750000D02*
X126000000Y-166250000D01*
X106750000Y-163000000D02*
X125250000Y-163000000D01*
X106000000Y-112750000D02*
X106000000Y-162250000D01*
X120250000Y-112000000D02*
X106750000Y-112000000D01*
X121000000Y-108750000D02*
X121000000Y-111250000D01*
X160250000Y-108000000D02*
X121750000Y-108000000D01*
X161000000Y-111250000D02*
X161000000Y-108750000D01*
X175250000Y-112000000D02*
X161750000Y-112000000D01*
X176000000Y-162250000D02*
X176000000Y-112750000D01*
X163750000Y-163000000D02*
X175250000Y-163000000D01*
X163000000Y-166250000D02*
X163000000Y-163750000D01*
X126750000Y-167000000D02*
X162250000Y-167000000D01*
X161550000Y-171000000D02*
X159000000Y-171000000D01*
X161750000Y-171400000D02*
X161750000Y-171000000D01*
X166150000Y-171500000D02*
X161850000Y-171500000D01*
X166250000Y-171000000D02*
X166250000Y-171400000D01*
X169000000Y-171000000D02*
X166450000Y-171000000D01*
X159000000Y-173000000D02*
G75*
G02X159000000Y-171000000I0J1000000D01*
G01*
X169000000Y-171000000D02*
G75*
G02X169000000Y-173000000I0J-1000000D01*
G01*
X159000000Y-173000000D02*
X169000000Y-173000000D01*
X169999999Y-174999998D02*
G75*
G02X158000001Y-174999999I-5999999J9999998D01*
G01*
X113000000Y-100000000D02*
G75*
G02X112000000Y-100000000I-500000J0D01*
G01*
X216000000Y-100000000D02*
G75*
G02X215000000Y-100000000I-500000J0D01*
G01*
X205000000Y-102000000D02*
G75*
G02X204000000Y-102000000I-500000J0D01*
G01*
X124000000Y-102000000D02*
G75*
G02X123000000Y-102000000I-500000J0D01*
G01*
X216000000Y-100000000D02*
X228000000Y-100000000D01*
X124000000Y-102000000D02*
X204000000Y-102000000D01*
X123000000Y-98000000D02*
X123000000Y-102000000D01*
X113000000Y-98000000D02*
X123000000Y-98000000D01*
X205000000Y-98000000D02*
X205000000Y-102000000D01*
X215000000Y-98000000D02*
X205000000Y-98000000D01*
X215000000Y-100000000D02*
X215000000Y-98000000D01*
X113000000Y-100000000D02*
X113000000Y-98000000D01*
X112000000Y-100000000D02*
X100000000Y-100000000D01*
X228000000Y-175000000D02*
X228000000Y-100000000D01*
X100000000Y-175000000D02*
X152000000Y-175000000D01*
X100000000Y-100000000D02*
X100000000Y-175000000D01*
X186000001Y-113000000D02*
X186000000Y-122750000D01*
X186999999Y-122750000D02*
X187000000Y-113000000D01*
M02*
