G04 #@! TF.GenerationSoftware,KiCad,Pcbnew,5.1.5-52549c5~84~ubuntu19.10.1*
G04 #@! TF.CreationDate,2020-03-02T13:28:29+01:00*
G04 #@! TF.ProjectId,scale,7363616c-652e-46b6-9963-61645f706362,rev?*
G04 #@! TF.SameCoordinates,Original*
G04 #@! TF.FileFunction,Legend,Bot*
G04 #@! TF.FilePolarity,Positive*
%FSLAX46Y46*%
G04 Gerber Fmt 4.6, Leading zero omitted, Abs format (unit mm)*
G04 Created by KiCad (PCBNEW 5.1.5-52549c5~84~ubuntu19.10.1) date 2020-03-02 13:28:29*
%MOMM*%
%LPD*%
G04 APERTURE LIST*
%ADD10C,0.100000*%
%ADD11C,0.200000*%
%ADD12C,0.120000*%
%ADD13C,0.150000*%
G04 APERTURE END LIST*
D10*
G36*
X123000000Y-99000000D02*
G01*
X113000000Y-99000000D01*
X113000000Y-98000000D01*
X123000000Y-98000000D01*
X123000000Y-99000000D01*
G37*
X123000000Y-99000000D02*
X113000000Y-99000000D01*
X113000000Y-98000000D01*
X123000000Y-98000000D01*
X123000000Y-99000000D01*
G36*
X123000000Y-102000000D02*
G01*
X113000000Y-102000000D01*
X113000000Y-101000000D01*
X123000000Y-101000000D01*
X123000000Y-102000000D01*
G37*
X123000000Y-102000000D02*
X113000000Y-102000000D01*
X113000000Y-101000000D01*
X123000000Y-101000000D01*
X123000000Y-102000000D01*
G36*
X215000000Y-102000000D02*
G01*
X205000000Y-102000000D01*
X205000000Y-101000000D01*
X215000000Y-101000000D01*
X215000000Y-102000000D01*
G37*
X215000000Y-102000000D02*
X205000000Y-102000000D01*
X205000000Y-101000000D01*
X215000000Y-101000000D01*
X215000000Y-102000000D01*
G36*
X215000000Y-99000000D02*
G01*
X205000000Y-99000000D01*
X205000000Y-98000000D01*
X215000000Y-98000000D01*
X215000000Y-99000000D01*
G37*
X215000000Y-99000000D02*
X205000000Y-99000000D01*
X205000000Y-98000000D01*
X215000000Y-98000000D01*
X215000000Y-99000000D01*
D11*
X187578571Y-126153571D02*
X187435714Y-126201190D01*
X187388095Y-126248809D01*
X187340476Y-126344047D01*
X187340476Y-126486904D01*
X187388095Y-126582142D01*
X187435714Y-126629761D01*
X187530952Y-126677380D01*
X187911904Y-126677380D01*
X187911904Y-125677380D01*
X187578571Y-125677380D01*
X187483333Y-125725000D01*
X187435714Y-125772619D01*
X187388095Y-125867857D01*
X187388095Y-125963095D01*
X187435714Y-126058333D01*
X187483333Y-126105952D01*
X187578571Y-126153571D01*
X187911904Y-126153571D01*
X184788095Y-126441666D02*
X184311904Y-126441666D01*
X184883333Y-126727380D02*
X184550000Y-125727380D01*
X184216666Y-126727380D01*
X181980952Y-126496428D02*
X181219047Y-126496428D01*
X178930952Y-126496427D02*
X178169047Y-126496427D01*
X178550000Y-126877379D02*
X178550000Y-126115475D01*
D12*
X215475000Y-109850000D02*
X215474999Y-110350000D01*
X223800000Y-105400000D02*
X217800000Y-105400000D01*
X223800000Y-111400000D02*
X223800000Y-105400000D01*
X217800000Y-111400000D02*
X217800000Y-105400000D01*
X223800000Y-111400000D02*
X217800000Y-111400000D01*
X211650000Y-109000000D02*
X212350000Y-109000000D01*
X197040000Y-109215000D02*
X197040000Y-105785000D01*
X201310000Y-104515000D02*
X201310000Y-106315000D01*
X199860000Y-104515000D02*
X201310000Y-104515000D01*
X201310000Y-108685000D02*
X202300000Y-108685000D01*
X201310000Y-110485000D02*
X201310000Y-108685000D01*
X199860000Y-110485000D02*
X201310000Y-110485000D01*
X219337221Y-123510000D02*
X219662779Y-123510000D01*
X219337221Y-122490000D02*
X219662779Y-122490000D01*
X218240000Y-122412779D02*
X218240000Y-122087221D01*
X219260000Y-122412779D02*
X219260000Y-122087221D01*
X207500000Y-105190000D02*
X210950000Y-105190000D01*
X207500000Y-105190000D02*
X205550000Y-105190000D01*
X207500000Y-110310000D02*
X209450000Y-110310000D01*
X207500000Y-110310000D02*
X205550000Y-110310000D01*
X210400000Y-104050000D02*
X210400000Y-104750000D01*
X208000000Y-104050000D02*
X208000000Y-104750000D01*
X212350000Y-106600000D02*
X211650000Y-106600000D01*
X219000000Y-103450000D02*
X219000000Y-104150000D01*
X223485000Y-104535001D02*
X221200000Y-104535001D01*
X223485000Y-103065001D02*
X223485000Y-104535001D01*
X221200000Y-103065001D02*
X223485000Y-103065001D01*
X202850000Y-108400000D02*
X203550000Y-108400000D01*
X178363223Y-142005329D02*
X178363223Y-138555329D01*
X178363223Y-142005329D02*
X178363223Y-143955329D01*
X188483223Y-142005329D02*
X188483223Y-140055329D01*
X188483223Y-142005329D02*
X188483223Y-143955329D01*
X204636396Y-131111846D02*
X205548564Y-130199678D01*
X204318198Y-130793648D02*
X204636396Y-131111846D01*
X204000000Y-131111846D02*
X204318198Y-130793648D01*
X199212887Y-135898959D02*
X199531085Y-136217157D01*
X199531085Y-135580761D02*
X199212887Y-135898959D01*
X209423509Y-135898959D02*
X209105311Y-135580761D01*
X209105311Y-136217157D02*
X209423509Y-135898959D01*
X204318198Y-141004270D02*
X204000000Y-140686072D01*
X204636396Y-140686072D02*
X204318198Y-141004270D01*
X211141779Y-132823045D02*
X211636753Y-133318019D01*
X210650000Y-144900000D02*
X210650000Y-144900000D01*
X210650000Y-145400000D02*
X210650000Y-144900000D01*
X212350000Y-144900000D02*
X212350000Y-144900000D01*
X212850000Y-144900000D02*
X212350000Y-144900000D01*
X212850000Y-145400000D02*
X212850000Y-144900000D01*
X212850000Y-146600000D02*
X212850000Y-146600000D01*
X212850000Y-147100000D02*
X212850000Y-146600000D01*
X212350000Y-147100000D02*
X212850000Y-147100000D01*
X211150000Y-147100000D02*
X211150000Y-147100000D01*
X210650000Y-147100000D02*
X211150000Y-147100000D01*
X210650000Y-146600000D02*
X210650000Y-147100000D01*
X207165938Y-121234567D02*
X207165938Y-120534567D01*
X207165938Y-119334567D02*
X207165938Y-120034567D01*
X209252513Y-143752513D02*
X209747487Y-144247487D01*
X208497487Y-143747487D02*
X208002513Y-143252513D01*
X211750000Y-139400000D02*
X211750000Y-140100000D01*
X207429469Y-129110735D02*
X207924443Y-129605709D01*
X217050000Y-119350000D02*
X217050000Y-120050000D01*
X217050000Y-114550000D02*
X217050000Y-113850000D01*
X180500000Y-150500000D02*
X180500000Y-149500000D01*
X181573224Y-136255330D02*
X182273224Y-136255330D01*
X182273224Y-133505331D02*
X181573224Y-133505331D01*
X188223223Y-147005330D02*
X187523223Y-147005330D01*
X186948223Y-147005330D02*
X186248223Y-147005330D01*
X186073224Y-135255330D02*
X186773224Y-135255330D01*
X187573223Y-135255330D02*
X188273223Y-135255330D01*
X212750000Y-143650000D02*
X212750000Y-144350000D01*
X210750000Y-147650000D02*
X210750000Y-148350000D01*
X197565329Y-138197057D02*
X198060303Y-138692031D01*
X209868986Y-131762385D02*
X209374012Y-132257359D01*
X206722361Y-142475052D02*
X206227387Y-141980078D01*
X201666548Y-129711775D02*
X202161522Y-130206749D01*
X215150000Y-128850000D02*
X214450000Y-128850000D01*
X216399999Y-128850000D02*
X215699999Y-128850000D01*
X208313352Y-129994618D02*
X208808326Y-130489592D01*
X215150001Y-125350000D02*
X214450001Y-125350000D01*
X216400000Y-125350000D02*
X215700000Y-125350000D01*
X214500000Y-119850000D02*
X214500000Y-119150000D01*
X180173223Y-147655330D02*
X180173223Y-148355330D01*
X180173223Y-146155331D02*
X180173223Y-146855331D01*
X184423224Y-137605330D02*
X184423224Y-136905330D01*
X187173223Y-137855329D02*
X187173223Y-137155329D01*
X179923224Y-131655330D02*
X179923224Y-132355330D01*
X179923224Y-133155330D02*
X179923224Y-133855330D01*
X177843224Y-135245330D02*
X177843224Y-136705330D01*
X181003224Y-135245330D02*
X181003224Y-137405330D01*
X181003224Y-135245330D02*
X180073224Y-135245330D01*
X177843224Y-135245330D02*
X178773224Y-135245330D01*
D13*
X220050000Y-120950000D02*
X220050000Y-121450000D01*
X220050000Y-112450000D02*
X220050000Y-112950000D01*
X222550000Y-112450000D02*
X224550000Y-112450000D01*
X224550000Y-121450000D02*
X222550000Y-121450000D01*
X226550000Y-121450000D02*
X228245000Y-121450000D01*
X228245000Y-112450000D02*
X226550000Y-112450000D01*
X228245000Y-121450000D02*
X228245000Y-112450000D01*
D12*
X216950000Y-130760001D02*
X222960000Y-130760001D01*
X219200000Y-123940001D02*
X222960000Y-123940001D01*
X222960000Y-130760001D02*
X222960000Y-129500001D01*
X222960000Y-123940001D02*
X222960000Y-125200001D01*
X214690000Y-117850000D02*
X214690000Y-115400000D01*
X217910000Y-116050000D02*
X217910000Y-117850000D01*
X209180000Y-114560000D02*
X209180000Y-113100000D01*
X206020000Y-114560000D02*
X206020000Y-112400000D01*
X206020000Y-114560000D02*
X206950000Y-114560000D01*
X209180000Y-114560000D02*
X208250000Y-114560000D01*
X216234999Y-140485000D02*
X213949999Y-140485000D01*
X216234999Y-139015000D02*
X216234999Y-140485000D01*
X213949999Y-139015000D02*
X216234999Y-139015000D01*
D10*
X213539285Y-109160714D02*
X213560714Y-109182142D01*
X213625000Y-109203571D01*
X213667857Y-109203571D01*
X213732142Y-109182142D01*
X213775000Y-109139285D01*
X213796428Y-109096428D01*
X213817857Y-109010714D01*
X213817857Y-108946428D01*
X213796428Y-108860714D01*
X213775000Y-108817857D01*
X213732142Y-108775000D01*
X213667857Y-108753571D01*
X213625000Y-108753571D01*
X213560714Y-108775000D01*
X213539285Y-108796428D01*
X213367857Y-108796428D02*
X213346428Y-108775000D01*
X213303571Y-108753571D01*
X213196428Y-108753571D01*
X213153571Y-108775000D01*
X213132142Y-108796428D01*
X213110714Y-108839285D01*
X213110714Y-108882142D01*
X213132142Y-108946428D01*
X213389285Y-109203571D01*
X213110714Y-109203571D01*
X212832142Y-108753571D02*
X212789285Y-108753571D01*
X212746428Y-108775000D01*
X212725000Y-108796428D01*
X212703571Y-108839285D01*
X212682142Y-108925000D01*
X212682142Y-109032142D01*
X212703571Y-109117857D01*
X212725000Y-109160714D01*
X212746428Y-109182142D01*
X212789285Y-109203571D01*
X212832142Y-109203571D01*
X212875000Y-109182142D01*
X212896428Y-109160714D01*
X212917857Y-109117857D01*
X212939285Y-109032142D01*
X212939285Y-108925000D01*
X212917857Y-108839285D01*
X212896428Y-108796428D01*
X212875000Y-108775000D01*
X212832142Y-108753571D01*
X202150000Y-109003571D02*
X202150000Y-109325000D01*
X202171428Y-109389285D01*
X202214285Y-109432142D01*
X202278571Y-109453571D01*
X202321428Y-109453571D01*
X201978571Y-109003571D02*
X201700000Y-109003571D01*
X201850000Y-109175000D01*
X201785714Y-109175000D01*
X201742857Y-109196428D01*
X201721428Y-109217857D01*
X201700000Y-109260714D01*
X201700000Y-109367857D01*
X201721428Y-109410714D01*
X201742857Y-109432142D01*
X201785714Y-109453571D01*
X201914285Y-109453571D01*
X201957142Y-109432142D01*
X201978571Y-109410714D01*
X217875000Y-122003571D02*
X217875000Y-122325000D01*
X217896428Y-122389285D01*
X217939285Y-122432142D01*
X218003571Y-122453571D01*
X218046428Y-122453571D01*
X217660714Y-122453571D02*
X217660714Y-122003571D01*
X217489285Y-122003571D01*
X217446428Y-122025000D01*
X217425000Y-122046428D01*
X217403571Y-122089285D01*
X217403571Y-122153571D01*
X217425000Y-122196428D01*
X217446428Y-122217857D01*
X217489285Y-122239285D01*
X217660714Y-122239285D01*
X216975000Y-122453571D02*
X217232142Y-122453571D01*
X217103571Y-122453571D02*
X217103571Y-122003571D01*
X217146428Y-122067857D01*
X217189285Y-122110714D01*
X217232142Y-122132142D01*
X206342857Y-104503571D02*
X206342857Y-104867857D01*
X206321428Y-104910714D01*
X206300000Y-104932142D01*
X206257142Y-104953571D01*
X206171428Y-104953571D01*
X206128571Y-104932142D01*
X206107142Y-104910714D01*
X206085714Y-104867857D01*
X206085714Y-104503571D01*
X205678571Y-104503571D02*
X205764285Y-104503571D01*
X205807142Y-104525000D01*
X205828571Y-104546428D01*
X205871428Y-104610714D01*
X205892857Y-104696428D01*
X205892857Y-104867857D01*
X205871428Y-104910714D01*
X205850000Y-104932142D01*
X205807142Y-104953571D01*
X205721428Y-104953571D01*
X205678571Y-104932142D01*
X205657142Y-104910714D01*
X205635714Y-104867857D01*
X205635714Y-104760714D01*
X205657142Y-104717857D01*
X205678571Y-104696428D01*
X205721428Y-104675000D01*
X205807142Y-104675000D01*
X205850000Y-104696428D01*
X205871428Y-104717857D01*
X205892857Y-104760714D01*
X210689285Y-103703571D02*
X210839285Y-103489285D01*
X210946428Y-103703571D02*
X210946428Y-103253571D01*
X210775000Y-103253571D01*
X210732142Y-103275000D01*
X210710714Y-103296428D01*
X210689285Y-103339285D01*
X210689285Y-103403571D01*
X210710714Y-103446428D01*
X210732142Y-103467857D01*
X210775000Y-103489285D01*
X210946428Y-103489285D01*
X210260714Y-103703571D02*
X210517857Y-103703571D01*
X210389285Y-103703571D02*
X210389285Y-103253571D01*
X210432142Y-103317857D01*
X210475000Y-103360714D01*
X210517857Y-103382142D01*
X210046428Y-103703571D02*
X209960714Y-103703571D01*
X209917857Y-103682142D01*
X209896428Y-103660714D01*
X209853571Y-103596428D01*
X209832142Y-103510714D01*
X209832142Y-103339285D01*
X209853571Y-103296428D01*
X209875000Y-103275000D01*
X209917857Y-103253571D01*
X210003571Y-103253571D01*
X210046428Y-103275000D01*
X210067857Y-103296428D01*
X210089285Y-103339285D01*
X210089285Y-103446428D01*
X210067857Y-103489285D01*
X210046428Y-103510714D01*
X210003571Y-103532142D01*
X209917857Y-103532142D01*
X209875000Y-103510714D01*
X209853571Y-103489285D01*
X209832142Y-103446428D01*
X208289285Y-103703571D02*
X208439285Y-103489285D01*
X208546428Y-103703571D02*
X208546428Y-103253571D01*
X208375000Y-103253571D01*
X208332142Y-103275000D01*
X208310714Y-103296428D01*
X208289285Y-103339285D01*
X208289285Y-103403571D01*
X208310714Y-103446428D01*
X208332142Y-103467857D01*
X208375000Y-103489285D01*
X208546428Y-103489285D01*
X207860714Y-103703571D02*
X208117857Y-103703571D01*
X207989285Y-103703571D02*
X207989285Y-103253571D01*
X208032142Y-103317857D01*
X208075000Y-103360714D01*
X208117857Y-103382142D01*
X207603571Y-103446428D02*
X207646428Y-103425000D01*
X207667857Y-103403571D01*
X207689285Y-103360714D01*
X207689285Y-103339285D01*
X207667857Y-103296428D01*
X207646428Y-103275000D01*
X207603571Y-103253571D01*
X207517857Y-103253571D01*
X207475000Y-103275000D01*
X207453571Y-103296428D01*
X207432142Y-103339285D01*
X207432142Y-103360714D01*
X207453571Y-103403571D01*
X207475000Y-103425000D01*
X207517857Y-103446428D01*
X207603571Y-103446428D01*
X207646428Y-103467857D01*
X207667857Y-103489285D01*
X207689285Y-103532142D01*
X207689285Y-103617857D01*
X207667857Y-103660714D01*
X207646428Y-103682142D01*
X207603571Y-103703571D01*
X207517857Y-103703571D01*
X207475000Y-103682142D01*
X207453571Y-103660714D01*
X207432142Y-103617857D01*
X207432142Y-103532142D01*
X207453571Y-103489285D01*
X207475000Y-103467857D01*
X207517857Y-103446428D01*
X213539285Y-106703571D02*
X213689285Y-106489285D01*
X213796428Y-106703571D02*
X213796428Y-106253571D01*
X213625000Y-106253571D01*
X213582142Y-106275000D01*
X213560714Y-106296428D01*
X213539285Y-106339285D01*
X213539285Y-106403571D01*
X213560714Y-106446428D01*
X213582142Y-106467857D01*
X213625000Y-106489285D01*
X213796428Y-106489285D01*
X213110714Y-106703571D02*
X213367857Y-106703571D01*
X213239285Y-106703571D02*
X213239285Y-106253571D01*
X213282142Y-106317857D01*
X213325000Y-106360714D01*
X213367857Y-106382142D01*
X212939285Y-106296428D02*
X212917857Y-106275000D01*
X212875000Y-106253571D01*
X212767857Y-106253571D01*
X212725000Y-106275000D01*
X212703571Y-106296428D01*
X212682142Y-106339285D01*
X212682142Y-106382142D01*
X212703571Y-106446428D01*
X212960714Y-106703571D01*
X212682142Y-106703571D01*
X219289285Y-105003571D02*
X219439285Y-104789285D01*
X219546428Y-105003571D02*
X219546428Y-104553571D01*
X219375000Y-104553571D01*
X219332142Y-104575000D01*
X219310714Y-104596428D01*
X219289285Y-104639285D01*
X219289285Y-104703571D01*
X219310714Y-104746428D01*
X219332142Y-104767857D01*
X219375000Y-104789285D01*
X219546428Y-104789285D01*
X218860714Y-105003571D02*
X219117857Y-105003571D01*
X218989285Y-105003571D02*
X218989285Y-104553571D01*
X219032142Y-104617857D01*
X219075000Y-104660714D01*
X219117857Y-104682142D01*
X218432142Y-105003571D02*
X218689285Y-105003571D01*
X218560714Y-105003571D02*
X218560714Y-104553571D01*
X218603571Y-104617857D01*
X218646428Y-104660714D01*
X218689285Y-104682142D01*
X222332142Y-105203571D02*
X222332142Y-104753571D01*
X222225000Y-104753571D01*
X222160714Y-104775000D01*
X222117857Y-104817857D01*
X222096428Y-104860714D01*
X222075000Y-104946428D01*
X222075000Y-105010714D01*
X222096428Y-105096428D01*
X222117857Y-105139285D01*
X222160714Y-105182142D01*
X222225000Y-105203571D01*
X222332142Y-105203571D01*
X221646428Y-105203571D02*
X221903571Y-105203571D01*
X221775000Y-105203571D02*
X221775000Y-104753571D01*
X221817857Y-104817857D01*
X221860714Y-104860714D01*
X221903571Y-104882142D01*
X203539285Y-110160714D02*
X203560714Y-110182142D01*
X203625000Y-110203571D01*
X203667857Y-110203571D01*
X203732142Y-110182142D01*
X203775000Y-110139285D01*
X203796428Y-110096428D01*
X203817857Y-110010714D01*
X203817857Y-109946428D01*
X203796428Y-109860714D01*
X203775000Y-109817857D01*
X203732142Y-109775000D01*
X203667857Y-109753571D01*
X203625000Y-109753571D01*
X203560714Y-109775000D01*
X203539285Y-109796428D01*
X203367857Y-109796428D02*
X203346428Y-109775000D01*
X203303571Y-109753571D01*
X203196428Y-109753571D01*
X203153571Y-109775000D01*
X203132142Y-109796428D01*
X203110714Y-109839285D01*
X203110714Y-109882142D01*
X203132142Y-109946428D01*
X203389285Y-110203571D01*
X203110714Y-110203571D01*
X202682142Y-110203571D02*
X202939285Y-110203571D01*
X202810714Y-110203571D02*
X202810714Y-109753571D01*
X202853571Y-109817857D01*
X202896428Y-109860714D01*
X202939285Y-109882142D01*
X178092857Y-139253571D02*
X178092857Y-139617857D01*
X178071428Y-139660714D01*
X178050000Y-139682142D01*
X178007142Y-139703571D01*
X177921428Y-139703571D01*
X177878571Y-139682142D01*
X177857142Y-139660714D01*
X177835714Y-139617857D01*
X177835714Y-139253571D01*
X177385714Y-139703571D02*
X177642857Y-139703571D01*
X177514285Y-139703571D02*
X177514285Y-139253571D01*
X177557142Y-139317857D01*
X177600000Y-139360714D01*
X177642857Y-139382142D01*
X204842857Y-130003571D02*
X204842857Y-130367857D01*
X204821428Y-130410714D01*
X204800000Y-130432142D01*
X204757142Y-130453571D01*
X204671428Y-130453571D01*
X204628571Y-130432142D01*
X204607142Y-130410714D01*
X204585714Y-130367857D01*
X204585714Y-130003571D01*
X204178571Y-130153571D02*
X204178571Y-130453571D01*
X204285714Y-129982142D02*
X204392857Y-130303571D01*
X204114285Y-130303571D01*
X213039285Y-131910714D02*
X213060714Y-131932142D01*
X213125000Y-131953571D01*
X213167857Y-131953571D01*
X213232142Y-131932142D01*
X213275000Y-131889285D01*
X213296428Y-131846428D01*
X213317857Y-131760714D01*
X213317857Y-131696428D01*
X213296428Y-131610714D01*
X213275000Y-131567857D01*
X213232142Y-131525000D01*
X213167857Y-131503571D01*
X213125000Y-131503571D01*
X213060714Y-131525000D01*
X213039285Y-131546428D01*
X212610714Y-131953571D02*
X212867857Y-131953571D01*
X212739285Y-131953571D02*
X212739285Y-131503571D01*
X212782142Y-131567857D01*
X212825000Y-131610714D01*
X212867857Y-131632142D01*
X212396428Y-131953571D02*
X212310714Y-131953571D01*
X212267857Y-131932142D01*
X212246428Y-131910714D01*
X212203571Y-131846428D01*
X212182142Y-131760714D01*
X212182142Y-131589285D01*
X212203571Y-131546428D01*
X212225000Y-131525000D01*
X212267857Y-131503571D01*
X212353571Y-131503571D01*
X212396428Y-131525000D01*
X212417857Y-131546428D01*
X212439285Y-131589285D01*
X212439285Y-131696428D01*
X212417857Y-131739285D01*
X212396428Y-131760714D01*
X212353571Y-131782142D01*
X212267857Y-131782142D01*
X212225000Y-131760714D01*
X212203571Y-131739285D01*
X212182142Y-131696428D01*
X210392857Y-146603571D02*
X210392857Y-146967857D01*
X210371428Y-147010714D01*
X210350000Y-147032142D01*
X210307142Y-147053571D01*
X210221428Y-147053571D01*
X210178571Y-147032142D01*
X210157142Y-147010714D01*
X210135714Y-146967857D01*
X210135714Y-146603571D01*
X209707142Y-146603571D02*
X209921428Y-146603571D01*
X209942857Y-146817857D01*
X209921428Y-146796428D01*
X209878571Y-146775000D01*
X209771428Y-146775000D01*
X209728571Y-146796428D01*
X209707142Y-146817857D01*
X209685714Y-146860714D01*
X209685714Y-146967857D01*
X209707142Y-147010714D01*
X209728571Y-147032142D01*
X209771428Y-147053571D01*
X209878571Y-147053571D01*
X209921428Y-147032142D01*
X209942857Y-147010714D01*
X209355223Y-121088138D02*
X209505223Y-120873852D01*
X209612366Y-121088138D02*
X209612366Y-120638138D01*
X209440938Y-120638138D01*
X209398080Y-120659567D01*
X209376652Y-120680995D01*
X209355223Y-120723852D01*
X209355223Y-120788138D01*
X209376652Y-120830995D01*
X209398080Y-120852424D01*
X209440938Y-120873852D01*
X209612366Y-120873852D01*
X208926652Y-121088138D02*
X209183795Y-121088138D01*
X209055223Y-121088138D02*
X209055223Y-120638138D01*
X209098080Y-120702424D01*
X209140938Y-120745281D01*
X209183795Y-120766709D01*
X208776652Y-120638138D02*
X208476652Y-120638138D01*
X208669509Y-121088138D01*
X209355223Y-119888138D02*
X209505223Y-119673852D01*
X209612366Y-119888138D02*
X209612366Y-119438138D01*
X209440938Y-119438138D01*
X209398080Y-119459567D01*
X209376652Y-119480995D01*
X209355223Y-119523852D01*
X209355223Y-119588138D01*
X209376652Y-119630995D01*
X209398080Y-119652424D01*
X209440938Y-119673852D01*
X209612366Y-119673852D01*
X208926652Y-119888138D02*
X209183795Y-119888138D01*
X209055223Y-119888138D02*
X209055223Y-119438138D01*
X209098080Y-119502424D01*
X209140938Y-119545281D01*
X209183795Y-119566709D01*
X208540938Y-119438138D02*
X208626652Y-119438138D01*
X208669509Y-119459567D01*
X208690938Y-119480995D01*
X208733795Y-119545281D01*
X208755223Y-119630995D01*
X208755223Y-119802424D01*
X208733795Y-119845281D01*
X208712366Y-119866709D01*
X208669509Y-119888138D01*
X208583795Y-119888138D01*
X208540938Y-119866709D01*
X208519509Y-119845281D01*
X208498080Y-119802424D01*
X208498080Y-119695281D01*
X208519509Y-119652424D01*
X208540938Y-119630995D01*
X208583795Y-119609567D01*
X208669509Y-119609567D01*
X208712366Y-119630995D01*
X208733795Y-119652424D01*
X208755223Y-119695281D01*
X211039285Y-142953571D02*
X211189285Y-142739285D01*
X211296428Y-142953571D02*
X211296428Y-142503571D01*
X211125000Y-142503571D01*
X211082142Y-142525000D01*
X211060714Y-142546428D01*
X211039285Y-142589285D01*
X211039285Y-142653571D01*
X211060714Y-142696428D01*
X211082142Y-142717857D01*
X211125000Y-142739285D01*
X211296428Y-142739285D01*
X210610714Y-142953571D02*
X210867857Y-142953571D01*
X210739285Y-142953571D02*
X210739285Y-142503571D01*
X210782142Y-142567857D01*
X210825000Y-142610714D01*
X210867857Y-142632142D01*
X210203571Y-142503571D02*
X210417857Y-142503571D01*
X210439285Y-142717857D01*
X210417857Y-142696428D01*
X210375000Y-142675000D01*
X210267857Y-142675000D01*
X210225000Y-142696428D01*
X210203571Y-142717857D01*
X210182142Y-142760714D01*
X210182142Y-142867857D01*
X210203571Y-142910714D01*
X210225000Y-142932142D01*
X210267857Y-142953571D01*
X210375000Y-142953571D01*
X210417857Y-142932142D01*
X210439285Y-142910714D01*
X209789285Y-142453571D02*
X209939285Y-142239285D01*
X210046428Y-142453571D02*
X210046428Y-142003571D01*
X209875000Y-142003571D01*
X209832142Y-142025000D01*
X209810714Y-142046428D01*
X209789285Y-142089285D01*
X209789285Y-142153571D01*
X209810714Y-142196428D01*
X209832142Y-142217857D01*
X209875000Y-142239285D01*
X210046428Y-142239285D01*
X209360714Y-142453571D02*
X209617857Y-142453571D01*
X209489285Y-142453571D02*
X209489285Y-142003571D01*
X209532142Y-142067857D01*
X209575000Y-142110714D01*
X209617857Y-142132142D01*
X208975000Y-142153571D02*
X208975000Y-142453571D01*
X209082142Y-141982142D02*
X209189285Y-142303571D01*
X208910714Y-142303571D01*
X212039285Y-138903571D02*
X212189285Y-138689285D01*
X212296428Y-138903571D02*
X212296428Y-138453571D01*
X212125000Y-138453571D01*
X212082142Y-138475000D01*
X212060714Y-138496428D01*
X212039285Y-138539285D01*
X212039285Y-138603571D01*
X212060714Y-138646428D01*
X212082142Y-138667857D01*
X212125000Y-138689285D01*
X212296428Y-138689285D01*
X211610714Y-138903571D02*
X211867857Y-138903571D01*
X211739285Y-138903571D02*
X211739285Y-138453571D01*
X211782142Y-138517857D01*
X211825000Y-138560714D01*
X211867857Y-138582142D01*
X211460714Y-138453571D02*
X211182142Y-138453571D01*
X211332142Y-138625000D01*
X211267857Y-138625000D01*
X211225000Y-138646428D01*
X211203571Y-138667857D01*
X211182142Y-138710714D01*
X211182142Y-138817857D01*
X211203571Y-138860714D01*
X211225000Y-138882142D01*
X211267857Y-138903571D01*
X211396428Y-138903571D01*
X211439285Y-138882142D01*
X211460714Y-138860714D01*
X209309744Y-128218290D02*
X209459744Y-128004004D01*
X209566887Y-128218290D02*
X209566887Y-127768290D01*
X209395459Y-127768290D01*
X209352601Y-127789719D01*
X209331173Y-127811147D01*
X209309744Y-127854004D01*
X209309744Y-127918290D01*
X209331173Y-127961147D01*
X209352601Y-127982576D01*
X209395459Y-128004004D01*
X209566887Y-128004004D01*
X208881173Y-128218290D02*
X209138316Y-128218290D01*
X209009744Y-128218290D02*
X209009744Y-127768290D01*
X209052601Y-127832576D01*
X209095459Y-127875433D01*
X209138316Y-127896861D01*
X208602601Y-127768290D02*
X208559744Y-127768290D01*
X208516887Y-127789719D01*
X208495459Y-127811147D01*
X208474030Y-127854004D01*
X208452601Y-127939719D01*
X208452601Y-128046861D01*
X208474030Y-128132576D01*
X208495459Y-128175433D01*
X208516887Y-128196861D01*
X208559744Y-128218290D01*
X208602601Y-128218290D01*
X208645459Y-128196861D01*
X208666887Y-128175433D01*
X208688316Y-128132576D01*
X208709744Y-128046861D01*
X208709744Y-127939719D01*
X208688316Y-127854004D01*
X208666887Y-127811147D01*
X208645459Y-127789719D01*
X208602601Y-127768290D01*
X217125000Y-120903571D02*
X217275000Y-120689285D01*
X217382142Y-120903571D02*
X217382142Y-120453571D01*
X217210714Y-120453571D01*
X217167857Y-120475000D01*
X217146428Y-120496428D01*
X217125000Y-120539285D01*
X217125000Y-120603571D01*
X217146428Y-120646428D01*
X217167857Y-120667857D01*
X217210714Y-120689285D01*
X217382142Y-120689285D01*
X216910714Y-120903571D02*
X216825000Y-120903571D01*
X216782142Y-120882142D01*
X216760714Y-120860714D01*
X216717857Y-120796428D01*
X216696428Y-120710714D01*
X216696428Y-120539285D01*
X216717857Y-120496428D01*
X216739285Y-120475000D01*
X216782142Y-120453571D01*
X216867857Y-120453571D01*
X216910714Y-120475000D01*
X216932142Y-120496428D01*
X216953571Y-120539285D01*
X216953571Y-120646428D01*
X216932142Y-120689285D01*
X216910714Y-120710714D01*
X216867857Y-120732142D01*
X216782142Y-120732142D01*
X216739285Y-120710714D01*
X216717857Y-120689285D01*
X216696428Y-120646428D01*
X217125000Y-113453571D02*
X217275000Y-113239285D01*
X217382142Y-113453571D02*
X217382142Y-113003571D01*
X217210714Y-113003571D01*
X217167857Y-113025000D01*
X217146428Y-113046428D01*
X217125000Y-113089285D01*
X217125000Y-113153571D01*
X217146428Y-113196428D01*
X217167857Y-113217857D01*
X217210714Y-113239285D01*
X217382142Y-113239285D01*
X216867857Y-113196428D02*
X216910714Y-113175000D01*
X216932142Y-113153571D01*
X216953571Y-113110714D01*
X216953571Y-113089285D01*
X216932142Y-113046428D01*
X216910714Y-113025000D01*
X216867857Y-113003571D01*
X216782142Y-113003571D01*
X216739285Y-113025000D01*
X216717857Y-113046428D01*
X216696428Y-113089285D01*
X216696428Y-113110714D01*
X216717857Y-113153571D01*
X216739285Y-113175000D01*
X216782142Y-113196428D01*
X216867857Y-113196428D01*
X216910714Y-113217857D01*
X216932142Y-113239285D01*
X216953571Y-113282142D01*
X216953571Y-113367857D01*
X216932142Y-113410714D01*
X216910714Y-113432142D01*
X216867857Y-113453571D01*
X216782142Y-113453571D01*
X216739285Y-113432142D01*
X216717857Y-113410714D01*
X216696428Y-113367857D01*
X216696428Y-113282142D01*
X216717857Y-113239285D01*
X216739285Y-113217857D01*
X216782142Y-113196428D01*
X182575000Y-150203571D02*
X182725000Y-149989285D01*
X182832142Y-150203571D02*
X182832142Y-149753571D01*
X182660714Y-149753571D01*
X182617857Y-149775000D01*
X182596428Y-149796428D01*
X182575000Y-149839285D01*
X182575000Y-149903571D01*
X182596428Y-149946428D01*
X182617857Y-149967857D01*
X182660714Y-149989285D01*
X182832142Y-149989285D01*
X182425000Y-149753571D02*
X182125000Y-149753571D01*
X182317857Y-150203571D01*
X182948224Y-136458901D02*
X183098224Y-136244615D01*
X183205366Y-136458901D02*
X183205366Y-136008901D01*
X183033938Y-136008901D01*
X182991081Y-136030330D01*
X182969652Y-136051758D01*
X182948224Y-136094615D01*
X182948224Y-136158901D01*
X182969652Y-136201758D01*
X182991081Y-136223187D01*
X183033938Y-136244615D01*
X183205366Y-136244615D01*
X182562509Y-136008901D02*
X182648224Y-136008901D01*
X182691081Y-136030330D01*
X182712509Y-136051758D01*
X182755366Y-136116044D01*
X182776795Y-136201758D01*
X182776795Y-136373187D01*
X182755366Y-136416044D01*
X182733938Y-136437472D01*
X182691081Y-136458901D01*
X182605366Y-136458901D01*
X182562509Y-136437472D01*
X182541081Y-136416044D01*
X182519652Y-136373187D01*
X182519652Y-136266044D01*
X182541081Y-136223187D01*
X182562509Y-136201758D01*
X182605366Y-136180330D01*
X182691081Y-136180330D01*
X182733938Y-136201758D01*
X182755366Y-136223187D01*
X182776795Y-136266044D01*
X182948224Y-133703571D02*
X183098224Y-133489285D01*
X183205366Y-133703571D02*
X183205366Y-133253571D01*
X183033938Y-133253571D01*
X182991081Y-133275000D01*
X182969652Y-133296428D01*
X182948224Y-133339285D01*
X182948224Y-133403571D01*
X182969652Y-133446428D01*
X182991081Y-133467857D01*
X183033938Y-133489285D01*
X183205366Y-133489285D01*
X182541081Y-133253571D02*
X182755366Y-133253571D01*
X182776795Y-133467857D01*
X182755366Y-133446428D01*
X182712509Y-133425000D01*
X182605366Y-133425000D01*
X182562509Y-133446428D01*
X182541081Y-133467857D01*
X182519652Y-133510714D01*
X182519652Y-133617857D01*
X182541081Y-133660714D01*
X182562509Y-133682142D01*
X182605366Y-133703571D01*
X182712509Y-133703571D01*
X182755366Y-133682142D01*
X182776795Y-133660714D01*
X187948223Y-148908901D02*
X188098223Y-148694615D01*
X188205365Y-148908901D02*
X188205365Y-148458901D01*
X188033937Y-148458901D01*
X187991080Y-148480330D01*
X187969651Y-148501758D01*
X187948223Y-148544615D01*
X187948223Y-148608901D01*
X187969651Y-148651758D01*
X187991080Y-148673187D01*
X188033937Y-148694615D01*
X188205365Y-148694615D01*
X187562508Y-148608901D02*
X187562508Y-148908901D01*
X187669651Y-148437472D02*
X187776794Y-148758901D01*
X187498223Y-148758901D01*
X186673223Y-148908901D02*
X186823223Y-148694615D01*
X186930365Y-148908901D02*
X186930365Y-148458901D01*
X186758937Y-148458901D01*
X186716080Y-148480330D01*
X186694651Y-148501758D01*
X186673223Y-148544615D01*
X186673223Y-148608901D01*
X186694651Y-148651758D01*
X186716080Y-148673187D01*
X186758937Y-148694615D01*
X186930365Y-148694615D01*
X186523223Y-148458901D02*
X186244651Y-148458901D01*
X186394651Y-148630330D01*
X186330365Y-148630330D01*
X186287508Y-148651758D01*
X186266080Y-148673187D01*
X186244651Y-148716044D01*
X186244651Y-148823187D01*
X186266080Y-148866044D01*
X186287508Y-148887472D01*
X186330365Y-148908901D01*
X186458937Y-148908901D01*
X186501794Y-148887472D01*
X186523223Y-148866044D01*
X186498224Y-133953571D02*
X186648224Y-133739285D01*
X186755366Y-133953571D02*
X186755366Y-133503571D01*
X186583938Y-133503571D01*
X186541081Y-133525000D01*
X186519652Y-133546428D01*
X186498224Y-133589285D01*
X186498224Y-133653571D01*
X186519652Y-133696428D01*
X186541081Y-133717857D01*
X186583938Y-133739285D01*
X186755366Y-133739285D01*
X186326795Y-133546428D02*
X186305366Y-133525000D01*
X186262509Y-133503571D01*
X186155366Y-133503571D01*
X186112509Y-133525000D01*
X186091081Y-133546428D01*
X186069652Y-133589285D01*
X186069652Y-133632142D01*
X186091081Y-133696428D01*
X186348224Y-133953571D01*
X186069652Y-133953571D01*
X187998223Y-133953571D02*
X188148223Y-133739285D01*
X188255365Y-133953571D02*
X188255365Y-133503571D01*
X188083937Y-133503571D01*
X188041080Y-133525000D01*
X188019651Y-133546428D01*
X187998223Y-133589285D01*
X187998223Y-133653571D01*
X188019651Y-133696428D01*
X188041080Y-133717857D01*
X188083937Y-133739285D01*
X188255365Y-133739285D01*
X187569651Y-133953571D02*
X187826794Y-133953571D01*
X187698223Y-133953571D02*
X187698223Y-133503571D01*
X187741080Y-133567857D01*
X187783937Y-133610714D01*
X187826794Y-133632142D01*
X213039285Y-143210714D02*
X213060714Y-143232142D01*
X213125000Y-143253571D01*
X213167857Y-143253571D01*
X213232142Y-143232142D01*
X213275000Y-143189285D01*
X213296428Y-143146428D01*
X213317857Y-143060714D01*
X213317857Y-142996428D01*
X213296428Y-142910714D01*
X213275000Y-142867857D01*
X213232142Y-142825000D01*
X213167857Y-142803571D01*
X213125000Y-142803571D01*
X213060714Y-142825000D01*
X213039285Y-142846428D01*
X212610714Y-143253571D02*
X212867857Y-143253571D01*
X212739285Y-143253571D02*
X212739285Y-142803571D01*
X212782142Y-142867857D01*
X212825000Y-142910714D01*
X212867857Y-142932142D01*
X212353571Y-142996428D02*
X212396428Y-142975000D01*
X212417857Y-142953571D01*
X212439285Y-142910714D01*
X212439285Y-142889285D01*
X212417857Y-142846428D01*
X212396428Y-142825000D01*
X212353571Y-142803571D01*
X212267857Y-142803571D01*
X212225000Y-142825000D01*
X212203571Y-142846428D01*
X212182142Y-142889285D01*
X212182142Y-142910714D01*
X212203571Y-142953571D01*
X212225000Y-142975000D01*
X212267857Y-142996428D01*
X212353571Y-142996428D01*
X212396428Y-143017857D01*
X212417857Y-143039285D01*
X212439285Y-143082142D01*
X212439285Y-143167857D01*
X212417857Y-143210714D01*
X212396428Y-143232142D01*
X212353571Y-143253571D01*
X212267857Y-143253571D01*
X212225000Y-143232142D01*
X212203571Y-143210714D01*
X212182142Y-143167857D01*
X212182142Y-143082142D01*
X212203571Y-143039285D01*
X212225000Y-143017857D01*
X212267857Y-142996428D01*
X211039285Y-149160714D02*
X211060714Y-149182142D01*
X211125000Y-149203571D01*
X211167857Y-149203571D01*
X211232142Y-149182142D01*
X211275000Y-149139285D01*
X211296428Y-149096428D01*
X211317857Y-149010714D01*
X211317857Y-148946428D01*
X211296428Y-148860714D01*
X211275000Y-148817857D01*
X211232142Y-148775000D01*
X211167857Y-148753571D01*
X211125000Y-148753571D01*
X211060714Y-148775000D01*
X211039285Y-148796428D01*
X210610714Y-149203571D02*
X210867857Y-149203571D01*
X210739285Y-149203571D02*
X210739285Y-148753571D01*
X210782142Y-148817857D01*
X210825000Y-148860714D01*
X210867857Y-148882142D01*
X210460714Y-148753571D02*
X210160714Y-148753571D01*
X210353571Y-149203571D01*
X196789285Y-139910714D02*
X196810714Y-139932142D01*
X196875000Y-139953571D01*
X196917857Y-139953571D01*
X196982142Y-139932142D01*
X197025000Y-139889285D01*
X197046428Y-139846428D01*
X197067857Y-139760714D01*
X197067857Y-139696428D01*
X197046428Y-139610714D01*
X197025000Y-139567857D01*
X196982142Y-139525000D01*
X196917857Y-139503571D01*
X196875000Y-139503571D01*
X196810714Y-139525000D01*
X196789285Y-139546428D01*
X196360714Y-139953571D02*
X196617857Y-139953571D01*
X196489285Y-139953571D02*
X196489285Y-139503571D01*
X196532142Y-139567857D01*
X196575000Y-139610714D01*
X196617857Y-139632142D01*
X195975000Y-139503571D02*
X196060714Y-139503571D01*
X196103571Y-139525000D01*
X196125000Y-139546428D01*
X196167857Y-139610714D01*
X196189285Y-139696428D01*
X196189285Y-139867857D01*
X196167857Y-139910714D01*
X196146428Y-139932142D01*
X196103571Y-139953571D01*
X196017857Y-139953571D01*
X195975000Y-139932142D01*
X195953571Y-139910714D01*
X195932142Y-139867857D01*
X195932142Y-139760714D01*
X195953571Y-139717857D01*
X195975000Y-139696428D01*
X196017857Y-139675000D01*
X196103571Y-139675000D01*
X196146428Y-139696428D01*
X196167857Y-139717857D01*
X196189285Y-139760714D01*
X210794667Y-131286703D02*
X210816096Y-131308131D01*
X210880382Y-131329560D01*
X210923239Y-131329560D01*
X210987524Y-131308131D01*
X211030382Y-131265274D01*
X211051810Y-131222417D01*
X211073239Y-131136703D01*
X211073239Y-131072417D01*
X211051810Y-130986703D01*
X211030382Y-130943846D01*
X210987524Y-130900989D01*
X210923239Y-130879560D01*
X210880382Y-130879560D01*
X210816096Y-130900989D01*
X210794667Y-130922417D01*
X210366096Y-131329560D02*
X210623239Y-131329560D01*
X210494667Y-131329560D02*
X210494667Y-130879560D01*
X210537524Y-130943846D01*
X210580382Y-130986703D01*
X210623239Y-131008131D01*
X209958953Y-130879560D02*
X210173239Y-130879560D01*
X210194667Y-131093846D01*
X210173239Y-131072417D01*
X210130382Y-131050989D01*
X210023239Y-131050989D01*
X209980382Y-131072417D01*
X209958953Y-131093846D01*
X209937524Y-131136703D01*
X209937524Y-131243846D01*
X209958953Y-131286703D01*
X209980382Y-131308131D01*
X210023239Y-131329560D01*
X210130382Y-131329560D01*
X210173239Y-131308131D01*
X210194667Y-131286703D01*
X208039285Y-141160714D02*
X208060714Y-141182142D01*
X208125000Y-141203571D01*
X208167857Y-141203571D01*
X208232142Y-141182142D01*
X208275000Y-141139285D01*
X208296428Y-141096428D01*
X208317857Y-141010714D01*
X208317857Y-140946428D01*
X208296428Y-140860714D01*
X208275000Y-140817857D01*
X208232142Y-140775000D01*
X208167857Y-140753571D01*
X208125000Y-140753571D01*
X208060714Y-140775000D01*
X208039285Y-140796428D01*
X207610714Y-141203571D02*
X207867857Y-141203571D01*
X207739285Y-141203571D02*
X207739285Y-140753571D01*
X207782142Y-140817857D01*
X207825000Y-140860714D01*
X207867857Y-140882142D01*
X207225000Y-140903571D02*
X207225000Y-141203571D01*
X207332142Y-140732142D02*
X207439285Y-141053571D01*
X207160714Y-141053571D01*
X203539285Y-128910715D02*
X203560714Y-128932143D01*
X203625000Y-128953572D01*
X203667857Y-128953572D01*
X203732142Y-128932143D01*
X203775000Y-128889286D01*
X203796428Y-128846429D01*
X203817857Y-128760715D01*
X203817857Y-128696429D01*
X203796428Y-128610715D01*
X203775000Y-128567858D01*
X203732142Y-128525001D01*
X203667857Y-128503572D01*
X203625000Y-128503572D01*
X203560714Y-128525001D01*
X203539285Y-128546429D01*
X203110714Y-128953572D02*
X203367857Y-128953572D01*
X203239285Y-128953572D02*
X203239285Y-128503572D01*
X203282142Y-128567858D01*
X203325000Y-128610715D01*
X203367857Y-128632143D01*
X202960714Y-128503572D02*
X202682142Y-128503572D01*
X202832142Y-128675001D01*
X202767857Y-128675001D01*
X202725000Y-128696429D01*
X202703571Y-128717858D01*
X202682142Y-128760715D01*
X202682142Y-128867858D01*
X202703571Y-128910715D01*
X202725000Y-128932143D01*
X202767857Y-128953572D01*
X202896428Y-128953572D01*
X202939285Y-128932143D01*
X202960714Y-128910715D01*
X215039285Y-130660714D02*
X215060714Y-130682142D01*
X215125000Y-130703571D01*
X215167857Y-130703571D01*
X215232142Y-130682142D01*
X215275000Y-130639285D01*
X215296428Y-130596428D01*
X215317857Y-130510714D01*
X215317857Y-130446428D01*
X215296428Y-130360714D01*
X215275000Y-130317857D01*
X215232142Y-130275000D01*
X215167857Y-130253571D01*
X215125000Y-130253571D01*
X215060714Y-130275000D01*
X215039285Y-130296428D01*
X214610714Y-130703571D02*
X214867857Y-130703571D01*
X214739285Y-130703571D02*
X214739285Y-130253571D01*
X214782142Y-130317857D01*
X214825000Y-130360714D01*
X214867857Y-130382142D01*
X214439285Y-130296428D02*
X214417857Y-130275000D01*
X214375000Y-130253571D01*
X214267857Y-130253571D01*
X214225000Y-130275000D01*
X214203571Y-130296428D01*
X214182142Y-130339285D01*
X214182142Y-130382142D01*
X214203571Y-130446428D01*
X214460714Y-130703571D01*
X214182142Y-130703571D01*
X216289285Y-130660714D02*
X216310714Y-130682142D01*
X216375000Y-130703571D01*
X216417857Y-130703571D01*
X216482142Y-130682142D01*
X216525000Y-130639285D01*
X216546428Y-130596428D01*
X216567857Y-130510714D01*
X216567857Y-130446428D01*
X216546428Y-130360714D01*
X216525000Y-130317857D01*
X216482142Y-130275000D01*
X216417857Y-130253571D01*
X216375000Y-130253571D01*
X216310714Y-130275000D01*
X216289285Y-130296428D01*
X215860714Y-130703571D02*
X216117857Y-130703571D01*
X215989285Y-130703571D02*
X215989285Y-130253571D01*
X216032142Y-130317857D01*
X216075000Y-130360714D01*
X216117857Y-130382142D01*
X215432142Y-130703571D02*
X215689285Y-130703571D01*
X215560714Y-130703571D02*
X215560714Y-130253571D01*
X215603571Y-130317857D01*
X215646428Y-130360714D01*
X215689285Y-130382142D01*
X210193627Y-129059316D02*
X210215056Y-129080744D01*
X210279342Y-129102173D01*
X210322199Y-129102173D01*
X210386484Y-129080744D01*
X210429342Y-129037887D01*
X210450770Y-128995030D01*
X210472199Y-128909316D01*
X210472199Y-128845030D01*
X210450770Y-128759316D01*
X210429342Y-128716459D01*
X210386484Y-128673602D01*
X210322199Y-128652173D01*
X210279342Y-128652173D01*
X210215056Y-128673602D01*
X210193627Y-128695030D01*
X209765056Y-129102173D02*
X210022199Y-129102173D01*
X209893627Y-129102173D02*
X209893627Y-128652173D01*
X209936484Y-128716459D01*
X209979342Y-128759316D01*
X210022199Y-128780744D01*
X209486484Y-128652173D02*
X209443627Y-128652173D01*
X209400770Y-128673602D01*
X209379342Y-128695030D01*
X209357913Y-128737887D01*
X209336484Y-128823602D01*
X209336484Y-128930744D01*
X209357913Y-129016459D01*
X209379342Y-129059316D01*
X209400770Y-129080744D01*
X209443627Y-129102173D01*
X209486484Y-129102173D01*
X209529342Y-129080744D01*
X209550770Y-129059316D01*
X209572199Y-129016459D01*
X209593627Y-128930744D01*
X209593627Y-128823602D01*
X209572199Y-128737887D01*
X209550770Y-128695030D01*
X209529342Y-128673602D01*
X209486484Y-128652173D01*
X214875001Y-123810714D02*
X214896429Y-123832142D01*
X214960715Y-123853571D01*
X215003572Y-123853571D01*
X215067858Y-123832142D01*
X215110715Y-123789285D01*
X215132143Y-123746428D01*
X215153572Y-123660714D01*
X215153572Y-123596428D01*
X215132143Y-123510714D01*
X215110715Y-123467857D01*
X215067858Y-123425000D01*
X215003572Y-123403571D01*
X214960715Y-123403571D01*
X214896429Y-123425000D01*
X214875001Y-123446428D01*
X214660715Y-123853571D02*
X214575001Y-123853571D01*
X214532143Y-123832142D01*
X214510715Y-123810714D01*
X214467858Y-123746428D01*
X214446429Y-123660714D01*
X214446429Y-123489285D01*
X214467858Y-123446428D01*
X214489286Y-123425000D01*
X214532143Y-123403571D01*
X214617858Y-123403571D01*
X214660715Y-123425000D01*
X214682143Y-123446428D01*
X214703572Y-123489285D01*
X214703572Y-123596428D01*
X214682143Y-123639285D01*
X214660715Y-123660714D01*
X214617858Y-123682142D01*
X214532143Y-123682142D01*
X214489286Y-123660714D01*
X214467858Y-123639285D01*
X214446429Y-123596428D01*
X216125000Y-123810714D02*
X216146428Y-123832142D01*
X216210714Y-123853571D01*
X216253571Y-123853571D01*
X216317857Y-123832142D01*
X216360714Y-123789285D01*
X216382142Y-123746428D01*
X216403571Y-123660714D01*
X216403571Y-123596428D01*
X216382142Y-123510714D01*
X216360714Y-123467857D01*
X216317857Y-123425000D01*
X216253571Y-123403571D01*
X216210714Y-123403571D01*
X216146428Y-123425000D01*
X216125000Y-123446428D01*
X215867857Y-123596428D02*
X215910714Y-123575000D01*
X215932142Y-123553571D01*
X215953571Y-123510714D01*
X215953571Y-123489285D01*
X215932142Y-123446428D01*
X215910714Y-123425000D01*
X215867857Y-123403571D01*
X215782142Y-123403571D01*
X215739285Y-123425000D01*
X215717857Y-123446428D01*
X215696428Y-123489285D01*
X215696428Y-123510714D01*
X215717857Y-123553571D01*
X215739285Y-123575000D01*
X215782142Y-123596428D01*
X215867857Y-123596428D01*
X215910714Y-123617857D01*
X215932142Y-123639285D01*
X215953571Y-123682142D01*
X215953571Y-123767857D01*
X215932142Y-123810714D01*
X215910714Y-123832142D01*
X215867857Y-123853571D01*
X215782142Y-123853571D01*
X215739285Y-123832142D01*
X215717857Y-123810714D01*
X215696428Y-123767857D01*
X215696428Y-123682142D01*
X215717857Y-123639285D01*
X215739285Y-123617857D01*
X215782142Y-123596428D01*
X214575000Y-120710714D02*
X214596428Y-120732142D01*
X214660714Y-120753571D01*
X214703571Y-120753571D01*
X214767857Y-120732142D01*
X214810714Y-120689285D01*
X214832142Y-120646428D01*
X214853571Y-120560714D01*
X214853571Y-120496428D01*
X214832142Y-120410714D01*
X214810714Y-120367857D01*
X214767857Y-120325000D01*
X214703571Y-120303571D01*
X214660714Y-120303571D01*
X214596428Y-120325000D01*
X214575000Y-120346428D01*
X214425000Y-120303571D02*
X214125000Y-120303571D01*
X214317857Y-120753571D01*
X182075000Y-148166044D02*
X182096428Y-148187472D01*
X182160714Y-148208901D01*
X182203571Y-148208901D01*
X182267857Y-148187472D01*
X182310714Y-148144615D01*
X182332142Y-148101758D01*
X182353571Y-148016044D01*
X182353571Y-147951758D01*
X182332142Y-147866044D01*
X182310714Y-147823187D01*
X182267857Y-147780330D01*
X182203571Y-147758901D01*
X182160714Y-147758901D01*
X182096428Y-147780330D01*
X182075000Y-147801758D01*
X181689285Y-147758901D02*
X181775000Y-147758901D01*
X181817857Y-147780330D01*
X181839285Y-147801758D01*
X181882142Y-147866044D01*
X181903571Y-147951758D01*
X181903571Y-148123187D01*
X181882142Y-148166044D01*
X181860714Y-148187472D01*
X181817857Y-148208901D01*
X181732142Y-148208901D01*
X181689285Y-148187472D01*
X181667857Y-148166044D01*
X181646428Y-148123187D01*
X181646428Y-148016044D01*
X181667857Y-147973187D01*
X181689285Y-147951758D01*
X181732142Y-147930330D01*
X181817857Y-147930330D01*
X181860714Y-147951758D01*
X181882142Y-147973187D01*
X181903571Y-148016044D01*
X182075000Y-146666045D02*
X182096428Y-146687473D01*
X182160714Y-146708902D01*
X182203571Y-146708902D01*
X182267857Y-146687473D01*
X182310714Y-146644616D01*
X182332142Y-146601759D01*
X182353571Y-146516045D01*
X182353571Y-146451759D01*
X182332142Y-146366045D01*
X182310714Y-146323188D01*
X182267857Y-146280331D01*
X182203571Y-146258902D01*
X182160714Y-146258902D01*
X182096428Y-146280331D01*
X182075000Y-146301759D01*
X181667857Y-146258902D02*
X181882142Y-146258902D01*
X181903571Y-146473188D01*
X181882142Y-146451759D01*
X181839285Y-146430331D01*
X181732142Y-146430331D01*
X181689285Y-146451759D01*
X181667857Y-146473188D01*
X181646428Y-146516045D01*
X181646428Y-146623188D01*
X181667857Y-146666045D01*
X181689285Y-146687473D01*
X181732142Y-146708902D01*
X181839285Y-146708902D01*
X181882142Y-146687473D01*
X181903571Y-146666045D01*
X184498224Y-136410714D02*
X184519652Y-136432142D01*
X184583938Y-136453571D01*
X184626795Y-136453571D01*
X184691081Y-136432142D01*
X184733938Y-136389285D01*
X184755366Y-136346428D01*
X184776795Y-136260714D01*
X184776795Y-136196428D01*
X184755366Y-136110714D01*
X184733938Y-136067857D01*
X184691081Y-136025000D01*
X184626795Y-136003571D01*
X184583938Y-136003571D01*
X184519652Y-136025000D01*
X184498224Y-136046428D01*
X184112509Y-136153571D02*
X184112509Y-136453571D01*
X184219652Y-135982142D02*
X184326795Y-136303571D01*
X184048224Y-136303571D01*
X188825000Y-137660714D02*
X188846428Y-137682142D01*
X188910714Y-137703571D01*
X188953571Y-137703571D01*
X189017857Y-137682142D01*
X189060714Y-137639285D01*
X189082142Y-137596428D01*
X189103571Y-137510714D01*
X189103571Y-137446428D01*
X189082142Y-137360714D01*
X189060714Y-137317857D01*
X189017857Y-137275000D01*
X188953571Y-137253571D01*
X188910714Y-137253571D01*
X188846428Y-137275000D01*
X188825000Y-137296428D01*
X188675000Y-137253571D02*
X188396428Y-137253571D01*
X188546428Y-137425000D01*
X188482142Y-137425000D01*
X188439285Y-137446428D01*
X188417857Y-137467857D01*
X188396428Y-137510714D01*
X188396428Y-137617857D01*
X188417857Y-137660714D01*
X188439285Y-137682142D01*
X188482142Y-137703571D01*
X188610714Y-137703571D01*
X188653571Y-137682142D01*
X188675000Y-137660714D01*
X178398224Y-132160714D02*
X178419652Y-132182142D01*
X178483938Y-132203571D01*
X178526795Y-132203571D01*
X178591081Y-132182142D01*
X178633938Y-132139285D01*
X178655366Y-132096428D01*
X178676795Y-132010714D01*
X178676795Y-131946428D01*
X178655366Y-131860714D01*
X178633938Y-131817857D01*
X178591081Y-131775000D01*
X178526795Y-131753571D01*
X178483938Y-131753571D01*
X178419652Y-131775000D01*
X178398224Y-131796428D01*
X178226795Y-131796428D02*
X178205366Y-131775000D01*
X178162509Y-131753571D01*
X178055366Y-131753571D01*
X178012509Y-131775000D01*
X177991081Y-131796428D01*
X177969652Y-131839285D01*
X177969652Y-131882142D01*
X177991081Y-131946428D01*
X178248224Y-132203571D01*
X177969652Y-132203571D01*
X178398224Y-133660714D02*
X178419652Y-133682142D01*
X178483938Y-133703571D01*
X178526795Y-133703571D01*
X178591081Y-133682142D01*
X178633938Y-133639285D01*
X178655366Y-133596428D01*
X178676795Y-133510714D01*
X178676795Y-133446428D01*
X178655366Y-133360714D01*
X178633938Y-133317857D01*
X178591081Y-133275000D01*
X178526795Y-133253571D01*
X178483938Y-133253571D01*
X178419652Y-133275000D01*
X178398224Y-133296428D01*
X177969652Y-133703571D02*
X178226795Y-133703571D01*
X178098224Y-133703571D02*
X178098224Y-133253571D01*
X178141081Y-133317857D01*
X178183938Y-133360714D01*
X178226795Y-133382142D01*
X178266081Y-134951758D02*
X178308938Y-134930330D01*
X178351795Y-134887472D01*
X178416081Y-134823187D01*
X178458938Y-134801758D01*
X178501795Y-134801758D01*
X178480366Y-134908901D02*
X178523224Y-134887472D01*
X178566081Y-134844615D01*
X178587509Y-134758901D01*
X178587509Y-134608901D01*
X178566081Y-134523187D01*
X178523224Y-134480330D01*
X178480366Y-134458901D01*
X178394652Y-134458901D01*
X178351795Y-134480330D01*
X178308938Y-134523187D01*
X178287509Y-134608901D01*
X178287509Y-134758901D01*
X178308938Y-134844615D01*
X178351795Y-134887472D01*
X178394652Y-134908901D01*
X178480366Y-134908901D01*
X177858938Y-134908901D02*
X178116081Y-134908901D01*
X177987509Y-134908901D02*
X177987509Y-134458901D01*
X178030366Y-134523187D01*
X178073224Y-134566044D01*
X178116081Y-134587472D01*
X224342857Y-130003571D02*
X224342857Y-130367857D01*
X224321428Y-130410714D01*
X224300000Y-130432142D01*
X224257142Y-130453571D01*
X224171428Y-130453571D01*
X224128571Y-130432142D01*
X224107142Y-130410714D01*
X224085714Y-130367857D01*
X224085714Y-130003571D01*
X223914285Y-130003571D02*
X223635714Y-130003571D01*
X223785714Y-130175000D01*
X223721428Y-130175000D01*
X223678571Y-130196428D01*
X223657142Y-130217857D01*
X223635714Y-130260714D01*
X223635714Y-130367857D01*
X223657142Y-130410714D01*
X223678571Y-130432142D01*
X223721428Y-130453571D01*
X223850000Y-130453571D01*
X223892857Y-130432142D01*
X223914285Y-130410714D01*
X214392857Y-116753571D02*
X214392857Y-117117857D01*
X214371428Y-117160714D01*
X214350000Y-117182142D01*
X214307142Y-117203571D01*
X214221428Y-117203571D01*
X214178571Y-117182142D01*
X214157142Y-117160714D01*
X214135714Y-117117857D01*
X214135714Y-116753571D01*
X213942857Y-116796428D02*
X213921428Y-116775000D01*
X213878571Y-116753571D01*
X213771428Y-116753571D01*
X213728571Y-116775000D01*
X213707142Y-116796428D01*
X213685714Y-116839285D01*
X213685714Y-116882142D01*
X213707142Y-116946428D01*
X213964285Y-117203571D01*
X213685714Y-117203571D01*
X208792857Y-115246428D02*
X208835714Y-115225000D01*
X208878571Y-115182142D01*
X208942857Y-115117857D01*
X208985714Y-115096428D01*
X209028571Y-115096428D01*
X209007142Y-115203571D02*
X209050000Y-115182142D01*
X209092857Y-115139285D01*
X209114285Y-115053571D01*
X209114285Y-114903571D01*
X209092857Y-114817857D01*
X209050000Y-114775000D01*
X209007142Y-114753571D01*
X208921428Y-114753571D01*
X208878571Y-114775000D01*
X208835714Y-114817857D01*
X208814285Y-114903571D01*
X208814285Y-115053571D01*
X208835714Y-115139285D01*
X208878571Y-115182142D01*
X208921428Y-115203571D01*
X209007142Y-115203571D01*
X208642857Y-114796428D02*
X208621428Y-114775000D01*
X208578571Y-114753571D01*
X208471428Y-114753571D01*
X208428571Y-114775000D01*
X208407142Y-114796428D01*
X208385714Y-114839285D01*
X208385714Y-114882142D01*
X208407142Y-114946428D01*
X208664285Y-115203571D01*
X208385714Y-115203571D01*
X215082141Y-138703571D02*
X215082141Y-138253571D01*
X214974999Y-138253571D01*
X214910713Y-138275000D01*
X214867856Y-138317857D01*
X214846427Y-138360714D01*
X214824999Y-138446428D01*
X214824999Y-138510714D01*
X214846427Y-138596428D01*
X214867856Y-138639285D01*
X214910713Y-138682142D01*
X214974999Y-138703571D01*
X215082141Y-138703571D01*
X214674999Y-138253571D02*
X214396427Y-138253571D01*
X214546427Y-138425000D01*
X214482141Y-138425000D01*
X214439284Y-138446428D01*
X214417856Y-138467857D01*
X214396427Y-138510714D01*
X214396427Y-138617857D01*
X214417856Y-138660714D01*
X214439284Y-138682142D01*
X214482141Y-138703571D01*
X214610713Y-138703571D01*
X214653570Y-138682142D01*
X214674999Y-138660714D01*
M02*
