G04 #@! TF.GenerationSoftware,KiCad,Pcbnew,5.1.5-52549c5~84~ubuntu19.10.1*
G04 #@! TF.CreationDate,2020-03-02T22:50:26+01:00*
G04 #@! TF.ProjectId,scale,7363616c-652e-46b6-9963-61645f706362,rev?*
G04 #@! TF.SameCoordinates,Original*
G04 #@! TF.FileFunction,Copper,L1,Top*
G04 #@! TF.FilePolarity,Positive*
%FSLAX46Y46*%
G04 Gerber Fmt 4.6, Leading zero omitted, Abs format (unit mm)*
G04 Created by KiCad (PCBNEW 5.1.5-52549c5~84~ubuntu19.10.1) date 2020-03-02 22:50:26*
%MOMM*%
%LPD*%
G04 APERTURE LIST*
%ADD10O,2.100000X1.000000*%
%ADD11O,1.600000X1.000000*%
%ADD12C,0.784860*%
%ADD13C,0.600000*%
%ADD14C,0.500000*%
%ADD15C,0.127000*%
%ADD16C,0.300000*%
%ADD17C,0.200000*%
%ADD18C,0.254000*%
%ADD19C,0.100000*%
G04 APERTURE END LIST*
D10*
X221465000Y-112630000D03*
X221465000Y-121270000D03*
D11*
X225645000Y-112630000D03*
X225645000Y-121270000D03*
D12*
X188280000Y-106585000D03*
X188280000Y-105315000D03*
X189550000Y-106585000D03*
X189550000Y-105315000D03*
X190820000Y-106585000D03*
X190820000Y-105315000D03*
D13*
X218300000Y-129300000D03*
X218300000Y-130025000D03*
X216000000Y-127000000D03*
X214800000Y-127000000D03*
X210116474Y-130737080D03*
X210823580Y-131444187D03*
X195444008Y-137136396D03*
X213600000Y-114800000D03*
X211600000Y-116799996D03*
X214800000Y-130800000D03*
X216000000Y-130800000D03*
X207500000Y-110000000D03*
X212500000Y-112500000D03*
X194500000Y-115000000D03*
X194500000Y-120000000D03*
X194500000Y-125000000D03*
X194500000Y-130000000D03*
X194500000Y-135000000D03*
X197000000Y-130000000D03*
X197000000Y-125000000D03*
X197000000Y-120000000D03*
X197000000Y-115000000D03*
X211000000Y-110500000D03*
X198000000Y-112500000D03*
X193000000Y-111000000D03*
X191500000Y-115000000D03*
X191500000Y-120000000D03*
X191500000Y-125000000D03*
X191500000Y-130000000D03*
X191500000Y-135000000D03*
X191500000Y-140000000D03*
X196500000Y-140000000D03*
X194000000Y-139000000D03*
X200500000Y-140000000D03*
X199500000Y-141000000D03*
X198500000Y-136000000D03*
X200000000Y-125000000D03*
X204000000Y-129500000D03*
X206000000Y-129500000D03*
X211000000Y-128500000D03*
X206500000Y-135500000D03*
X204000000Y-135500000D03*
X202500000Y-138000000D03*
X201500000Y-137000000D03*
X201000000Y-135500000D03*
X202000000Y-134500000D03*
X204500000Y-141500000D03*
X199000000Y-118000000D03*
X199000000Y-115500000D03*
X206000000Y-116500000D03*
X211500000Y-120000000D03*
X213000000Y-118500000D03*
X208500000Y-117000000D03*
X217500000Y-123000000D03*
X215500000Y-123000000D03*
X213500000Y-123000000D03*
X213500000Y-125000000D03*
X195500000Y-110000000D03*
X208000000Y-107000000D03*
X207000000Y-106000000D03*
X213500000Y-106000000D03*
X212500000Y-104500000D03*
X215000000Y-104500000D03*
X217500000Y-105000000D03*
X214500000Y-110000000D03*
X217000000Y-109000000D03*
X203000000Y-143000000D03*
X200000000Y-144000000D03*
X197000000Y-144000000D03*
X194000000Y-144000000D03*
X191000000Y-146000000D03*
X189000000Y-148000000D03*
X187000000Y-150000000D03*
X185000000Y-147000000D03*
X183000000Y-147000000D03*
X178000000Y-147000000D03*
X178000000Y-150000000D03*
X179000000Y-152000000D03*
X182000000Y-152000000D03*
X185000000Y-152000000D03*
X193000000Y-148000000D03*
X196000000Y-148000000D03*
X199000000Y-148000000D03*
X202000000Y-148000000D03*
X205000000Y-148000000D03*
X180000000Y-142000000D03*
X184000000Y-135000000D03*
X183000000Y-132000000D03*
X183000000Y-127000000D03*
X186000000Y-127000000D03*
X180000000Y-127000000D03*
X177000000Y-127000000D03*
X177000000Y-131000000D03*
X177000000Y-135000000D03*
X177000000Y-139000000D03*
X177000000Y-143000000D03*
X201250000Y-129250000D03*
X203250000Y-127250000D03*
X205000000Y-127000000D03*
X208000000Y-127000000D03*
X211000000Y-127000000D03*
X208000000Y-120000000D03*
X208000000Y-123000000D03*
X203000000Y-124000000D03*
X211500000Y-122500000D03*
X211500000Y-125000000D03*
X208750000Y-140950000D03*
X210850000Y-144300000D03*
X213450000Y-145150000D03*
X214200000Y-143550000D03*
X207400000Y-142550000D03*
X204945639Y-139595614D03*
X202833274Y-128898602D03*
X203328249Y-128403627D03*
X197600000Y-137100000D03*
X213400000Y-109400000D03*
X199400000Y-114400000D03*
X210950000Y-114000000D03*
X185300000Y-149400000D03*
X209950000Y-142200000D03*
X208994670Y-144955330D03*
X218975000Y-119400000D03*
X219125000Y-114575000D03*
X195500000Y-112250000D03*
X195750000Y-113250000D03*
X203840900Y-133264987D03*
X204883897Y-132363427D03*
X213000000Y-132000000D03*
X219042841Y-116050010D03*
X219025310Y-117275310D03*
X205550000Y-112800000D03*
X206900000Y-116400000D03*
X208000000Y-141800006D03*
X208000000Y-140718987D03*
X184050000Y-142700000D03*
X187537324Y-142409490D03*
X188100000Y-142900000D03*
X185250000Y-142950000D03*
X204800000Y-143000000D03*
X195800000Y-153200000D03*
X209250000Y-138599998D03*
X218800000Y-143400000D03*
X222000000Y-111400000D03*
X221200000Y-111400000D03*
X206600000Y-109600000D03*
X207200000Y-109000000D03*
X219725000Y-142200000D03*
X217925000Y-142125000D03*
X181550000Y-142950000D03*
X188050000Y-141800000D03*
D14*
X211600006Y-116799996D02*
X211600000Y-116799996D01*
X202833274Y-128898602D02*
X202903984Y-128827891D01*
X197600000Y-134131876D02*
X197600000Y-137100000D01*
X203328249Y-128403627D02*
X197600000Y-134131876D01*
D15*
X199400000Y-111900000D02*
X192422571Y-104922571D01*
X199400000Y-114400000D02*
X199400000Y-111900000D01*
X192422571Y-104922571D02*
X191212429Y-104922571D01*
X191212429Y-104922571D02*
X190820000Y-105315000D01*
X211025000Y-113925000D02*
X210950000Y-114000000D01*
X211025000Y-111775000D02*
X211025000Y-113925000D01*
X211025000Y-111775000D02*
X213400000Y-109400000D01*
D14*
X197600000Y-137100000D02*
X185300000Y-149400000D01*
D16*
X209950000Y-142200000D02*
X208994670Y-143155330D01*
X208994670Y-143155330D02*
X208994670Y-144955330D01*
D14*
X219399264Y-119400000D02*
X219925000Y-118874264D01*
X218975000Y-119400000D02*
X219399264Y-119400000D01*
X219925000Y-118874264D02*
X219925000Y-115375000D01*
X219925000Y-115375000D02*
X219125000Y-114575000D01*
D15*
X189835000Y-106585000D02*
X189550000Y-106585000D01*
X195500000Y-112250000D02*
X189835000Y-106585000D01*
X190820000Y-106820000D02*
X190820000Y-106585000D01*
X196000000Y-112000000D02*
X190820000Y-106820000D01*
X196000000Y-112575736D02*
X196000000Y-112000000D01*
X195750000Y-113250000D02*
X195750000Y-112825736D01*
X195750000Y-112825736D02*
X196000000Y-112575736D01*
X203840900Y-133264987D02*
X204742461Y-132363427D01*
X204742461Y-132363427D02*
X204883897Y-132363427D01*
X205247324Y-132000000D02*
X204883897Y-132363427D01*
X213000000Y-132000000D02*
X205247324Y-132000000D01*
D17*
X219042841Y-117257779D02*
X219025310Y-117275310D01*
X219042841Y-116050010D02*
X219042841Y-117257779D01*
D15*
X205550000Y-112800000D02*
X206900000Y-114150000D01*
X206900000Y-114150000D02*
X206900000Y-116400000D01*
X208000000Y-140718987D02*
X208000000Y-141800006D01*
X187527835Y-142400001D02*
X187537324Y-142409490D01*
X184050000Y-142700000D02*
X184349999Y-142400001D01*
X184349999Y-142400001D02*
X187527835Y-142400001D01*
X188100000Y-142900000D02*
X185300000Y-142900000D01*
X185300000Y-142900000D02*
X185250000Y-142950000D01*
X209200002Y-138599998D02*
X209250000Y-138599998D01*
X204800000Y-143000000D02*
X209200002Y-138599998D01*
D14*
X222000000Y-111400000D02*
X221200000Y-111400000D01*
X221200000Y-111400000D02*
X220600000Y-111400000D01*
X220600000Y-111400000D02*
X216200000Y-107000000D01*
X216200000Y-107000000D02*
X209200000Y-107000000D01*
X209200000Y-107000000D02*
X206600000Y-109600000D01*
D17*
X219725000Y-142200000D02*
X218000000Y-142200000D01*
X218000000Y-142200000D02*
X217925000Y-142125000D01*
D15*
X181550000Y-142950000D02*
X182500000Y-142000000D01*
X182500000Y-142000000D02*
X187100000Y-142000000D01*
X187100000Y-142000000D02*
X187300000Y-141800000D01*
X187300000Y-141800000D02*
X188050000Y-141800000D01*
D18*
G36*
X218873000Y-126652606D02*
G01*
X218873000Y-130747394D01*
X218547394Y-131073000D01*
X214252606Y-131073000D01*
X213927000Y-130747394D01*
X213927000Y-126652606D01*
X214252606Y-126327000D01*
X218547394Y-126327000D01*
X218873000Y-126652606D01*
G37*
X218873000Y-126652606D02*
X218873000Y-130747394D01*
X218547394Y-131073000D01*
X214252606Y-131073000D01*
X213927000Y-130747394D01*
X213927000Y-126652606D01*
X214252606Y-126327000D01*
X218547394Y-126327000D01*
X218873000Y-126652606D01*
D19*
G36*
X214925001Y-98080333D02*
G01*
X214925000Y-100003674D01*
X214925026Y-100003937D01*
X214925051Y-100007507D01*
X214925407Y-100010894D01*
X214925407Y-100014300D01*
X214925516Y-100015341D01*
X214936393Y-100112316D01*
X214937813Y-100118997D01*
X214939127Y-100125634D01*
X214939434Y-100126624D01*
X214939436Y-100126634D01*
X214939440Y-100126643D01*
X214968943Y-100219649D01*
X214971614Y-100225882D01*
X214974211Y-100232182D01*
X214974707Y-100233098D01*
X214974709Y-100233103D01*
X214974712Y-100233107D01*
X215021720Y-100318615D01*
X215025545Y-100324203D01*
X215029322Y-100329887D01*
X215029984Y-100330686D01*
X215029989Y-100330693D01*
X215029995Y-100330698D01*
X215092715Y-100405445D01*
X215097557Y-100410187D01*
X215102361Y-100415025D01*
X215103167Y-100415681D01*
X215103173Y-100415687D01*
X215103180Y-100415691D01*
X215179223Y-100476832D01*
X215184898Y-100480546D01*
X215190546Y-100484356D01*
X215191463Y-100484843D01*
X215191471Y-100484848D01*
X215191479Y-100484851D01*
X215277950Y-100530057D01*
X215284232Y-100532595D01*
X215290519Y-100535238D01*
X215291515Y-100535538D01*
X215291522Y-100535541D01*
X215291529Y-100535542D01*
X215385133Y-100563092D01*
X215391825Y-100564369D01*
X215398470Y-100565733D01*
X215399499Y-100565834D01*
X215399511Y-100565836D01*
X215399522Y-100565836D01*
X215496694Y-100574679D01*
X215503487Y-100574632D01*
X215510289Y-100574680D01*
X215511320Y-100574578D01*
X215511332Y-100574578D01*
X215511343Y-100574576D01*
X215608379Y-100564377D01*
X215615032Y-100563011D01*
X215621715Y-100561737D01*
X215622715Y-100561435D01*
X215622721Y-100561433D01*
X215715936Y-100532578D01*
X215722227Y-100529934D01*
X215728506Y-100527397D01*
X215729421Y-100526910D01*
X215729430Y-100526906D01*
X215729437Y-100526901D01*
X215815268Y-100480493D01*
X215820922Y-100476679D01*
X215826592Y-100472969D01*
X215827396Y-100472313D01*
X215827403Y-100472308D01*
X215827409Y-100472302D01*
X215902592Y-100410106D01*
X215907394Y-100405270D01*
X215912238Y-100400527D01*
X215912905Y-100399720D01*
X215974581Y-100324099D01*
X215978333Y-100318452D01*
X215982185Y-100312827D01*
X215982679Y-100311911D01*
X215982682Y-100311907D01*
X215982684Y-100311903D01*
X216028494Y-100225745D01*
X216031084Y-100219463D01*
X216033763Y-100213213D01*
X216034070Y-100212219D01*
X216034073Y-100212212D01*
X216034074Y-100212205D01*
X216062277Y-100118795D01*
X216063599Y-100112119D01*
X216065011Y-100105477D01*
X216065120Y-100104435D01*
X216068006Y-100075000D01*
X227802876Y-100075000D01*
X227876084Y-100123916D01*
X227925001Y-100197125D01*
X227925000Y-142802876D01*
X227876084Y-142876084D01*
X227795296Y-142930065D01*
X227695077Y-142950000D01*
X219717525Y-142950000D01*
X218993857Y-142510630D01*
X218950348Y-142491659D01*
X218898725Y-142477000D01*
X219336402Y-142477000D01*
X219354490Y-142504070D01*
X219420930Y-142570510D01*
X219499056Y-142622712D01*
X219585864Y-142658669D01*
X219678020Y-142677000D01*
X219771980Y-142677000D01*
X219864136Y-142658669D01*
X219950944Y-142622712D01*
X220029070Y-142570510D01*
X220095510Y-142504070D01*
X220147712Y-142425944D01*
X220183669Y-142339136D01*
X220202000Y-142246980D01*
X220202000Y-142153020D01*
X220183669Y-142060864D01*
X220147712Y-141974056D01*
X220095510Y-141895930D01*
X220029070Y-141829490D01*
X219950944Y-141777288D01*
X219864136Y-141741331D01*
X219771980Y-141723000D01*
X219678020Y-141723000D01*
X219585864Y-141741331D01*
X219499056Y-141777288D01*
X219420930Y-141829490D01*
X219354490Y-141895930D01*
X219336402Y-141923000D01*
X218357630Y-141923000D01*
X218347712Y-141899056D01*
X218295510Y-141820930D01*
X218229070Y-141754490D01*
X218150944Y-141702288D01*
X218064136Y-141666331D01*
X217971980Y-141648000D01*
X217878020Y-141648000D01*
X217785864Y-141666331D01*
X217699056Y-141702288D01*
X217620930Y-141754490D01*
X217554490Y-141820930D01*
X217502288Y-141899056D01*
X217466331Y-141985864D01*
X217448000Y-142078020D01*
X217448000Y-142171980D01*
X217466331Y-142264136D01*
X217502288Y-142350944D01*
X217554490Y-142429070D01*
X217620930Y-142495510D01*
X217699056Y-142547712D01*
X217785864Y-142583669D01*
X217878020Y-142602000D01*
X217971980Y-142602000D01*
X218064136Y-142583669D01*
X218150944Y-142547712D01*
X218229070Y-142495510D01*
X218247580Y-142477000D01*
X218697539Y-142477000D01*
X218651342Y-142489351D01*
X218607546Y-142507647D01*
X213009344Y-145789352D01*
X212973079Y-145817515D01*
X212900688Y-145890628D01*
X212885863Y-145907645D01*
X212867589Y-145937140D01*
X212855421Y-145969635D01*
X212828956Y-146069061D01*
X212823000Y-146114589D01*
X212823000Y-148106290D01*
X212055996Y-148873294D01*
X211971032Y-148930065D01*
X211870813Y-148950000D01*
X192224264Y-148950000D01*
X192214510Y-148950961D01*
X192099705Y-148973797D01*
X192090325Y-148976642D01*
X192081680Y-148981263D01*
X191984353Y-149046295D01*
X191976777Y-149052513D01*
X187855996Y-153173294D01*
X187771032Y-153230065D01*
X187670813Y-153250000D01*
X176304923Y-153250000D01*
X176204704Y-153230065D01*
X176123916Y-153176084D01*
X176075000Y-153102876D01*
X176075000Y-142903020D01*
X181073000Y-142903020D01*
X181073000Y-142996980D01*
X181091331Y-143089136D01*
X181127288Y-143175944D01*
X181179490Y-143254070D01*
X181245930Y-143320510D01*
X181324056Y-143372712D01*
X181410864Y-143408669D01*
X181503020Y-143427000D01*
X181596980Y-143427000D01*
X181689136Y-143408669D01*
X181775944Y-143372712D01*
X181854070Y-143320510D01*
X181920510Y-143254070D01*
X181972712Y-143175944D01*
X182008669Y-143089136D01*
X182027000Y-142996980D01*
X182027000Y-142903020D01*
X182012084Y-142828033D01*
X182599618Y-142240500D01*
X183915042Y-142240500D01*
X183910864Y-142241331D01*
X183824056Y-142277288D01*
X183745930Y-142329490D01*
X183679490Y-142395930D01*
X183627288Y-142474056D01*
X183591331Y-142560864D01*
X183573000Y-142653020D01*
X183573000Y-142746980D01*
X183591331Y-142839136D01*
X183627288Y-142925944D01*
X183679490Y-143004070D01*
X183745930Y-143070510D01*
X183824056Y-143122712D01*
X183910864Y-143158669D01*
X184003020Y-143177000D01*
X184096980Y-143177000D01*
X184189136Y-143158669D01*
X184275944Y-143122712D01*
X184354070Y-143070510D01*
X184420510Y-143004070D01*
X184472712Y-142925944D01*
X184508669Y-142839136D01*
X184527000Y-142746980D01*
X184527000Y-142653020D01*
X184524510Y-142640501D01*
X184884919Y-142640501D01*
X184879490Y-142645930D01*
X184827288Y-142724056D01*
X184791331Y-142810864D01*
X184773000Y-142903020D01*
X184773000Y-142996980D01*
X184791331Y-143089136D01*
X184827288Y-143175944D01*
X184879490Y-143254070D01*
X184945930Y-143320510D01*
X185024056Y-143372712D01*
X185110864Y-143408669D01*
X185203020Y-143427000D01*
X185296980Y-143427000D01*
X185389136Y-143408669D01*
X185475944Y-143372712D01*
X185554070Y-143320510D01*
X185620510Y-143254070D01*
X185672712Y-143175944D01*
X185687393Y-143140500D01*
X187687014Y-143140500D01*
X187729490Y-143204070D01*
X187795930Y-143270510D01*
X187874056Y-143322712D01*
X187960864Y-143358669D01*
X188053020Y-143377000D01*
X188146980Y-143377000D01*
X188239136Y-143358669D01*
X188325944Y-143322712D01*
X188404070Y-143270510D01*
X188470510Y-143204070D01*
X188522712Y-143125944D01*
X188558669Y-143039136D01*
X188577000Y-142946980D01*
X188577000Y-142853020D01*
X188558669Y-142760864D01*
X188522712Y-142674056D01*
X188470510Y-142595930D01*
X188404070Y-142529490D01*
X188325944Y-142477288D01*
X188239136Y-142441331D01*
X188146980Y-142423000D01*
X188053020Y-142423000D01*
X188014324Y-142430697D01*
X188014324Y-142362510D01*
X187997080Y-142275818D01*
X188003020Y-142277000D01*
X188096980Y-142277000D01*
X188189136Y-142258669D01*
X188275944Y-142222712D01*
X188354070Y-142170510D01*
X188420510Y-142104070D01*
X188472712Y-142025944D01*
X188508669Y-141939136D01*
X188527000Y-141846980D01*
X188527000Y-141753020D01*
X188508669Y-141660864D01*
X188472712Y-141574056D01*
X188420510Y-141495930D01*
X188354070Y-141429490D01*
X188275944Y-141377288D01*
X188189136Y-141341331D01*
X188096980Y-141323000D01*
X188003020Y-141323000D01*
X187910864Y-141341331D01*
X187824056Y-141377288D01*
X187745930Y-141429490D01*
X187679490Y-141495930D01*
X187637014Y-141559500D01*
X187311807Y-141559500D01*
X187300000Y-141558337D01*
X187288193Y-141559500D01*
X187288191Y-141559500D01*
X187252854Y-141562980D01*
X187218071Y-141573532D01*
X187207519Y-141576733D01*
X187165739Y-141599065D01*
X187129118Y-141629118D01*
X187121586Y-141638296D01*
X187000383Y-141759500D01*
X182511807Y-141759500D01*
X182500000Y-141758337D01*
X182488193Y-141759500D01*
X182488191Y-141759500D01*
X182452854Y-141762980D01*
X182407520Y-141776733D01*
X182406482Y-141777288D01*
X182365738Y-141799065D01*
X182351980Y-141810356D01*
X182329118Y-141829118D01*
X182321586Y-141838296D01*
X181671967Y-142487916D01*
X181596980Y-142473000D01*
X181503020Y-142473000D01*
X181410864Y-142491331D01*
X181324056Y-142527288D01*
X181245930Y-142579490D01*
X181179490Y-142645930D01*
X181127288Y-142724056D01*
X181091331Y-142810864D01*
X181073000Y-142903020D01*
X176075000Y-142903020D01*
X176075000Y-126250000D01*
X187779290Y-126250000D01*
X188750000Y-127220710D01*
X188750000Y-145346132D01*
X185150514Y-148945618D01*
X185074056Y-148977288D01*
X184995930Y-149029490D01*
X184929490Y-149095930D01*
X184877288Y-149174056D01*
X184841331Y-149260864D01*
X184823000Y-149353020D01*
X184823000Y-149446980D01*
X184841331Y-149539136D01*
X184877288Y-149625944D01*
X184929490Y-149704070D01*
X184995930Y-149770510D01*
X185074056Y-149822712D01*
X185160864Y-149858669D01*
X185253020Y-149877000D01*
X185346980Y-149877000D01*
X185439136Y-149858669D01*
X185525944Y-149822712D01*
X185604070Y-149770510D01*
X185670510Y-149704070D01*
X185722712Y-149625944D01*
X185754382Y-149549486D01*
X190395518Y-144908350D01*
X208517670Y-144908350D01*
X208517670Y-145002310D01*
X208536001Y-145094466D01*
X208571958Y-145181274D01*
X208624160Y-145259400D01*
X208690600Y-145325840D01*
X208768726Y-145378042D01*
X208855534Y-145413999D01*
X208947690Y-145432330D01*
X209041650Y-145432330D01*
X209133806Y-145413999D01*
X209220614Y-145378042D01*
X209298740Y-145325840D01*
X209365180Y-145259400D01*
X209417382Y-145181274D01*
X209453339Y-145094466D01*
X209471670Y-145002310D01*
X209471670Y-144908350D01*
X209453339Y-144816194D01*
X209417382Y-144729386D01*
X209365180Y-144651260D01*
X209321670Y-144607750D01*
X209321670Y-143290777D01*
X209935448Y-142677000D01*
X209996980Y-142677000D01*
X210089136Y-142658669D01*
X210175944Y-142622712D01*
X210254070Y-142570510D01*
X210320510Y-142504070D01*
X210372712Y-142425944D01*
X210408669Y-142339136D01*
X210427000Y-142246980D01*
X210427000Y-142153020D01*
X210408669Y-142060864D01*
X210372712Y-141974056D01*
X210320510Y-141895930D01*
X210254070Y-141829490D01*
X210175944Y-141777288D01*
X210089136Y-141741331D01*
X209996980Y-141723000D01*
X209903020Y-141723000D01*
X209810864Y-141741331D01*
X209724056Y-141777288D01*
X209645930Y-141829490D01*
X209579490Y-141895930D01*
X209527288Y-141974056D01*
X209491331Y-142060864D01*
X209473000Y-142153020D01*
X209473000Y-142214552D01*
X208774811Y-142912742D01*
X208762327Y-142922987D01*
X208721464Y-142972781D01*
X208708441Y-142997145D01*
X208691100Y-143029588D01*
X208672402Y-143091227D01*
X208666088Y-143155330D01*
X208667670Y-143171391D01*
X208667671Y-144607749D01*
X208624160Y-144651260D01*
X208571958Y-144729386D01*
X208536001Y-144816194D01*
X208517670Y-144908350D01*
X190395518Y-144908350D01*
X192350848Y-142953020D01*
X204323000Y-142953020D01*
X204323000Y-143046980D01*
X204341331Y-143139136D01*
X204377288Y-143225944D01*
X204429490Y-143304070D01*
X204495930Y-143370510D01*
X204574056Y-143422712D01*
X204660864Y-143458669D01*
X204753020Y-143477000D01*
X204846980Y-143477000D01*
X204939136Y-143458669D01*
X205025944Y-143422712D01*
X205104070Y-143370510D01*
X205170510Y-143304070D01*
X205222712Y-143225944D01*
X205258669Y-143139136D01*
X205277000Y-143046980D01*
X205277000Y-142953020D01*
X205262084Y-142878033D01*
X207536629Y-140603488D01*
X207523000Y-140672007D01*
X207523000Y-140765967D01*
X207541331Y-140858123D01*
X207577288Y-140944931D01*
X207629490Y-141023057D01*
X207695930Y-141089497D01*
X207759500Y-141131973D01*
X207759501Y-141387020D01*
X207695930Y-141429496D01*
X207629490Y-141495936D01*
X207577288Y-141574062D01*
X207541331Y-141660870D01*
X207523000Y-141753026D01*
X207523000Y-141846986D01*
X207541331Y-141939142D01*
X207577288Y-142025950D01*
X207629490Y-142104076D01*
X207695930Y-142170516D01*
X207774056Y-142222718D01*
X207860864Y-142258675D01*
X207953020Y-142277006D01*
X208046980Y-142277006D01*
X208139136Y-142258675D01*
X208225944Y-142222718D01*
X208304070Y-142170516D01*
X208370510Y-142104076D01*
X208422712Y-142025950D01*
X208458669Y-141939142D01*
X208477000Y-141846986D01*
X208477000Y-141753026D01*
X208458669Y-141660870D01*
X208422712Y-141574062D01*
X208370510Y-141495936D01*
X208304070Y-141429496D01*
X208240500Y-141387020D01*
X208240500Y-141131973D01*
X208304070Y-141089497D01*
X208370510Y-141023057D01*
X208422712Y-140944931D01*
X208458669Y-140858123D01*
X208477000Y-140765967D01*
X208477000Y-140672007D01*
X208458669Y-140579851D01*
X208422712Y-140493043D01*
X208377248Y-140425000D01*
X222825000Y-140425000D01*
X222825000Y-141625000D01*
X222826762Y-141638156D01*
X222830255Y-141647314D01*
X222835468Y-141655614D01*
X222842200Y-141662738D01*
X222850193Y-141668412D01*
X223900193Y-142268412D01*
X223912349Y-142273373D01*
X223922029Y-142274912D01*
X223931823Y-142274532D01*
X223941355Y-142272249D01*
X223950259Y-142268151D01*
X224975259Y-141668151D01*
X224985355Y-141660355D01*
X224991573Y-141652779D01*
X224996194Y-141644134D01*
X224999039Y-141634755D01*
X225000000Y-141625000D01*
X225000000Y-140425000D01*
X224998373Y-140412349D01*
X224994975Y-140403155D01*
X224989849Y-140394800D01*
X224983192Y-140387606D01*
X224975259Y-140381849D01*
X223950259Y-139781849D01*
X223938156Y-139776762D01*
X223928492Y-139775122D01*
X223918694Y-139775399D01*
X223909139Y-139777582D01*
X223900193Y-139781588D01*
X222850193Y-140381588D01*
X222839645Y-140389645D01*
X222833427Y-140397221D01*
X222828806Y-140405866D01*
X222825961Y-140415245D01*
X222825000Y-140425000D01*
X208377248Y-140425000D01*
X208370510Y-140414917D01*
X208304070Y-140348477D01*
X208225944Y-140296275D01*
X208139136Y-140260318D01*
X208046980Y-140241987D01*
X207953020Y-140241987D01*
X207884501Y-140255616D01*
X209090066Y-139050052D01*
X209110864Y-139058667D01*
X209203020Y-139076998D01*
X209296980Y-139076998D01*
X209389136Y-139058667D01*
X209475944Y-139022710D01*
X209554070Y-138970508D01*
X209620510Y-138904068D01*
X209672712Y-138825942D01*
X209708669Y-138739134D01*
X209727000Y-138646978D01*
X209727000Y-138553018D01*
X209708669Y-138460862D01*
X209672712Y-138374054D01*
X209620510Y-138295928D01*
X209554070Y-138229488D01*
X209475944Y-138177286D01*
X209389136Y-138141329D01*
X209296980Y-138122998D01*
X209203020Y-138122998D01*
X209110864Y-138141329D01*
X209024056Y-138177286D01*
X208945930Y-138229488D01*
X208879490Y-138295928D01*
X208827288Y-138374054D01*
X208791331Y-138460862D01*
X208773000Y-138553018D01*
X208773000Y-138646978D01*
X208779621Y-138680262D01*
X204921967Y-142537916D01*
X204846980Y-142523000D01*
X204753020Y-142523000D01*
X204660864Y-142541331D01*
X204574056Y-142577288D01*
X204495930Y-142629490D01*
X204429490Y-142695930D01*
X204377288Y-142774056D01*
X204341331Y-142860864D01*
X204323000Y-142953020D01*
X192350848Y-142953020D01*
X197749488Y-137554381D01*
X197825944Y-137522712D01*
X197904070Y-137470510D01*
X197970510Y-137404070D01*
X198022712Y-137325944D01*
X198058669Y-137239136D01*
X198077000Y-137146980D01*
X198077000Y-137053020D01*
X198058669Y-136960864D01*
X198027000Y-136884408D01*
X198027000Y-134308744D01*
X199117737Y-133218007D01*
X203363900Y-133218007D01*
X203363900Y-133311967D01*
X203382231Y-133404123D01*
X203418188Y-133490931D01*
X203470390Y-133569057D01*
X203536830Y-133635497D01*
X203614956Y-133687699D01*
X203701764Y-133723656D01*
X203793920Y-133741987D01*
X203887880Y-133741987D01*
X203980036Y-133723656D01*
X204066844Y-133687699D01*
X204144970Y-133635497D01*
X204211410Y-133569057D01*
X204263612Y-133490931D01*
X204299569Y-133404123D01*
X204317900Y-133311967D01*
X204317900Y-133218007D01*
X204302984Y-133143021D01*
X204659307Y-132786700D01*
X204744761Y-132822096D01*
X204836917Y-132840427D01*
X204930877Y-132840427D01*
X205023033Y-132822096D01*
X205109841Y-132786139D01*
X205187967Y-132733937D01*
X205254407Y-132667497D01*
X205306609Y-132589371D01*
X205342566Y-132502563D01*
X205360897Y-132410407D01*
X205360897Y-132316447D01*
X205345981Y-132241461D01*
X205346943Y-132240500D01*
X212587014Y-132240500D01*
X212629490Y-132304070D01*
X212695930Y-132370510D01*
X212774056Y-132422712D01*
X212860864Y-132458669D01*
X212953020Y-132477000D01*
X213046980Y-132477000D01*
X213139136Y-132458669D01*
X213225944Y-132422712D01*
X213304070Y-132370510D01*
X213370510Y-132304070D01*
X213422712Y-132225944D01*
X213458669Y-132139136D01*
X213477000Y-132046980D01*
X213477000Y-131953020D01*
X213458669Y-131860864D01*
X213422712Y-131774056D01*
X213370510Y-131695930D01*
X213304070Y-131629490D01*
X213225944Y-131577288D01*
X213139136Y-131541331D01*
X213046980Y-131523000D01*
X212953020Y-131523000D01*
X212860864Y-131541331D01*
X212774056Y-131577288D01*
X212695930Y-131629490D01*
X212629490Y-131695930D01*
X212587014Y-131759500D01*
X205259130Y-131759500D01*
X205247323Y-131758337D01*
X205235516Y-131759500D01*
X205235515Y-131759500D01*
X205200178Y-131762980D01*
X205154844Y-131776733D01*
X205135394Y-131787129D01*
X205113062Y-131799065D01*
X205085614Y-131821591D01*
X205076442Y-131829118D01*
X205068915Y-131838290D01*
X205005863Y-131901343D01*
X204930877Y-131886427D01*
X204836917Y-131886427D01*
X204744761Y-131904758D01*
X204657953Y-131940715D01*
X204579827Y-131992917D01*
X204513387Y-132059357D01*
X204461185Y-132137483D01*
X204425228Y-132224291D01*
X204406897Y-132316447D01*
X204406897Y-132358873D01*
X203962867Y-132802903D01*
X203887880Y-132787987D01*
X203793920Y-132787987D01*
X203701764Y-132806318D01*
X203614956Y-132842275D01*
X203536830Y-132894477D01*
X203470390Y-132960917D01*
X203418188Y-133039043D01*
X203382231Y-133125851D01*
X203363900Y-133218007D01*
X199117737Y-133218007D01*
X202982762Y-129352983D01*
X203059218Y-129321314D01*
X203137344Y-129269112D01*
X203203784Y-129202672D01*
X203255986Y-129124546D01*
X203287655Y-129048090D01*
X203477737Y-128858008D01*
X203554193Y-128826339D01*
X203632319Y-128774137D01*
X203698759Y-128707697D01*
X203750961Y-128629571D01*
X203786918Y-128542763D01*
X203805249Y-128450607D01*
X203805249Y-128356647D01*
X203786918Y-128264491D01*
X203750961Y-128177683D01*
X203698759Y-128099557D01*
X203632319Y-128033117D01*
X203554193Y-127980915D01*
X203467385Y-127944958D01*
X203375229Y-127926627D01*
X203281269Y-127926627D01*
X203189113Y-127944958D01*
X203102305Y-127980915D01*
X203024179Y-128033117D01*
X202957739Y-128099557D01*
X202905537Y-128177683D01*
X202873868Y-128254139D01*
X202683786Y-128444221D01*
X202607330Y-128475890D01*
X202529204Y-128528092D01*
X202462764Y-128594532D01*
X202410562Y-128672658D01*
X202378893Y-128749114D01*
X197312900Y-133815108D01*
X197296605Y-133828481D01*
X197283233Y-133844775D01*
X197283232Y-133844776D01*
X197243245Y-133893500D01*
X197222052Y-133933150D01*
X197203595Y-133967681D01*
X197179178Y-134048170D01*
X197173000Y-134110899D01*
X197173000Y-134110909D01*
X197170935Y-134131876D01*
X197173000Y-134152843D01*
X197173001Y-136884406D01*
X197145619Y-136950512D01*
X189250000Y-144846132D01*
X189250000Y-127000000D01*
X189249039Y-126990245D01*
X189246194Y-126980866D01*
X189241573Y-126972221D01*
X189235355Y-126964645D01*
X188035355Y-125764645D01*
X188027779Y-125758427D01*
X188019134Y-125753806D01*
X188009755Y-125750961D01*
X188000000Y-125750000D01*
X176075000Y-125750000D01*
X176075000Y-122753674D01*
X185925000Y-122753674D01*
X185925027Y-122753948D01*
X185925052Y-122757507D01*
X185925408Y-122760894D01*
X185925408Y-122764300D01*
X185925517Y-122765341D01*
X185936394Y-122862316D01*
X185937814Y-122868997D01*
X185939128Y-122875634D01*
X185939435Y-122876624D01*
X185939437Y-122876634D01*
X185939441Y-122876643D01*
X185968944Y-122969649D01*
X185971615Y-122975882D01*
X185974212Y-122982182D01*
X185974710Y-122983103D01*
X186021721Y-123068614D01*
X186025569Y-123074234D01*
X186029323Y-123079885D01*
X186029985Y-123080685D01*
X186029990Y-123080692D01*
X186029996Y-123080697D01*
X186092716Y-123155445D01*
X186097558Y-123160187D01*
X186102362Y-123165025D01*
X186103174Y-123165687D01*
X186179224Y-123226831D01*
X186184907Y-123230550D01*
X186190547Y-123234355D01*
X186191464Y-123234842D01*
X186191472Y-123234847D01*
X186191480Y-123234850D01*
X186277950Y-123280056D01*
X186284232Y-123282594D01*
X186290519Y-123285237D01*
X186291521Y-123285540D01*
X186385134Y-123313091D01*
X186391826Y-123314368D01*
X186398471Y-123315732D01*
X186399500Y-123315833D01*
X186399512Y-123315835D01*
X186399523Y-123315835D01*
X186496694Y-123324678D01*
X186503487Y-123324631D01*
X186510289Y-123324679D01*
X186511320Y-123324577D01*
X186511332Y-123324577D01*
X186511343Y-123324575D01*
X186608379Y-123314376D01*
X186615032Y-123313010D01*
X186621715Y-123311736D01*
X186622715Y-123311434D01*
X186622721Y-123311432D01*
X186715935Y-123282577D01*
X186722226Y-123279933D01*
X186728505Y-123277396D01*
X186729429Y-123276905D01*
X186815268Y-123230492D01*
X186820922Y-123226678D01*
X186826592Y-123222968D01*
X186827396Y-123222312D01*
X186827403Y-123222307D01*
X186827409Y-123222301D01*
X186902592Y-123160105D01*
X186907394Y-123155269D01*
X186912239Y-123150525D01*
X186912906Y-123149718D01*
X186974581Y-123074098D01*
X186978373Y-123068391D01*
X186982183Y-123062826D01*
X186982678Y-123061910D01*
X186982681Y-123061906D01*
X186982683Y-123061902D01*
X187028493Y-122975745D01*
X187031071Y-122969491D01*
X187033762Y-122963213D01*
X187034071Y-122962213D01*
X187062276Y-122868795D01*
X187063598Y-122862119D01*
X187065010Y-122855477D01*
X187065119Y-122854435D01*
X187074641Y-122757318D01*
X187074641Y-122757300D01*
X187074998Y-122753675D01*
X187074998Y-121584391D01*
X220234075Y-121584391D01*
X220240419Y-121656081D01*
X220328702Y-121780267D01*
X220439516Y-121884843D01*
X220568602Y-121965791D01*
X220711000Y-122020000D01*
X221261000Y-122020000D01*
X221261000Y-121474000D01*
X221669000Y-121474000D01*
X221669000Y-122020000D01*
X222219000Y-122020000D01*
X222361398Y-121965791D01*
X222490484Y-121884843D01*
X222601298Y-121780267D01*
X222689581Y-121656081D01*
X222695925Y-121584391D01*
X224664075Y-121584391D01*
X224692335Y-121676592D01*
X224784198Y-121796108D01*
X224897612Y-121895406D01*
X225028219Y-121970670D01*
X225171000Y-122019008D01*
X225320468Y-122038562D01*
X225441000Y-121970437D01*
X225441000Y-121474000D01*
X225849000Y-121474000D01*
X225849000Y-121970437D01*
X225969532Y-122038562D01*
X226119000Y-122019008D01*
X226261781Y-121970670D01*
X226392388Y-121895406D01*
X226505802Y-121796108D01*
X226597665Y-121676592D01*
X226625925Y-121584391D01*
X226601537Y-121474000D01*
X225849000Y-121474000D01*
X225441000Y-121474000D01*
X224688463Y-121474000D01*
X224664075Y-121584391D01*
X222695925Y-121584391D01*
X222671537Y-121474000D01*
X221669000Y-121474000D01*
X221261000Y-121474000D01*
X220258463Y-121474000D01*
X220234075Y-121584391D01*
X187074998Y-121584391D01*
X187074998Y-120955609D01*
X220234075Y-120955609D01*
X220258463Y-121066000D01*
X221261000Y-121066000D01*
X221261000Y-120520000D01*
X221669000Y-120520000D01*
X221669000Y-121066000D01*
X222671537Y-121066000D01*
X222695925Y-120955609D01*
X224664075Y-120955609D01*
X224688463Y-121066000D01*
X225441000Y-121066000D01*
X225441000Y-120569563D01*
X225849000Y-120569563D01*
X225849000Y-121066000D01*
X226601537Y-121066000D01*
X226625925Y-120955609D01*
X226597665Y-120863408D01*
X226505802Y-120743892D01*
X226392388Y-120644594D01*
X226261781Y-120569330D01*
X226119000Y-120520992D01*
X225969532Y-120501438D01*
X225849000Y-120569563D01*
X225441000Y-120569563D01*
X225320468Y-120501438D01*
X225171000Y-120520992D01*
X225028219Y-120569330D01*
X224897612Y-120644594D01*
X224784198Y-120743892D01*
X224692335Y-120863408D01*
X224664075Y-120955609D01*
X222695925Y-120955609D01*
X222689581Y-120883919D01*
X222601298Y-120759733D01*
X222490484Y-120655157D01*
X222361398Y-120574209D01*
X222219000Y-120520000D01*
X221669000Y-120520000D01*
X221261000Y-120520000D01*
X220711000Y-120520000D01*
X220568602Y-120574209D01*
X220439516Y-120655157D01*
X220328702Y-120759733D01*
X220240419Y-120883919D01*
X220234075Y-120955609D01*
X187074998Y-120955609D01*
X187074998Y-119353020D01*
X218498000Y-119353020D01*
X218498000Y-119446980D01*
X218516331Y-119539136D01*
X218552288Y-119625944D01*
X218604490Y-119704070D01*
X218670930Y-119770510D01*
X218749056Y-119822712D01*
X218835864Y-119858669D01*
X218928020Y-119877000D01*
X219021980Y-119877000D01*
X219114136Y-119858669D01*
X219190592Y-119827000D01*
X219378297Y-119827000D01*
X219399264Y-119829065D01*
X219420231Y-119827000D01*
X219420242Y-119827000D01*
X219482971Y-119820822D01*
X219563460Y-119796405D01*
X219574400Y-119790557D01*
X221493000Y-119790557D01*
X221493000Y-119889443D01*
X221512292Y-119986428D01*
X221550133Y-120077786D01*
X221605071Y-120160006D01*
X221674994Y-120229929D01*
X221757214Y-120284867D01*
X221848572Y-120322708D01*
X221945557Y-120342000D01*
X222044443Y-120342000D01*
X222141428Y-120322708D01*
X222232786Y-120284867D01*
X222315006Y-120229929D01*
X222384929Y-120160006D01*
X222439867Y-120077786D01*
X222477708Y-119986428D01*
X222497000Y-119889443D01*
X222497000Y-119790557D01*
X222477708Y-119693572D01*
X222439867Y-119602214D01*
X222384929Y-119519994D01*
X222315006Y-119450071D01*
X222232786Y-119395133D01*
X222141428Y-119357292D01*
X222044443Y-119338000D01*
X221945557Y-119338000D01*
X221848572Y-119357292D01*
X221757214Y-119395133D01*
X221674994Y-119450071D01*
X221605071Y-119519994D01*
X221550133Y-119602214D01*
X221512292Y-119693572D01*
X221493000Y-119790557D01*
X219574400Y-119790557D01*
X219637640Y-119756755D01*
X219702659Y-119703395D01*
X219716032Y-119687100D01*
X220212106Y-119191027D01*
X220228395Y-119177659D01*
X220241764Y-119161369D01*
X220241768Y-119161365D01*
X220281755Y-119112641D01*
X220321404Y-119038461D01*
X220321405Y-119038460D01*
X220345822Y-118957971D01*
X220352000Y-118895242D01*
X220352000Y-118895231D01*
X220354065Y-118874264D01*
X220352000Y-118853297D01*
X220352000Y-115395967D01*
X220354065Y-115375000D01*
X220352000Y-115354033D01*
X220352000Y-115354022D01*
X220345822Y-115291293D01*
X220321405Y-115210804D01*
X220302948Y-115176273D01*
X220281755Y-115136623D01*
X220241768Y-115087899D01*
X220241764Y-115087895D01*
X220228395Y-115071605D01*
X220212105Y-115058236D01*
X219579382Y-114425513D01*
X219547712Y-114349056D01*
X219495510Y-114270930D01*
X219429070Y-114204490D01*
X219350944Y-114152288D01*
X219264136Y-114116331D01*
X219171980Y-114098000D01*
X219078020Y-114098000D01*
X218985864Y-114116331D01*
X218899056Y-114152288D01*
X218820930Y-114204490D01*
X218754490Y-114270930D01*
X218702288Y-114349056D01*
X218666331Y-114435864D01*
X218648000Y-114528020D01*
X218648000Y-114621980D01*
X218666331Y-114714136D01*
X218702288Y-114800944D01*
X218754490Y-114879070D01*
X218820930Y-114945510D01*
X218899056Y-114997712D01*
X218975513Y-115029382D01*
X219498001Y-115551870D01*
X219498001Y-115902402D01*
X219465553Y-115824066D01*
X219413351Y-115745940D01*
X219346911Y-115679500D01*
X219268785Y-115627298D01*
X219181977Y-115591341D01*
X219089821Y-115573010D01*
X218995861Y-115573010D01*
X218903705Y-115591341D01*
X218816897Y-115627298D01*
X218738771Y-115679500D01*
X218672331Y-115745940D01*
X218620129Y-115824066D01*
X218584172Y-115910874D01*
X218565841Y-116003030D01*
X218565841Y-116096990D01*
X218584172Y-116189146D01*
X218620129Y-116275954D01*
X218672331Y-116354080D01*
X218738771Y-116420520D01*
X218765841Y-116438608D01*
X218765842Y-116874998D01*
X218721240Y-116904800D01*
X218654800Y-116971240D01*
X218602598Y-117049366D01*
X218566641Y-117136174D01*
X218548310Y-117228330D01*
X218548310Y-117322290D01*
X218566641Y-117414446D01*
X218602598Y-117501254D01*
X218654800Y-117579380D01*
X218721240Y-117645820D01*
X218799366Y-117698022D01*
X218886174Y-117733979D01*
X218978330Y-117752310D01*
X219072290Y-117752310D01*
X219164446Y-117733979D01*
X219251254Y-117698022D01*
X219329380Y-117645820D01*
X219395820Y-117579380D01*
X219448022Y-117501254D01*
X219483979Y-117414446D01*
X219498000Y-117343956D01*
X219498000Y-118697395D01*
X219222396Y-118973000D01*
X219190592Y-118973000D01*
X219114136Y-118941331D01*
X219021980Y-118923000D01*
X218928020Y-118923000D01*
X218835864Y-118941331D01*
X218749056Y-118977288D01*
X218670930Y-119029490D01*
X218604490Y-119095930D01*
X218552288Y-119174056D01*
X218516331Y-119260864D01*
X218498000Y-119353020D01*
X187074998Y-119353020D01*
X187075000Y-112996326D01*
X187074973Y-112996052D01*
X187074948Y-112992493D01*
X187074592Y-112989106D01*
X187074592Y-112985700D01*
X187074483Y-112984659D01*
X187063606Y-112887684D01*
X187062185Y-112880996D01*
X187060872Y-112874367D01*
X187060566Y-112873379D01*
X187060563Y-112873366D01*
X187060558Y-112873354D01*
X187031056Y-112780351D01*
X187028373Y-112774090D01*
X187025788Y-112767818D01*
X187025290Y-112766897D01*
X186978279Y-112681385D01*
X186974424Y-112675755D01*
X186970677Y-112670115D01*
X186970013Y-112669313D01*
X186970009Y-112669307D01*
X186970004Y-112669302D01*
X186907284Y-112594555D01*
X186902423Y-112589794D01*
X186897637Y-112584975D01*
X186896826Y-112584313D01*
X186820776Y-112523168D01*
X186815067Y-112519432D01*
X186809453Y-112515645D01*
X186808532Y-112515155D01*
X186808524Y-112515151D01*
X186722050Y-112469944D01*
X186715745Y-112467396D01*
X186709481Y-112464763D01*
X186708482Y-112464461D01*
X186708476Y-112464459D01*
X186614866Y-112436908D01*
X186608151Y-112435627D01*
X186601530Y-112434268D01*
X186600497Y-112434167D01*
X186600487Y-112434165D01*
X186600478Y-112434165D01*
X186503306Y-112425322D01*
X186496514Y-112425369D01*
X186489712Y-112425321D01*
X186488681Y-112425423D01*
X186488669Y-112425423D01*
X186488658Y-112425425D01*
X186391621Y-112435624D01*
X186384974Y-112436988D01*
X186378285Y-112438264D01*
X186377283Y-112438567D01*
X186284065Y-112467423D01*
X186277774Y-112470067D01*
X186271495Y-112472604D01*
X186270580Y-112473091D01*
X186270571Y-112473095D01*
X186270564Y-112473100D01*
X186184732Y-112519508D01*
X186179078Y-112523322D01*
X186173408Y-112527032D01*
X186172604Y-112527688D01*
X186172597Y-112527693D01*
X186172591Y-112527699D01*
X186097408Y-112589896D01*
X186092642Y-112594696D01*
X186087761Y-112599475D01*
X186087094Y-112600282D01*
X186025419Y-112675903D01*
X186021639Y-112681592D01*
X186017817Y-112687174D01*
X186017323Y-112688087D01*
X186017318Y-112688095D01*
X186017315Y-112688103D01*
X185971507Y-112774255D01*
X185968929Y-112780509D01*
X185966238Y-112786787D01*
X185965929Y-112787787D01*
X185937724Y-112881205D01*
X185936402Y-112887881D01*
X185934990Y-112894523D01*
X185934881Y-112895564D01*
X185925359Y-112992682D01*
X185925359Y-112992700D01*
X185925002Y-112996325D01*
X185925000Y-122753674D01*
X176075000Y-122753674D01*
X176075000Y-112746325D01*
X176074988Y-112746201D01*
X176074982Y-112744506D01*
X176074651Y-112741246D01*
X176074674Y-112737966D01*
X176074571Y-112736924D01*
X176059270Y-112591352D01*
X176057904Y-112584699D01*
X176056630Y-112578016D01*
X176056327Y-112577014D01*
X176050000Y-112556575D01*
X176050000Y-108129187D01*
X176069935Y-108028968D01*
X176126706Y-107944004D01*
X177170676Y-106900034D01*
X186340240Y-106900034D01*
X186340240Y-107031966D01*
X186365978Y-107161362D01*
X186416466Y-107283250D01*
X186489763Y-107392947D01*
X186583053Y-107486237D01*
X186692750Y-107559534D01*
X186814638Y-107610022D01*
X186944034Y-107635760D01*
X187075966Y-107635760D01*
X187205362Y-107610022D01*
X187327250Y-107559534D01*
X187436947Y-107486237D01*
X187530237Y-107392947D01*
X187603534Y-107283250D01*
X187654022Y-107161362D01*
X187679760Y-107031966D01*
X187679760Y-106900034D01*
X187654022Y-106770638D01*
X187603534Y-106648750D01*
X187530237Y-106539053D01*
X187520100Y-106528916D01*
X187710570Y-106528916D01*
X187710570Y-106641084D01*
X187732453Y-106751097D01*
X187775378Y-106854726D01*
X187837695Y-106947990D01*
X187917010Y-107027305D01*
X188010274Y-107089622D01*
X188113903Y-107132547D01*
X188223916Y-107154430D01*
X188336084Y-107154430D01*
X188446097Y-107132547D01*
X188549726Y-107089622D01*
X188642990Y-107027305D01*
X188722305Y-106947990D01*
X188784622Y-106854726D01*
X188827547Y-106751097D01*
X188849430Y-106641084D01*
X188849430Y-106528916D01*
X188980570Y-106528916D01*
X188980570Y-106641084D01*
X189002453Y-106751097D01*
X189045378Y-106854726D01*
X189107695Y-106947990D01*
X189187010Y-107027305D01*
X189280274Y-107089622D01*
X189383903Y-107132547D01*
X189493916Y-107154430D01*
X189606084Y-107154430D01*
X189716097Y-107132547D01*
X189819726Y-107089622D01*
X189912990Y-107027305D01*
X189925089Y-107015206D01*
X195037916Y-112128034D01*
X195023000Y-112203020D01*
X195023000Y-112296980D01*
X195041331Y-112389136D01*
X195077288Y-112475944D01*
X195129490Y-112554070D01*
X195195930Y-112620510D01*
X195274056Y-112672712D01*
X195360864Y-112708669D01*
X195453020Y-112727000D01*
X195530078Y-112727000D01*
X195526734Y-112733256D01*
X195513777Y-112775968D01*
X195512981Y-112778591D01*
X195508337Y-112825736D01*
X195509451Y-112837047D01*
X195445930Y-112879490D01*
X195379490Y-112945930D01*
X195327288Y-113024056D01*
X195291331Y-113110864D01*
X195273000Y-113203020D01*
X195273000Y-113296980D01*
X195291331Y-113389136D01*
X195327288Y-113475944D01*
X195379490Y-113554070D01*
X195445930Y-113620510D01*
X195524056Y-113672712D01*
X195610864Y-113708669D01*
X195703020Y-113727000D01*
X195796980Y-113727000D01*
X195889136Y-113708669D01*
X195975944Y-113672712D01*
X196054070Y-113620510D01*
X196120510Y-113554070D01*
X196172712Y-113475944D01*
X196208669Y-113389136D01*
X196227000Y-113296980D01*
X196227000Y-113203020D01*
X196208669Y-113110864D01*
X196172712Y-113024056D01*
X196120510Y-112945930D01*
X196054070Y-112879490D01*
X196043456Y-112872398D01*
X196161709Y-112754146D01*
X196170882Y-112746618D01*
X196183633Y-112731080D01*
X196200935Y-112709998D01*
X196215421Y-112682895D01*
X196223267Y-112668216D01*
X196237020Y-112622882D01*
X196240500Y-112587545D01*
X196240500Y-112587544D01*
X196241663Y-112575737D01*
X196240500Y-112563930D01*
X196240500Y-112011806D01*
X196241663Y-111999999D01*
X196240500Y-111988191D01*
X196237020Y-111952854D01*
X196223267Y-111907520D01*
X196201866Y-111867480D01*
X196200935Y-111865738D01*
X196178409Y-111838290D01*
X196170882Y-111829118D01*
X196161710Y-111821591D01*
X191272640Y-106932523D01*
X191324622Y-106854726D01*
X191367547Y-106751097D01*
X191389430Y-106641084D01*
X191389430Y-106528916D01*
X191367547Y-106418903D01*
X191324622Y-106315274D01*
X191262305Y-106222010D01*
X191182990Y-106142695D01*
X191089726Y-106080378D01*
X190986097Y-106037453D01*
X190876084Y-106015570D01*
X190763916Y-106015570D01*
X190653903Y-106037453D01*
X190550274Y-106080378D01*
X190457010Y-106142695D01*
X190377695Y-106222010D01*
X190315378Y-106315274D01*
X190272453Y-106418903D01*
X190250570Y-106528916D01*
X190250570Y-106641084D01*
X190255379Y-106665262D01*
X190119430Y-106529313D01*
X190119430Y-106528916D01*
X190097547Y-106418903D01*
X190054622Y-106315274D01*
X189992305Y-106222010D01*
X189912990Y-106142695D01*
X189819726Y-106080378D01*
X189716097Y-106037453D01*
X189606084Y-106015570D01*
X189493916Y-106015570D01*
X189383903Y-106037453D01*
X189280274Y-106080378D01*
X189187010Y-106142695D01*
X189107695Y-106222010D01*
X189045378Y-106315274D01*
X189002453Y-106418903D01*
X188980570Y-106528916D01*
X188849430Y-106528916D01*
X188827547Y-106418903D01*
X188784622Y-106315274D01*
X188722305Y-106222010D01*
X188642990Y-106142695D01*
X188549726Y-106080378D01*
X188446097Y-106037453D01*
X188336084Y-106015570D01*
X188223916Y-106015570D01*
X188113903Y-106037453D01*
X188010274Y-106080378D01*
X187917010Y-106142695D01*
X187837695Y-106222010D01*
X187775378Y-106315274D01*
X187732453Y-106418903D01*
X187710570Y-106528916D01*
X187520100Y-106528916D01*
X187436947Y-106445763D01*
X187327250Y-106372466D01*
X187205362Y-106321978D01*
X187075966Y-106296240D01*
X186944034Y-106296240D01*
X186814638Y-106321978D01*
X186692750Y-106372466D01*
X186583053Y-106445763D01*
X186489763Y-106539053D01*
X186416466Y-106648750D01*
X186365978Y-106770638D01*
X186340240Y-106900034D01*
X177170676Y-106900034D01*
X178225250Y-105845460D01*
X188038039Y-105845460D01*
X188085046Y-105930396D01*
X188208850Y-105956605D01*
X188335388Y-105958158D01*
X188459798Y-105934995D01*
X188474954Y-105930396D01*
X188521961Y-105845460D01*
X188280000Y-105603500D01*
X188038039Y-105845460D01*
X178225250Y-105845460D01*
X179202676Y-104868034D01*
X186340240Y-104868034D01*
X186340240Y-104999966D01*
X186365978Y-105129362D01*
X186416466Y-105251250D01*
X186489763Y-105360947D01*
X186583053Y-105454237D01*
X186692750Y-105527534D01*
X186814638Y-105578022D01*
X186944034Y-105603760D01*
X187075966Y-105603760D01*
X187205362Y-105578022D01*
X187327250Y-105527534D01*
X187436947Y-105454237D01*
X187520796Y-105370388D01*
X187636842Y-105370388D01*
X187660005Y-105494798D01*
X187664604Y-105509954D01*
X187749540Y-105556961D01*
X187991500Y-105315000D01*
X188568500Y-105315000D01*
X188810460Y-105556961D01*
X188895396Y-105509954D01*
X188921605Y-105386150D01*
X188923158Y-105259612D01*
X188923029Y-105258916D01*
X188980570Y-105258916D01*
X188980570Y-105371084D01*
X189002453Y-105481097D01*
X189045378Y-105584726D01*
X189107695Y-105677990D01*
X189187010Y-105757305D01*
X189280274Y-105819622D01*
X189383903Y-105862547D01*
X189493916Y-105884430D01*
X189606084Y-105884430D01*
X189716097Y-105862547D01*
X189819726Y-105819622D01*
X189912990Y-105757305D01*
X189992305Y-105677990D01*
X190054622Y-105584726D01*
X190097547Y-105481097D01*
X190119430Y-105371084D01*
X190119430Y-105258916D01*
X190250570Y-105258916D01*
X190250570Y-105371084D01*
X190272453Y-105481097D01*
X190315378Y-105584726D01*
X190377695Y-105677990D01*
X190457010Y-105757305D01*
X190550274Y-105819622D01*
X190653903Y-105862547D01*
X190763916Y-105884430D01*
X190876084Y-105884430D01*
X190878703Y-105883909D01*
X191418970Y-105883909D01*
X191418970Y-106016091D01*
X191444757Y-106145732D01*
X191495341Y-106267852D01*
X191568777Y-106377757D01*
X191662243Y-106471223D01*
X191772148Y-106544659D01*
X191894268Y-106595243D01*
X192023909Y-106621030D01*
X192156091Y-106621030D01*
X192285732Y-106595243D01*
X192407852Y-106544659D01*
X192517757Y-106471223D01*
X192611223Y-106377757D01*
X192684659Y-106267852D01*
X192735243Y-106145732D01*
X192761030Y-106016091D01*
X192761030Y-105883909D01*
X192735243Y-105754268D01*
X192684659Y-105632148D01*
X192611223Y-105522243D01*
X192517757Y-105428777D01*
X192407852Y-105355341D01*
X192285732Y-105304757D01*
X192156091Y-105278970D01*
X192023909Y-105278970D01*
X191894268Y-105304757D01*
X191772148Y-105355341D01*
X191662243Y-105428777D01*
X191568777Y-105522243D01*
X191495341Y-105632148D01*
X191444757Y-105754268D01*
X191418970Y-105883909D01*
X190878703Y-105883909D01*
X190986097Y-105862547D01*
X191089726Y-105819622D01*
X191182990Y-105757305D01*
X191262305Y-105677990D01*
X191324622Y-105584726D01*
X191367547Y-105481097D01*
X191389430Y-105371084D01*
X191389430Y-105258916D01*
X191370365Y-105163071D01*
X192322954Y-105163071D01*
X199159501Y-111999619D01*
X199159500Y-113987014D01*
X199095930Y-114029490D01*
X199029490Y-114095930D01*
X198977288Y-114174056D01*
X198941331Y-114260864D01*
X198923000Y-114353020D01*
X198923000Y-114446980D01*
X198941331Y-114539136D01*
X198977288Y-114625944D01*
X199029490Y-114704070D01*
X199095930Y-114770510D01*
X199174056Y-114822712D01*
X199260864Y-114858669D01*
X199353020Y-114877000D01*
X199446980Y-114877000D01*
X199539136Y-114858669D01*
X199625944Y-114822712D01*
X199704070Y-114770510D01*
X199770510Y-114704070D01*
X199822712Y-114625944D01*
X199858669Y-114539136D01*
X199877000Y-114446980D01*
X199877000Y-114353020D01*
X199858669Y-114260864D01*
X199822712Y-114174056D01*
X199770510Y-114095930D01*
X199704070Y-114029490D01*
X199640500Y-113987014D01*
X199640500Y-112753020D01*
X205073000Y-112753020D01*
X205073000Y-112846980D01*
X205091331Y-112939136D01*
X205127288Y-113025944D01*
X205179490Y-113104070D01*
X205245930Y-113170510D01*
X205324056Y-113222712D01*
X205410864Y-113258669D01*
X205503020Y-113277000D01*
X205596980Y-113277000D01*
X205671967Y-113262084D01*
X206659500Y-114249619D01*
X206659501Y-115987013D01*
X206595930Y-116029490D01*
X206529490Y-116095930D01*
X206477288Y-116174056D01*
X206441331Y-116260864D01*
X206423000Y-116353020D01*
X206423000Y-116446980D01*
X206441331Y-116539136D01*
X206477288Y-116625944D01*
X206529490Y-116704070D01*
X206595930Y-116770510D01*
X206674056Y-116822712D01*
X206760864Y-116858669D01*
X206853020Y-116877000D01*
X206946980Y-116877000D01*
X207039136Y-116858669D01*
X207125944Y-116822712D01*
X207204070Y-116770510D01*
X207270510Y-116704070D01*
X207322712Y-116625944D01*
X207358669Y-116539136D01*
X207377000Y-116446980D01*
X207377000Y-116353020D01*
X207358669Y-116260864D01*
X207322712Y-116174056D01*
X207270510Y-116095930D01*
X207204070Y-116029490D01*
X207140500Y-115987014D01*
X207140500Y-114161806D01*
X207141663Y-114149999D01*
X207138347Y-114116331D01*
X207137020Y-114102854D01*
X207123267Y-114057520D01*
X207101866Y-114017480D01*
X207100935Y-114015738D01*
X207078409Y-113988290D01*
X207070882Y-113979118D01*
X207061710Y-113971591D01*
X207043139Y-113953020D01*
X210473000Y-113953020D01*
X210473000Y-114046980D01*
X210491331Y-114139136D01*
X210527288Y-114225944D01*
X210579490Y-114304070D01*
X210645930Y-114370510D01*
X210724056Y-114422712D01*
X210810864Y-114458669D01*
X210903020Y-114477000D01*
X210996980Y-114477000D01*
X211089136Y-114458669D01*
X211175944Y-114422712D01*
X211254070Y-114370510D01*
X211320510Y-114304070D01*
X211372712Y-114225944D01*
X211408669Y-114139136D01*
X211427000Y-114046980D01*
X211427000Y-114010557D01*
X221493000Y-114010557D01*
X221493000Y-114109443D01*
X221512292Y-114206428D01*
X221550133Y-114297786D01*
X221605071Y-114380006D01*
X221674994Y-114449929D01*
X221757214Y-114504867D01*
X221848572Y-114542708D01*
X221945557Y-114562000D01*
X222044443Y-114562000D01*
X222141428Y-114542708D01*
X222232786Y-114504867D01*
X222315006Y-114449929D01*
X222384929Y-114380006D01*
X222439867Y-114297786D01*
X222477708Y-114206428D01*
X222497000Y-114109443D01*
X222497000Y-114010557D01*
X222477708Y-113913572D01*
X222439867Y-113822214D01*
X222384929Y-113739994D01*
X222315006Y-113670071D01*
X222232786Y-113615133D01*
X222141428Y-113577292D01*
X222044443Y-113558000D01*
X221945557Y-113558000D01*
X221848572Y-113577292D01*
X221757214Y-113615133D01*
X221674994Y-113670071D01*
X221605071Y-113739994D01*
X221550133Y-113822214D01*
X221512292Y-113913572D01*
X221493000Y-114010557D01*
X211427000Y-114010557D01*
X211427000Y-113953020D01*
X211408669Y-113860864D01*
X211372712Y-113774056D01*
X211320510Y-113695930D01*
X211265500Y-113640920D01*
X211265500Y-112944391D01*
X220234075Y-112944391D01*
X220240419Y-113016081D01*
X220328702Y-113140267D01*
X220439516Y-113244843D01*
X220568602Y-113325791D01*
X220711000Y-113380000D01*
X221261000Y-113380000D01*
X221261000Y-112834000D01*
X221669000Y-112834000D01*
X221669000Y-113380000D01*
X222219000Y-113380000D01*
X222361398Y-113325791D01*
X222490484Y-113244843D01*
X222601298Y-113140267D01*
X222689581Y-113016081D01*
X222695925Y-112944391D01*
X224664075Y-112944391D01*
X224692335Y-113036592D01*
X224784198Y-113156108D01*
X224897612Y-113255406D01*
X225028219Y-113330670D01*
X225171000Y-113379008D01*
X225320468Y-113398562D01*
X225441000Y-113330437D01*
X225441000Y-112834000D01*
X225849000Y-112834000D01*
X225849000Y-113330437D01*
X225969532Y-113398562D01*
X226119000Y-113379008D01*
X226261781Y-113330670D01*
X226392388Y-113255406D01*
X226505802Y-113156108D01*
X226597665Y-113036592D01*
X226625925Y-112944391D01*
X226601537Y-112834000D01*
X225849000Y-112834000D01*
X225441000Y-112834000D01*
X224688463Y-112834000D01*
X224664075Y-112944391D01*
X222695925Y-112944391D01*
X222671537Y-112834000D01*
X221669000Y-112834000D01*
X221261000Y-112834000D01*
X220258463Y-112834000D01*
X220234075Y-112944391D01*
X211265500Y-112944391D01*
X211265500Y-112315609D01*
X220234075Y-112315609D01*
X220258463Y-112426000D01*
X221261000Y-112426000D01*
X221261000Y-111880000D01*
X221669000Y-111880000D01*
X221669000Y-112426000D01*
X222671537Y-112426000D01*
X222695925Y-112315609D01*
X224664075Y-112315609D01*
X224688463Y-112426000D01*
X225441000Y-112426000D01*
X225441000Y-111929563D01*
X225849000Y-111929563D01*
X225849000Y-112426000D01*
X226601537Y-112426000D01*
X226625925Y-112315609D01*
X226597665Y-112223408D01*
X226505802Y-112103892D01*
X226392388Y-112004594D01*
X226261781Y-111929330D01*
X226119000Y-111880992D01*
X225969532Y-111861438D01*
X225849000Y-111929563D01*
X225441000Y-111929563D01*
X225320468Y-111861438D01*
X225171000Y-111880992D01*
X225028219Y-111929330D01*
X224897612Y-112004594D01*
X224784198Y-112103892D01*
X224692335Y-112223408D01*
X224664075Y-112315609D01*
X222695925Y-112315609D01*
X222689581Y-112243919D01*
X222601298Y-112119733D01*
X222490484Y-112015157D01*
X222361398Y-111934209D01*
X222219000Y-111880000D01*
X221669000Y-111880000D01*
X221261000Y-111880000D01*
X220711000Y-111880000D01*
X220568602Y-111934209D01*
X220439516Y-112015157D01*
X220328702Y-112119733D01*
X220240419Y-112243919D01*
X220234075Y-112315609D01*
X211265500Y-112315609D01*
X211265500Y-111874617D01*
X213278034Y-109862084D01*
X213353020Y-109877000D01*
X213446980Y-109877000D01*
X213539136Y-109858669D01*
X213625944Y-109822712D01*
X213704070Y-109770510D01*
X213770510Y-109704070D01*
X213822712Y-109625944D01*
X213858669Y-109539136D01*
X213877000Y-109446980D01*
X213877000Y-109353020D01*
X213858669Y-109260864D01*
X213822712Y-109174056D01*
X213770510Y-109095930D01*
X213704070Y-109029490D01*
X213625944Y-108977288D01*
X213539136Y-108941331D01*
X213446980Y-108923000D01*
X213353020Y-108923000D01*
X213260864Y-108941331D01*
X213174056Y-108977288D01*
X213095930Y-109029490D01*
X213029490Y-109095930D01*
X212977288Y-109174056D01*
X212941331Y-109260864D01*
X212923000Y-109353020D01*
X212923000Y-109446980D01*
X212937916Y-109521966D01*
X210863301Y-111596582D01*
X210854118Y-111604118D01*
X210824065Y-111640739D01*
X210801733Y-111682521D01*
X210787980Y-111727855D01*
X210785134Y-111756755D01*
X210783337Y-111775000D01*
X210784500Y-111786807D01*
X210784501Y-113552251D01*
X210724056Y-113577288D01*
X210645930Y-113629490D01*
X210579490Y-113695930D01*
X210527288Y-113774056D01*
X210491331Y-113860864D01*
X210473000Y-113953020D01*
X207043139Y-113953020D01*
X206012084Y-112921967D01*
X206027000Y-112846980D01*
X206027000Y-112753020D01*
X206008669Y-112660864D01*
X205972712Y-112574056D01*
X205920510Y-112495930D01*
X205854070Y-112429490D01*
X205775944Y-112377288D01*
X205689136Y-112341331D01*
X205596980Y-112323000D01*
X205503020Y-112323000D01*
X205410864Y-112341331D01*
X205324056Y-112377288D01*
X205245930Y-112429490D01*
X205179490Y-112495930D01*
X205127288Y-112574056D01*
X205091331Y-112660864D01*
X205073000Y-112753020D01*
X199640500Y-112753020D01*
X199640500Y-111911807D01*
X199641663Y-111900000D01*
X199639643Y-111879490D01*
X199637020Y-111852854D01*
X199623267Y-111807520D01*
X199623267Y-111807519D01*
X199600935Y-111765739D01*
X199598671Y-111762980D01*
X199570882Y-111729118D01*
X199561704Y-111721586D01*
X197393138Y-109553020D01*
X206123000Y-109553020D01*
X206123000Y-109646980D01*
X206141331Y-109739136D01*
X206177288Y-109825944D01*
X206229490Y-109904070D01*
X206295930Y-109970510D01*
X206374056Y-110022712D01*
X206460864Y-110058669D01*
X206553020Y-110077000D01*
X206646980Y-110077000D01*
X206739136Y-110058669D01*
X206825944Y-110022712D01*
X206904070Y-109970510D01*
X206970510Y-109904070D01*
X207022712Y-109825944D01*
X207054382Y-109749486D01*
X207349487Y-109454382D01*
X207425944Y-109422712D01*
X207504070Y-109370510D01*
X207570510Y-109304070D01*
X207622712Y-109225944D01*
X207654381Y-109149487D01*
X208386692Y-108417176D01*
X214159069Y-108417176D01*
X214159069Y-108582824D01*
X214191385Y-108745291D01*
X214254777Y-108898330D01*
X214346806Y-109036062D01*
X214463938Y-109153194D01*
X214601670Y-109245223D01*
X214754709Y-109308615D01*
X214917176Y-109340931D01*
X215082824Y-109340931D01*
X215245291Y-109308615D01*
X215398330Y-109245223D01*
X215536062Y-109153194D01*
X215653194Y-109036062D01*
X215745223Y-108898330D01*
X215808615Y-108745291D01*
X215840931Y-108582824D01*
X215840931Y-108417176D01*
X215808615Y-108254709D01*
X215745223Y-108101670D01*
X215653194Y-107963938D01*
X215536062Y-107846806D01*
X215398330Y-107754777D01*
X215245291Y-107691385D01*
X215082824Y-107659069D01*
X214917176Y-107659069D01*
X214754709Y-107691385D01*
X214601670Y-107754777D01*
X214463938Y-107846806D01*
X214346806Y-107963938D01*
X214254777Y-108101670D01*
X214191385Y-108254709D01*
X214159069Y-108417176D01*
X208386692Y-108417176D01*
X209376870Y-107427000D01*
X216023132Y-107427000D01*
X220283236Y-111687105D01*
X220296605Y-111703395D01*
X220312895Y-111716764D01*
X220312899Y-111716768D01*
X220361623Y-111756756D01*
X220418538Y-111787176D01*
X220435804Y-111796405D01*
X220516293Y-111820822D01*
X220579022Y-111827000D01*
X220579033Y-111827000D01*
X220600000Y-111829065D01*
X220620967Y-111827000D01*
X220984408Y-111827000D01*
X221060864Y-111858669D01*
X221153020Y-111877000D01*
X221246980Y-111877000D01*
X221339136Y-111858669D01*
X221415592Y-111827000D01*
X221784408Y-111827000D01*
X221860864Y-111858669D01*
X221953020Y-111877000D01*
X222046980Y-111877000D01*
X222139136Y-111858669D01*
X222225944Y-111822712D01*
X222304070Y-111770510D01*
X222370510Y-111704070D01*
X222422712Y-111625944D01*
X222458669Y-111539136D01*
X222477000Y-111446980D01*
X222477000Y-111353020D01*
X222458669Y-111260864D01*
X222422712Y-111174056D01*
X222370510Y-111095930D01*
X222304070Y-111029490D01*
X222225944Y-110977288D01*
X222139136Y-110941331D01*
X222046980Y-110923000D01*
X221953020Y-110923000D01*
X221860864Y-110941331D01*
X221784408Y-110973000D01*
X221415592Y-110973000D01*
X221339136Y-110941331D01*
X221246980Y-110923000D01*
X221153020Y-110923000D01*
X221060864Y-110941331D01*
X220984408Y-110973000D01*
X220776869Y-110973000D01*
X219869937Y-110066068D01*
X219899065Y-110085531D01*
X220245207Y-110228907D01*
X220612669Y-110302000D01*
X220987331Y-110302000D01*
X221354793Y-110228907D01*
X221700935Y-110085531D01*
X222012454Y-109877380D01*
X222277380Y-109612454D01*
X222485531Y-109300935D01*
X222628907Y-108954793D01*
X222702000Y-108587331D01*
X222702000Y-108212669D01*
X222628907Y-107845207D01*
X222485531Y-107499065D01*
X222277380Y-107187546D01*
X222012454Y-106922620D01*
X221700935Y-106714469D01*
X221354793Y-106571093D01*
X220987331Y-106498000D01*
X220612669Y-106498000D01*
X220245207Y-106571093D01*
X219899065Y-106714469D01*
X219587546Y-106922620D01*
X219322620Y-107187546D01*
X219114469Y-107499065D01*
X218971093Y-107845207D01*
X218898000Y-108212669D01*
X218898000Y-108587331D01*
X218971093Y-108954793D01*
X219114469Y-109300935D01*
X219133932Y-109330064D01*
X216516768Y-106712900D01*
X216503395Y-106696605D01*
X216438376Y-106643245D01*
X216364196Y-106603595D01*
X216283707Y-106579178D01*
X216220978Y-106573000D01*
X216220967Y-106573000D01*
X216200000Y-106570935D01*
X216179033Y-106573000D01*
X209220964Y-106573000D01*
X209199999Y-106570935D01*
X209179034Y-106573000D01*
X209179022Y-106573000D01*
X209116293Y-106579178D01*
X209035804Y-106603595D01*
X209006862Y-106619065D01*
X208961623Y-106643245D01*
X208912898Y-106683232D01*
X208912889Y-106683241D01*
X208896605Y-106696605D01*
X208883241Y-106712889D01*
X207050513Y-108545619D01*
X206974056Y-108577288D01*
X206895930Y-108629490D01*
X206829490Y-108695930D01*
X206777288Y-108774056D01*
X206745618Y-108850513D01*
X206450514Y-109145618D01*
X206374056Y-109177288D01*
X206295930Y-109229490D01*
X206229490Y-109295930D01*
X206177288Y-109374056D01*
X206141331Y-109460864D01*
X206123000Y-109553020D01*
X197393138Y-109553020D01*
X192600989Y-104760872D01*
X192593453Y-104751689D01*
X192556832Y-104721636D01*
X192515051Y-104699304D01*
X192469717Y-104685551D01*
X192434380Y-104682071D01*
X192434378Y-104682071D01*
X192422571Y-104680908D01*
X192410764Y-104682071D01*
X191224235Y-104682071D01*
X191212428Y-104680908D01*
X191200621Y-104682071D01*
X191200620Y-104682071D01*
X191165283Y-104685551D01*
X191119949Y-104699304D01*
X191100499Y-104709700D01*
X191078167Y-104721636D01*
X191057450Y-104738638D01*
X191041547Y-104751689D01*
X191034020Y-104760861D01*
X191015322Y-104779559D01*
X190986097Y-104767453D01*
X190876084Y-104745570D01*
X190763916Y-104745570D01*
X190653903Y-104767453D01*
X190550274Y-104810378D01*
X190457010Y-104872695D01*
X190377695Y-104952010D01*
X190315378Y-105045274D01*
X190272453Y-105148903D01*
X190250570Y-105258916D01*
X190119430Y-105258916D01*
X190097547Y-105148903D01*
X190054622Y-105045274D01*
X189992305Y-104952010D01*
X189912990Y-104872695D01*
X189819726Y-104810378D01*
X189716097Y-104767453D01*
X189606084Y-104745570D01*
X189493916Y-104745570D01*
X189383903Y-104767453D01*
X189280274Y-104810378D01*
X189187010Y-104872695D01*
X189107695Y-104952010D01*
X189045378Y-105045274D01*
X189002453Y-105148903D01*
X188980570Y-105258916D01*
X188923029Y-105258916D01*
X188899995Y-105135202D01*
X188895396Y-105120046D01*
X188810460Y-105073039D01*
X188568500Y-105315000D01*
X187991500Y-105315000D01*
X187749540Y-105073039D01*
X187664604Y-105120046D01*
X187638395Y-105243850D01*
X187636842Y-105370388D01*
X187520796Y-105370388D01*
X187530237Y-105360947D01*
X187603534Y-105251250D01*
X187654022Y-105129362D01*
X187679760Y-104999966D01*
X187679760Y-104868034D01*
X187663153Y-104784540D01*
X188038039Y-104784540D01*
X188280000Y-105026500D01*
X188521961Y-104784540D01*
X188474954Y-104699604D01*
X188351150Y-104673395D01*
X188224612Y-104671842D01*
X188100202Y-104695005D01*
X188085046Y-104699604D01*
X188038039Y-104784540D01*
X187663153Y-104784540D01*
X187654022Y-104738638D01*
X187603534Y-104616750D01*
X187530237Y-104507053D01*
X187436947Y-104413763D01*
X187327250Y-104340466D01*
X187205362Y-104289978D01*
X187075966Y-104264240D01*
X186944034Y-104264240D01*
X186814638Y-104289978D01*
X186692750Y-104340466D01*
X186583053Y-104413763D01*
X186489763Y-104507053D01*
X186416466Y-104616750D01*
X186365978Y-104738638D01*
X186340240Y-104868034D01*
X179202676Y-104868034D01*
X181944004Y-102126706D01*
X182021388Y-102075000D01*
X203932208Y-102075000D01*
X203936393Y-102112316D01*
X203937813Y-102118997D01*
X203939127Y-102125634D01*
X203939434Y-102126624D01*
X203939436Y-102126634D01*
X203939440Y-102126643D01*
X203968943Y-102219649D01*
X203971614Y-102225882D01*
X203974211Y-102232182D01*
X203974707Y-102233098D01*
X203974709Y-102233103D01*
X203974712Y-102233107D01*
X204021720Y-102318615D01*
X204025545Y-102324203D01*
X204029322Y-102329887D01*
X204029984Y-102330686D01*
X204029989Y-102330693D01*
X204029995Y-102330698D01*
X204092715Y-102405445D01*
X204097557Y-102410187D01*
X204102361Y-102415025D01*
X204103167Y-102415681D01*
X204103173Y-102415687D01*
X204103180Y-102415691D01*
X204179223Y-102476832D01*
X204184898Y-102480546D01*
X204190546Y-102484356D01*
X204191463Y-102484843D01*
X204191471Y-102484848D01*
X204191479Y-102484851D01*
X204277950Y-102530057D01*
X204284232Y-102532595D01*
X204290519Y-102535238D01*
X204291515Y-102535538D01*
X204291522Y-102535541D01*
X204291529Y-102535542D01*
X204385133Y-102563092D01*
X204391825Y-102564369D01*
X204398470Y-102565733D01*
X204399499Y-102565834D01*
X204399511Y-102565836D01*
X204399522Y-102565836D01*
X204496694Y-102574679D01*
X204503487Y-102574632D01*
X204510289Y-102574680D01*
X204511320Y-102574578D01*
X204511332Y-102574578D01*
X204511343Y-102574576D01*
X204608379Y-102564377D01*
X204615032Y-102563011D01*
X204621715Y-102561737D01*
X204622715Y-102561435D01*
X204622721Y-102561433D01*
X204715936Y-102532578D01*
X204722227Y-102529934D01*
X204728506Y-102527397D01*
X204729421Y-102526910D01*
X204729430Y-102526906D01*
X204729437Y-102526901D01*
X204815268Y-102480493D01*
X204820922Y-102476679D01*
X204826592Y-102472969D01*
X204827396Y-102472313D01*
X204827403Y-102472308D01*
X204827409Y-102472302D01*
X204902592Y-102410106D01*
X204907394Y-102405270D01*
X204912238Y-102400527D01*
X204912905Y-102399720D01*
X204974581Y-102324099D01*
X204978333Y-102318452D01*
X204982185Y-102312827D01*
X204982679Y-102311911D01*
X204982682Y-102311907D01*
X204982684Y-102311903D01*
X205028494Y-102225745D01*
X205031084Y-102219463D01*
X205033763Y-102213213D01*
X205034070Y-102212219D01*
X205034073Y-102212212D01*
X205034074Y-102212205D01*
X205062277Y-102118795D01*
X205063599Y-102112119D01*
X205065011Y-102105477D01*
X205065120Y-102104435D01*
X205074642Y-102007318D01*
X205074642Y-102007310D01*
X205075000Y-102003675D01*
X205075000Y-102000000D01*
X221250000Y-102000000D01*
X221250000Y-103200000D01*
X221251762Y-103213156D01*
X221255255Y-103222314D01*
X221260468Y-103230614D01*
X221267200Y-103237738D01*
X221275193Y-103243412D01*
X222325193Y-103843412D01*
X222337349Y-103848373D01*
X222347029Y-103849912D01*
X222356823Y-103849532D01*
X222366355Y-103847249D01*
X222375259Y-103843151D01*
X223400259Y-103243151D01*
X223410355Y-103235355D01*
X223416573Y-103227779D01*
X223421194Y-103219134D01*
X223424039Y-103209755D01*
X223425000Y-103200000D01*
X223425000Y-102000000D01*
X223423373Y-101987349D01*
X223419975Y-101978155D01*
X223414849Y-101969800D01*
X223408192Y-101962606D01*
X223400259Y-101956849D01*
X222375259Y-101356849D01*
X222363156Y-101351762D01*
X222353492Y-101350122D01*
X222343694Y-101350399D01*
X222334139Y-101352582D01*
X222325193Y-101356588D01*
X221275193Y-101956588D01*
X221264645Y-101964645D01*
X221258427Y-101972221D01*
X221253806Y-101980866D01*
X221250961Y-101990245D01*
X221250000Y-102000000D01*
X205075000Y-102000000D01*
X205075000Y-98109829D01*
X205080808Y-98103496D01*
X205133320Y-98075000D01*
X214916372Y-98075000D01*
X214925001Y-98080333D01*
G37*
X214925001Y-98080333D02*
X214925000Y-100003674D01*
X214925026Y-100003937D01*
X214925051Y-100007507D01*
X214925407Y-100010894D01*
X214925407Y-100014300D01*
X214925516Y-100015341D01*
X214936393Y-100112316D01*
X214937813Y-100118997D01*
X214939127Y-100125634D01*
X214939434Y-100126624D01*
X214939436Y-100126634D01*
X214939440Y-100126643D01*
X214968943Y-100219649D01*
X214971614Y-100225882D01*
X214974211Y-100232182D01*
X214974707Y-100233098D01*
X214974709Y-100233103D01*
X214974712Y-100233107D01*
X215021720Y-100318615D01*
X215025545Y-100324203D01*
X215029322Y-100329887D01*
X215029984Y-100330686D01*
X215029989Y-100330693D01*
X215029995Y-100330698D01*
X215092715Y-100405445D01*
X215097557Y-100410187D01*
X215102361Y-100415025D01*
X215103167Y-100415681D01*
X215103173Y-100415687D01*
X215103180Y-100415691D01*
X215179223Y-100476832D01*
X215184898Y-100480546D01*
X215190546Y-100484356D01*
X215191463Y-100484843D01*
X215191471Y-100484848D01*
X215191479Y-100484851D01*
X215277950Y-100530057D01*
X215284232Y-100532595D01*
X215290519Y-100535238D01*
X215291515Y-100535538D01*
X215291522Y-100535541D01*
X215291529Y-100535542D01*
X215385133Y-100563092D01*
X215391825Y-100564369D01*
X215398470Y-100565733D01*
X215399499Y-100565834D01*
X215399511Y-100565836D01*
X215399522Y-100565836D01*
X215496694Y-100574679D01*
X215503487Y-100574632D01*
X215510289Y-100574680D01*
X215511320Y-100574578D01*
X215511332Y-100574578D01*
X215511343Y-100574576D01*
X215608379Y-100564377D01*
X215615032Y-100563011D01*
X215621715Y-100561737D01*
X215622715Y-100561435D01*
X215622721Y-100561433D01*
X215715936Y-100532578D01*
X215722227Y-100529934D01*
X215728506Y-100527397D01*
X215729421Y-100526910D01*
X215729430Y-100526906D01*
X215729437Y-100526901D01*
X215815268Y-100480493D01*
X215820922Y-100476679D01*
X215826592Y-100472969D01*
X215827396Y-100472313D01*
X215827403Y-100472308D01*
X215827409Y-100472302D01*
X215902592Y-100410106D01*
X215907394Y-100405270D01*
X215912238Y-100400527D01*
X215912905Y-100399720D01*
X215974581Y-100324099D01*
X215978333Y-100318452D01*
X215982185Y-100312827D01*
X215982679Y-100311911D01*
X215982682Y-100311907D01*
X215982684Y-100311903D01*
X216028494Y-100225745D01*
X216031084Y-100219463D01*
X216033763Y-100213213D01*
X216034070Y-100212219D01*
X216034073Y-100212212D01*
X216034074Y-100212205D01*
X216062277Y-100118795D01*
X216063599Y-100112119D01*
X216065011Y-100105477D01*
X216065120Y-100104435D01*
X216068006Y-100075000D01*
X227802876Y-100075000D01*
X227876084Y-100123916D01*
X227925001Y-100197125D01*
X227925000Y-142802876D01*
X227876084Y-142876084D01*
X227795296Y-142930065D01*
X227695077Y-142950000D01*
X219717525Y-142950000D01*
X218993857Y-142510630D01*
X218950348Y-142491659D01*
X218898725Y-142477000D01*
X219336402Y-142477000D01*
X219354490Y-142504070D01*
X219420930Y-142570510D01*
X219499056Y-142622712D01*
X219585864Y-142658669D01*
X219678020Y-142677000D01*
X219771980Y-142677000D01*
X219864136Y-142658669D01*
X219950944Y-142622712D01*
X220029070Y-142570510D01*
X220095510Y-142504070D01*
X220147712Y-142425944D01*
X220183669Y-142339136D01*
X220202000Y-142246980D01*
X220202000Y-142153020D01*
X220183669Y-142060864D01*
X220147712Y-141974056D01*
X220095510Y-141895930D01*
X220029070Y-141829490D01*
X219950944Y-141777288D01*
X219864136Y-141741331D01*
X219771980Y-141723000D01*
X219678020Y-141723000D01*
X219585864Y-141741331D01*
X219499056Y-141777288D01*
X219420930Y-141829490D01*
X219354490Y-141895930D01*
X219336402Y-141923000D01*
X218357630Y-141923000D01*
X218347712Y-141899056D01*
X218295510Y-141820930D01*
X218229070Y-141754490D01*
X218150944Y-141702288D01*
X218064136Y-141666331D01*
X217971980Y-141648000D01*
X217878020Y-141648000D01*
X217785864Y-141666331D01*
X217699056Y-141702288D01*
X217620930Y-141754490D01*
X217554490Y-141820930D01*
X217502288Y-141899056D01*
X217466331Y-141985864D01*
X217448000Y-142078020D01*
X217448000Y-142171980D01*
X217466331Y-142264136D01*
X217502288Y-142350944D01*
X217554490Y-142429070D01*
X217620930Y-142495510D01*
X217699056Y-142547712D01*
X217785864Y-142583669D01*
X217878020Y-142602000D01*
X217971980Y-142602000D01*
X218064136Y-142583669D01*
X218150944Y-142547712D01*
X218229070Y-142495510D01*
X218247580Y-142477000D01*
X218697539Y-142477000D01*
X218651342Y-142489351D01*
X218607546Y-142507647D01*
X213009344Y-145789352D01*
X212973079Y-145817515D01*
X212900688Y-145890628D01*
X212885863Y-145907645D01*
X212867589Y-145937140D01*
X212855421Y-145969635D01*
X212828956Y-146069061D01*
X212823000Y-146114589D01*
X212823000Y-148106290D01*
X212055996Y-148873294D01*
X211971032Y-148930065D01*
X211870813Y-148950000D01*
X192224264Y-148950000D01*
X192214510Y-148950961D01*
X192099705Y-148973797D01*
X192090325Y-148976642D01*
X192081680Y-148981263D01*
X191984353Y-149046295D01*
X191976777Y-149052513D01*
X187855996Y-153173294D01*
X187771032Y-153230065D01*
X187670813Y-153250000D01*
X176304923Y-153250000D01*
X176204704Y-153230065D01*
X176123916Y-153176084D01*
X176075000Y-153102876D01*
X176075000Y-142903020D01*
X181073000Y-142903020D01*
X181073000Y-142996980D01*
X181091331Y-143089136D01*
X181127288Y-143175944D01*
X181179490Y-143254070D01*
X181245930Y-143320510D01*
X181324056Y-143372712D01*
X181410864Y-143408669D01*
X181503020Y-143427000D01*
X181596980Y-143427000D01*
X181689136Y-143408669D01*
X181775944Y-143372712D01*
X181854070Y-143320510D01*
X181920510Y-143254070D01*
X181972712Y-143175944D01*
X182008669Y-143089136D01*
X182027000Y-142996980D01*
X182027000Y-142903020D01*
X182012084Y-142828033D01*
X182599618Y-142240500D01*
X183915042Y-142240500D01*
X183910864Y-142241331D01*
X183824056Y-142277288D01*
X183745930Y-142329490D01*
X183679490Y-142395930D01*
X183627288Y-142474056D01*
X183591331Y-142560864D01*
X183573000Y-142653020D01*
X183573000Y-142746980D01*
X183591331Y-142839136D01*
X183627288Y-142925944D01*
X183679490Y-143004070D01*
X183745930Y-143070510D01*
X183824056Y-143122712D01*
X183910864Y-143158669D01*
X184003020Y-143177000D01*
X184096980Y-143177000D01*
X184189136Y-143158669D01*
X184275944Y-143122712D01*
X184354070Y-143070510D01*
X184420510Y-143004070D01*
X184472712Y-142925944D01*
X184508669Y-142839136D01*
X184527000Y-142746980D01*
X184527000Y-142653020D01*
X184524510Y-142640501D01*
X184884919Y-142640501D01*
X184879490Y-142645930D01*
X184827288Y-142724056D01*
X184791331Y-142810864D01*
X184773000Y-142903020D01*
X184773000Y-142996980D01*
X184791331Y-143089136D01*
X184827288Y-143175944D01*
X184879490Y-143254070D01*
X184945930Y-143320510D01*
X185024056Y-143372712D01*
X185110864Y-143408669D01*
X185203020Y-143427000D01*
X185296980Y-143427000D01*
X185389136Y-143408669D01*
X185475944Y-143372712D01*
X185554070Y-143320510D01*
X185620510Y-143254070D01*
X185672712Y-143175944D01*
X185687393Y-143140500D01*
X187687014Y-143140500D01*
X187729490Y-143204070D01*
X187795930Y-143270510D01*
X187874056Y-143322712D01*
X187960864Y-143358669D01*
X188053020Y-143377000D01*
X188146980Y-143377000D01*
X188239136Y-143358669D01*
X188325944Y-143322712D01*
X188404070Y-143270510D01*
X188470510Y-143204070D01*
X188522712Y-143125944D01*
X188558669Y-143039136D01*
X188577000Y-142946980D01*
X188577000Y-142853020D01*
X188558669Y-142760864D01*
X188522712Y-142674056D01*
X188470510Y-142595930D01*
X188404070Y-142529490D01*
X188325944Y-142477288D01*
X188239136Y-142441331D01*
X188146980Y-142423000D01*
X188053020Y-142423000D01*
X188014324Y-142430697D01*
X188014324Y-142362510D01*
X187997080Y-142275818D01*
X188003020Y-142277000D01*
X188096980Y-142277000D01*
X188189136Y-142258669D01*
X188275944Y-142222712D01*
X188354070Y-142170510D01*
X188420510Y-142104070D01*
X188472712Y-142025944D01*
X188508669Y-141939136D01*
X188527000Y-141846980D01*
X188527000Y-141753020D01*
X188508669Y-141660864D01*
X188472712Y-141574056D01*
X188420510Y-141495930D01*
X188354070Y-141429490D01*
X188275944Y-141377288D01*
X188189136Y-141341331D01*
X188096980Y-141323000D01*
X188003020Y-141323000D01*
X187910864Y-141341331D01*
X187824056Y-141377288D01*
X187745930Y-141429490D01*
X187679490Y-141495930D01*
X187637014Y-141559500D01*
X187311807Y-141559500D01*
X187300000Y-141558337D01*
X187288193Y-141559500D01*
X187288191Y-141559500D01*
X187252854Y-141562980D01*
X187218071Y-141573532D01*
X187207519Y-141576733D01*
X187165739Y-141599065D01*
X187129118Y-141629118D01*
X187121586Y-141638296D01*
X187000383Y-141759500D01*
X182511807Y-141759500D01*
X182500000Y-141758337D01*
X182488193Y-141759500D01*
X182488191Y-141759500D01*
X182452854Y-141762980D01*
X182407520Y-141776733D01*
X182406482Y-141777288D01*
X182365738Y-141799065D01*
X182351980Y-141810356D01*
X182329118Y-141829118D01*
X182321586Y-141838296D01*
X181671967Y-142487916D01*
X181596980Y-142473000D01*
X181503020Y-142473000D01*
X181410864Y-142491331D01*
X181324056Y-142527288D01*
X181245930Y-142579490D01*
X181179490Y-142645930D01*
X181127288Y-142724056D01*
X181091331Y-142810864D01*
X181073000Y-142903020D01*
X176075000Y-142903020D01*
X176075000Y-126250000D01*
X187779290Y-126250000D01*
X188750000Y-127220710D01*
X188750000Y-145346132D01*
X185150514Y-148945618D01*
X185074056Y-148977288D01*
X184995930Y-149029490D01*
X184929490Y-149095930D01*
X184877288Y-149174056D01*
X184841331Y-149260864D01*
X184823000Y-149353020D01*
X184823000Y-149446980D01*
X184841331Y-149539136D01*
X184877288Y-149625944D01*
X184929490Y-149704070D01*
X184995930Y-149770510D01*
X185074056Y-149822712D01*
X185160864Y-149858669D01*
X185253020Y-149877000D01*
X185346980Y-149877000D01*
X185439136Y-149858669D01*
X185525944Y-149822712D01*
X185604070Y-149770510D01*
X185670510Y-149704070D01*
X185722712Y-149625944D01*
X185754382Y-149549486D01*
X190395518Y-144908350D01*
X208517670Y-144908350D01*
X208517670Y-145002310D01*
X208536001Y-145094466D01*
X208571958Y-145181274D01*
X208624160Y-145259400D01*
X208690600Y-145325840D01*
X208768726Y-145378042D01*
X208855534Y-145413999D01*
X208947690Y-145432330D01*
X209041650Y-145432330D01*
X209133806Y-145413999D01*
X209220614Y-145378042D01*
X209298740Y-145325840D01*
X209365180Y-145259400D01*
X209417382Y-145181274D01*
X209453339Y-145094466D01*
X209471670Y-145002310D01*
X209471670Y-144908350D01*
X209453339Y-144816194D01*
X209417382Y-144729386D01*
X209365180Y-144651260D01*
X209321670Y-144607750D01*
X209321670Y-143290777D01*
X209935448Y-142677000D01*
X209996980Y-142677000D01*
X210089136Y-142658669D01*
X210175944Y-142622712D01*
X210254070Y-142570510D01*
X210320510Y-142504070D01*
X210372712Y-142425944D01*
X210408669Y-142339136D01*
X210427000Y-142246980D01*
X210427000Y-142153020D01*
X210408669Y-142060864D01*
X210372712Y-141974056D01*
X210320510Y-141895930D01*
X210254070Y-141829490D01*
X210175944Y-141777288D01*
X210089136Y-141741331D01*
X209996980Y-141723000D01*
X209903020Y-141723000D01*
X209810864Y-141741331D01*
X209724056Y-141777288D01*
X209645930Y-141829490D01*
X209579490Y-141895930D01*
X209527288Y-141974056D01*
X209491331Y-142060864D01*
X209473000Y-142153020D01*
X209473000Y-142214552D01*
X208774811Y-142912742D01*
X208762327Y-142922987D01*
X208721464Y-142972781D01*
X208708441Y-142997145D01*
X208691100Y-143029588D01*
X208672402Y-143091227D01*
X208666088Y-143155330D01*
X208667670Y-143171391D01*
X208667671Y-144607749D01*
X208624160Y-144651260D01*
X208571958Y-144729386D01*
X208536001Y-144816194D01*
X208517670Y-144908350D01*
X190395518Y-144908350D01*
X192350848Y-142953020D01*
X204323000Y-142953020D01*
X204323000Y-143046980D01*
X204341331Y-143139136D01*
X204377288Y-143225944D01*
X204429490Y-143304070D01*
X204495930Y-143370510D01*
X204574056Y-143422712D01*
X204660864Y-143458669D01*
X204753020Y-143477000D01*
X204846980Y-143477000D01*
X204939136Y-143458669D01*
X205025944Y-143422712D01*
X205104070Y-143370510D01*
X205170510Y-143304070D01*
X205222712Y-143225944D01*
X205258669Y-143139136D01*
X205277000Y-143046980D01*
X205277000Y-142953020D01*
X205262084Y-142878033D01*
X207536629Y-140603488D01*
X207523000Y-140672007D01*
X207523000Y-140765967D01*
X207541331Y-140858123D01*
X207577288Y-140944931D01*
X207629490Y-141023057D01*
X207695930Y-141089497D01*
X207759500Y-141131973D01*
X207759501Y-141387020D01*
X207695930Y-141429496D01*
X207629490Y-141495936D01*
X207577288Y-141574062D01*
X207541331Y-141660870D01*
X207523000Y-141753026D01*
X207523000Y-141846986D01*
X207541331Y-141939142D01*
X207577288Y-142025950D01*
X207629490Y-142104076D01*
X207695930Y-142170516D01*
X207774056Y-142222718D01*
X207860864Y-142258675D01*
X207953020Y-142277006D01*
X208046980Y-142277006D01*
X208139136Y-142258675D01*
X208225944Y-142222718D01*
X208304070Y-142170516D01*
X208370510Y-142104076D01*
X208422712Y-142025950D01*
X208458669Y-141939142D01*
X208477000Y-141846986D01*
X208477000Y-141753026D01*
X208458669Y-141660870D01*
X208422712Y-141574062D01*
X208370510Y-141495936D01*
X208304070Y-141429496D01*
X208240500Y-141387020D01*
X208240500Y-141131973D01*
X208304070Y-141089497D01*
X208370510Y-141023057D01*
X208422712Y-140944931D01*
X208458669Y-140858123D01*
X208477000Y-140765967D01*
X208477000Y-140672007D01*
X208458669Y-140579851D01*
X208422712Y-140493043D01*
X208377248Y-140425000D01*
X222825000Y-140425000D01*
X222825000Y-141625000D01*
X222826762Y-141638156D01*
X222830255Y-141647314D01*
X222835468Y-141655614D01*
X222842200Y-141662738D01*
X222850193Y-141668412D01*
X223900193Y-142268412D01*
X223912349Y-142273373D01*
X223922029Y-142274912D01*
X223931823Y-142274532D01*
X223941355Y-142272249D01*
X223950259Y-142268151D01*
X224975259Y-141668151D01*
X224985355Y-141660355D01*
X224991573Y-141652779D01*
X224996194Y-141644134D01*
X224999039Y-141634755D01*
X225000000Y-141625000D01*
X225000000Y-140425000D01*
X224998373Y-140412349D01*
X224994975Y-140403155D01*
X224989849Y-140394800D01*
X224983192Y-140387606D01*
X224975259Y-140381849D01*
X223950259Y-139781849D01*
X223938156Y-139776762D01*
X223928492Y-139775122D01*
X223918694Y-139775399D01*
X223909139Y-139777582D01*
X223900193Y-139781588D01*
X222850193Y-140381588D01*
X222839645Y-140389645D01*
X222833427Y-140397221D01*
X222828806Y-140405866D01*
X222825961Y-140415245D01*
X222825000Y-140425000D01*
X208377248Y-140425000D01*
X208370510Y-140414917D01*
X208304070Y-140348477D01*
X208225944Y-140296275D01*
X208139136Y-140260318D01*
X208046980Y-140241987D01*
X207953020Y-140241987D01*
X207884501Y-140255616D01*
X209090066Y-139050052D01*
X209110864Y-139058667D01*
X209203020Y-139076998D01*
X209296980Y-139076998D01*
X209389136Y-139058667D01*
X209475944Y-139022710D01*
X209554070Y-138970508D01*
X209620510Y-138904068D01*
X209672712Y-138825942D01*
X209708669Y-138739134D01*
X209727000Y-138646978D01*
X209727000Y-138553018D01*
X209708669Y-138460862D01*
X209672712Y-138374054D01*
X209620510Y-138295928D01*
X209554070Y-138229488D01*
X209475944Y-138177286D01*
X209389136Y-138141329D01*
X209296980Y-138122998D01*
X209203020Y-138122998D01*
X209110864Y-138141329D01*
X209024056Y-138177286D01*
X208945930Y-138229488D01*
X208879490Y-138295928D01*
X208827288Y-138374054D01*
X208791331Y-138460862D01*
X208773000Y-138553018D01*
X208773000Y-138646978D01*
X208779621Y-138680262D01*
X204921967Y-142537916D01*
X204846980Y-142523000D01*
X204753020Y-142523000D01*
X204660864Y-142541331D01*
X204574056Y-142577288D01*
X204495930Y-142629490D01*
X204429490Y-142695930D01*
X204377288Y-142774056D01*
X204341331Y-142860864D01*
X204323000Y-142953020D01*
X192350848Y-142953020D01*
X197749488Y-137554381D01*
X197825944Y-137522712D01*
X197904070Y-137470510D01*
X197970510Y-137404070D01*
X198022712Y-137325944D01*
X198058669Y-137239136D01*
X198077000Y-137146980D01*
X198077000Y-137053020D01*
X198058669Y-136960864D01*
X198027000Y-136884408D01*
X198027000Y-134308744D01*
X199117737Y-133218007D01*
X203363900Y-133218007D01*
X203363900Y-133311967D01*
X203382231Y-133404123D01*
X203418188Y-133490931D01*
X203470390Y-133569057D01*
X203536830Y-133635497D01*
X203614956Y-133687699D01*
X203701764Y-133723656D01*
X203793920Y-133741987D01*
X203887880Y-133741987D01*
X203980036Y-133723656D01*
X204066844Y-133687699D01*
X204144970Y-133635497D01*
X204211410Y-133569057D01*
X204263612Y-133490931D01*
X204299569Y-133404123D01*
X204317900Y-133311967D01*
X204317900Y-133218007D01*
X204302984Y-133143021D01*
X204659307Y-132786700D01*
X204744761Y-132822096D01*
X204836917Y-132840427D01*
X204930877Y-132840427D01*
X205023033Y-132822096D01*
X205109841Y-132786139D01*
X205187967Y-132733937D01*
X205254407Y-132667497D01*
X205306609Y-132589371D01*
X205342566Y-132502563D01*
X205360897Y-132410407D01*
X205360897Y-132316447D01*
X205345981Y-132241461D01*
X205346943Y-132240500D01*
X212587014Y-132240500D01*
X212629490Y-132304070D01*
X212695930Y-132370510D01*
X212774056Y-132422712D01*
X212860864Y-132458669D01*
X212953020Y-132477000D01*
X213046980Y-132477000D01*
X213139136Y-132458669D01*
X213225944Y-132422712D01*
X213304070Y-132370510D01*
X213370510Y-132304070D01*
X213422712Y-132225944D01*
X213458669Y-132139136D01*
X213477000Y-132046980D01*
X213477000Y-131953020D01*
X213458669Y-131860864D01*
X213422712Y-131774056D01*
X213370510Y-131695930D01*
X213304070Y-131629490D01*
X213225944Y-131577288D01*
X213139136Y-131541331D01*
X213046980Y-131523000D01*
X212953020Y-131523000D01*
X212860864Y-131541331D01*
X212774056Y-131577288D01*
X212695930Y-131629490D01*
X212629490Y-131695930D01*
X212587014Y-131759500D01*
X205259130Y-131759500D01*
X205247323Y-131758337D01*
X205235516Y-131759500D01*
X205235515Y-131759500D01*
X205200178Y-131762980D01*
X205154844Y-131776733D01*
X205135394Y-131787129D01*
X205113062Y-131799065D01*
X205085614Y-131821591D01*
X205076442Y-131829118D01*
X205068915Y-131838290D01*
X205005863Y-131901343D01*
X204930877Y-131886427D01*
X204836917Y-131886427D01*
X204744761Y-131904758D01*
X204657953Y-131940715D01*
X204579827Y-131992917D01*
X204513387Y-132059357D01*
X204461185Y-132137483D01*
X204425228Y-132224291D01*
X204406897Y-132316447D01*
X204406897Y-132358873D01*
X203962867Y-132802903D01*
X203887880Y-132787987D01*
X203793920Y-132787987D01*
X203701764Y-132806318D01*
X203614956Y-132842275D01*
X203536830Y-132894477D01*
X203470390Y-132960917D01*
X203418188Y-133039043D01*
X203382231Y-133125851D01*
X203363900Y-133218007D01*
X199117737Y-133218007D01*
X202982762Y-129352983D01*
X203059218Y-129321314D01*
X203137344Y-129269112D01*
X203203784Y-129202672D01*
X203255986Y-129124546D01*
X203287655Y-129048090D01*
X203477737Y-128858008D01*
X203554193Y-128826339D01*
X203632319Y-128774137D01*
X203698759Y-128707697D01*
X203750961Y-128629571D01*
X203786918Y-128542763D01*
X203805249Y-128450607D01*
X203805249Y-128356647D01*
X203786918Y-128264491D01*
X203750961Y-128177683D01*
X203698759Y-128099557D01*
X203632319Y-128033117D01*
X203554193Y-127980915D01*
X203467385Y-127944958D01*
X203375229Y-127926627D01*
X203281269Y-127926627D01*
X203189113Y-127944958D01*
X203102305Y-127980915D01*
X203024179Y-128033117D01*
X202957739Y-128099557D01*
X202905537Y-128177683D01*
X202873868Y-128254139D01*
X202683786Y-128444221D01*
X202607330Y-128475890D01*
X202529204Y-128528092D01*
X202462764Y-128594532D01*
X202410562Y-128672658D01*
X202378893Y-128749114D01*
X197312900Y-133815108D01*
X197296605Y-133828481D01*
X197283233Y-133844775D01*
X197283232Y-133844776D01*
X197243245Y-133893500D01*
X197222052Y-133933150D01*
X197203595Y-133967681D01*
X197179178Y-134048170D01*
X197173000Y-134110899D01*
X197173000Y-134110909D01*
X197170935Y-134131876D01*
X197173000Y-134152843D01*
X197173001Y-136884406D01*
X197145619Y-136950512D01*
X189250000Y-144846132D01*
X189250000Y-127000000D01*
X189249039Y-126990245D01*
X189246194Y-126980866D01*
X189241573Y-126972221D01*
X189235355Y-126964645D01*
X188035355Y-125764645D01*
X188027779Y-125758427D01*
X188019134Y-125753806D01*
X188009755Y-125750961D01*
X188000000Y-125750000D01*
X176075000Y-125750000D01*
X176075000Y-122753674D01*
X185925000Y-122753674D01*
X185925027Y-122753948D01*
X185925052Y-122757507D01*
X185925408Y-122760894D01*
X185925408Y-122764300D01*
X185925517Y-122765341D01*
X185936394Y-122862316D01*
X185937814Y-122868997D01*
X185939128Y-122875634D01*
X185939435Y-122876624D01*
X185939437Y-122876634D01*
X185939441Y-122876643D01*
X185968944Y-122969649D01*
X185971615Y-122975882D01*
X185974212Y-122982182D01*
X185974710Y-122983103D01*
X186021721Y-123068614D01*
X186025569Y-123074234D01*
X186029323Y-123079885D01*
X186029985Y-123080685D01*
X186029990Y-123080692D01*
X186029996Y-123080697D01*
X186092716Y-123155445D01*
X186097558Y-123160187D01*
X186102362Y-123165025D01*
X186103174Y-123165687D01*
X186179224Y-123226831D01*
X186184907Y-123230550D01*
X186190547Y-123234355D01*
X186191464Y-123234842D01*
X186191472Y-123234847D01*
X186191480Y-123234850D01*
X186277950Y-123280056D01*
X186284232Y-123282594D01*
X186290519Y-123285237D01*
X186291521Y-123285540D01*
X186385134Y-123313091D01*
X186391826Y-123314368D01*
X186398471Y-123315732D01*
X186399500Y-123315833D01*
X186399512Y-123315835D01*
X186399523Y-123315835D01*
X186496694Y-123324678D01*
X186503487Y-123324631D01*
X186510289Y-123324679D01*
X186511320Y-123324577D01*
X186511332Y-123324577D01*
X186511343Y-123324575D01*
X186608379Y-123314376D01*
X186615032Y-123313010D01*
X186621715Y-123311736D01*
X186622715Y-123311434D01*
X186622721Y-123311432D01*
X186715935Y-123282577D01*
X186722226Y-123279933D01*
X186728505Y-123277396D01*
X186729429Y-123276905D01*
X186815268Y-123230492D01*
X186820922Y-123226678D01*
X186826592Y-123222968D01*
X186827396Y-123222312D01*
X186827403Y-123222307D01*
X186827409Y-123222301D01*
X186902592Y-123160105D01*
X186907394Y-123155269D01*
X186912239Y-123150525D01*
X186912906Y-123149718D01*
X186974581Y-123074098D01*
X186978373Y-123068391D01*
X186982183Y-123062826D01*
X186982678Y-123061910D01*
X186982681Y-123061906D01*
X186982683Y-123061902D01*
X187028493Y-122975745D01*
X187031071Y-122969491D01*
X187033762Y-122963213D01*
X187034071Y-122962213D01*
X187062276Y-122868795D01*
X187063598Y-122862119D01*
X187065010Y-122855477D01*
X187065119Y-122854435D01*
X187074641Y-122757318D01*
X187074641Y-122757300D01*
X187074998Y-122753675D01*
X187074998Y-121584391D01*
X220234075Y-121584391D01*
X220240419Y-121656081D01*
X220328702Y-121780267D01*
X220439516Y-121884843D01*
X220568602Y-121965791D01*
X220711000Y-122020000D01*
X221261000Y-122020000D01*
X221261000Y-121474000D01*
X221669000Y-121474000D01*
X221669000Y-122020000D01*
X222219000Y-122020000D01*
X222361398Y-121965791D01*
X222490484Y-121884843D01*
X222601298Y-121780267D01*
X222689581Y-121656081D01*
X222695925Y-121584391D01*
X224664075Y-121584391D01*
X224692335Y-121676592D01*
X224784198Y-121796108D01*
X224897612Y-121895406D01*
X225028219Y-121970670D01*
X225171000Y-122019008D01*
X225320468Y-122038562D01*
X225441000Y-121970437D01*
X225441000Y-121474000D01*
X225849000Y-121474000D01*
X225849000Y-121970437D01*
X225969532Y-122038562D01*
X226119000Y-122019008D01*
X226261781Y-121970670D01*
X226392388Y-121895406D01*
X226505802Y-121796108D01*
X226597665Y-121676592D01*
X226625925Y-121584391D01*
X226601537Y-121474000D01*
X225849000Y-121474000D01*
X225441000Y-121474000D01*
X224688463Y-121474000D01*
X224664075Y-121584391D01*
X222695925Y-121584391D01*
X222671537Y-121474000D01*
X221669000Y-121474000D01*
X221261000Y-121474000D01*
X220258463Y-121474000D01*
X220234075Y-121584391D01*
X187074998Y-121584391D01*
X187074998Y-120955609D01*
X220234075Y-120955609D01*
X220258463Y-121066000D01*
X221261000Y-121066000D01*
X221261000Y-120520000D01*
X221669000Y-120520000D01*
X221669000Y-121066000D01*
X222671537Y-121066000D01*
X222695925Y-120955609D01*
X224664075Y-120955609D01*
X224688463Y-121066000D01*
X225441000Y-121066000D01*
X225441000Y-120569563D01*
X225849000Y-120569563D01*
X225849000Y-121066000D01*
X226601537Y-121066000D01*
X226625925Y-120955609D01*
X226597665Y-120863408D01*
X226505802Y-120743892D01*
X226392388Y-120644594D01*
X226261781Y-120569330D01*
X226119000Y-120520992D01*
X225969532Y-120501438D01*
X225849000Y-120569563D01*
X225441000Y-120569563D01*
X225320468Y-120501438D01*
X225171000Y-120520992D01*
X225028219Y-120569330D01*
X224897612Y-120644594D01*
X224784198Y-120743892D01*
X224692335Y-120863408D01*
X224664075Y-120955609D01*
X222695925Y-120955609D01*
X222689581Y-120883919D01*
X222601298Y-120759733D01*
X222490484Y-120655157D01*
X222361398Y-120574209D01*
X222219000Y-120520000D01*
X221669000Y-120520000D01*
X221261000Y-120520000D01*
X220711000Y-120520000D01*
X220568602Y-120574209D01*
X220439516Y-120655157D01*
X220328702Y-120759733D01*
X220240419Y-120883919D01*
X220234075Y-120955609D01*
X187074998Y-120955609D01*
X187074998Y-119353020D01*
X218498000Y-119353020D01*
X218498000Y-119446980D01*
X218516331Y-119539136D01*
X218552288Y-119625944D01*
X218604490Y-119704070D01*
X218670930Y-119770510D01*
X218749056Y-119822712D01*
X218835864Y-119858669D01*
X218928020Y-119877000D01*
X219021980Y-119877000D01*
X219114136Y-119858669D01*
X219190592Y-119827000D01*
X219378297Y-119827000D01*
X219399264Y-119829065D01*
X219420231Y-119827000D01*
X219420242Y-119827000D01*
X219482971Y-119820822D01*
X219563460Y-119796405D01*
X219574400Y-119790557D01*
X221493000Y-119790557D01*
X221493000Y-119889443D01*
X221512292Y-119986428D01*
X221550133Y-120077786D01*
X221605071Y-120160006D01*
X221674994Y-120229929D01*
X221757214Y-120284867D01*
X221848572Y-120322708D01*
X221945557Y-120342000D01*
X222044443Y-120342000D01*
X222141428Y-120322708D01*
X222232786Y-120284867D01*
X222315006Y-120229929D01*
X222384929Y-120160006D01*
X222439867Y-120077786D01*
X222477708Y-119986428D01*
X222497000Y-119889443D01*
X222497000Y-119790557D01*
X222477708Y-119693572D01*
X222439867Y-119602214D01*
X222384929Y-119519994D01*
X222315006Y-119450071D01*
X222232786Y-119395133D01*
X222141428Y-119357292D01*
X222044443Y-119338000D01*
X221945557Y-119338000D01*
X221848572Y-119357292D01*
X221757214Y-119395133D01*
X221674994Y-119450071D01*
X221605071Y-119519994D01*
X221550133Y-119602214D01*
X221512292Y-119693572D01*
X221493000Y-119790557D01*
X219574400Y-119790557D01*
X219637640Y-119756755D01*
X219702659Y-119703395D01*
X219716032Y-119687100D01*
X220212106Y-119191027D01*
X220228395Y-119177659D01*
X220241764Y-119161369D01*
X220241768Y-119161365D01*
X220281755Y-119112641D01*
X220321404Y-119038461D01*
X220321405Y-119038460D01*
X220345822Y-118957971D01*
X220352000Y-118895242D01*
X220352000Y-118895231D01*
X220354065Y-118874264D01*
X220352000Y-118853297D01*
X220352000Y-115395967D01*
X220354065Y-115375000D01*
X220352000Y-115354033D01*
X220352000Y-115354022D01*
X220345822Y-115291293D01*
X220321405Y-115210804D01*
X220302948Y-115176273D01*
X220281755Y-115136623D01*
X220241768Y-115087899D01*
X220241764Y-115087895D01*
X220228395Y-115071605D01*
X220212105Y-115058236D01*
X219579382Y-114425513D01*
X219547712Y-114349056D01*
X219495510Y-114270930D01*
X219429070Y-114204490D01*
X219350944Y-114152288D01*
X219264136Y-114116331D01*
X219171980Y-114098000D01*
X219078020Y-114098000D01*
X218985864Y-114116331D01*
X218899056Y-114152288D01*
X218820930Y-114204490D01*
X218754490Y-114270930D01*
X218702288Y-114349056D01*
X218666331Y-114435864D01*
X218648000Y-114528020D01*
X218648000Y-114621980D01*
X218666331Y-114714136D01*
X218702288Y-114800944D01*
X218754490Y-114879070D01*
X218820930Y-114945510D01*
X218899056Y-114997712D01*
X218975513Y-115029382D01*
X219498001Y-115551870D01*
X219498001Y-115902402D01*
X219465553Y-115824066D01*
X219413351Y-115745940D01*
X219346911Y-115679500D01*
X219268785Y-115627298D01*
X219181977Y-115591341D01*
X219089821Y-115573010D01*
X218995861Y-115573010D01*
X218903705Y-115591341D01*
X218816897Y-115627298D01*
X218738771Y-115679500D01*
X218672331Y-115745940D01*
X218620129Y-115824066D01*
X218584172Y-115910874D01*
X218565841Y-116003030D01*
X218565841Y-116096990D01*
X218584172Y-116189146D01*
X218620129Y-116275954D01*
X218672331Y-116354080D01*
X218738771Y-116420520D01*
X218765841Y-116438608D01*
X218765842Y-116874998D01*
X218721240Y-116904800D01*
X218654800Y-116971240D01*
X218602598Y-117049366D01*
X218566641Y-117136174D01*
X218548310Y-117228330D01*
X218548310Y-117322290D01*
X218566641Y-117414446D01*
X218602598Y-117501254D01*
X218654800Y-117579380D01*
X218721240Y-117645820D01*
X218799366Y-117698022D01*
X218886174Y-117733979D01*
X218978330Y-117752310D01*
X219072290Y-117752310D01*
X219164446Y-117733979D01*
X219251254Y-117698022D01*
X219329380Y-117645820D01*
X219395820Y-117579380D01*
X219448022Y-117501254D01*
X219483979Y-117414446D01*
X219498000Y-117343956D01*
X219498000Y-118697395D01*
X219222396Y-118973000D01*
X219190592Y-118973000D01*
X219114136Y-118941331D01*
X219021980Y-118923000D01*
X218928020Y-118923000D01*
X218835864Y-118941331D01*
X218749056Y-118977288D01*
X218670930Y-119029490D01*
X218604490Y-119095930D01*
X218552288Y-119174056D01*
X218516331Y-119260864D01*
X218498000Y-119353020D01*
X187074998Y-119353020D01*
X187075000Y-112996326D01*
X187074973Y-112996052D01*
X187074948Y-112992493D01*
X187074592Y-112989106D01*
X187074592Y-112985700D01*
X187074483Y-112984659D01*
X187063606Y-112887684D01*
X187062185Y-112880996D01*
X187060872Y-112874367D01*
X187060566Y-112873379D01*
X187060563Y-112873366D01*
X187060558Y-112873354D01*
X187031056Y-112780351D01*
X187028373Y-112774090D01*
X187025788Y-112767818D01*
X187025290Y-112766897D01*
X186978279Y-112681385D01*
X186974424Y-112675755D01*
X186970677Y-112670115D01*
X186970013Y-112669313D01*
X186970009Y-112669307D01*
X186970004Y-112669302D01*
X186907284Y-112594555D01*
X186902423Y-112589794D01*
X186897637Y-112584975D01*
X186896826Y-112584313D01*
X186820776Y-112523168D01*
X186815067Y-112519432D01*
X186809453Y-112515645D01*
X186808532Y-112515155D01*
X186808524Y-112515151D01*
X186722050Y-112469944D01*
X186715745Y-112467396D01*
X186709481Y-112464763D01*
X186708482Y-112464461D01*
X186708476Y-112464459D01*
X186614866Y-112436908D01*
X186608151Y-112435627D01*
X186601530Y-112434268D01*
X186600497Y-112434167D01*
X186600487Y-112434165D01*
X186600478Y-112434165D01*
X186503306Y-112425322D01*
X186496514Y-112425369D01*
X186489712Y-112425321D01*
X186488681Y-112425423D01*
X186488669Y-112425423D01*
X186488658Y-112425425D01*
X186391621Y-112435624D01*
X186384974Y-112436988D01*
X186378285Y-112438264D01*
X186377283Y-112438567D01*
X186284065Y-112467423D01*
X186277774Y-112470067D01*
X186271495Y-112472604D01*
X186270580Y-112473091D01*
X186270571Y-112473095D01*
X186270564Y-112473100D01*
X186184732Y-112519508D01*
X186179078Y-112523322D01*
X186173408Y-112527032D01*
X186172604Y-112527688D01*
X186172597Y-112527693D01*
X186172591Y-112527699D01*
X186097408Y-112589896D01*
X186092642Y-112594696D01*
X186087761Y-112599475D01*
X186087094Y-112600282D01*
X186025419Y-112675903D01*
X186021639Y-112681592D01*
X186017817Y-112687174D01*
X186017323Y-112688087D01*
X186017318Y-112688095D01*
X186017315Y-112688103D01*
X185971507Y-112774255D01*
X185968929Y-112780509D01*
X185966238Y-112786787D01*
X185965929Y-112787787D01*
X185937724Y-112881205D01*
X185936402Y-112887881D01*
X185934990Y-112894523D01*
X185934881Y-112895564D01*
X185925359Y-112992682D01*
X185925359Y-112992700D01*
X185925002Y-112996325D01*
X185925000Y-122753674D01*
X176075000Y-122753674D01*
X176075000Y-112746325D01*
X176074988Y-112746201D01*
X176074982Y-112744506D01*
X176074651Y-112741246D01*
X176074674Y-112737966D01*
X176074571Y-112736924D01*
X176059270Y-112591352D01*
X176057904Y-112584699D01*
X176056630Y-112578016D01*
X176056327Y-112577014D01*
X176050000Y-112556575D01*
X176050000Y-108129187D01*
X176069935Y-108028968D01*
X176126706Y-107944004D01*
X177170676Y-106900034D01*
X186340240Y-106900034D01*
X186340240Y-107031966D01*
X186365978Y-107161362D01*
X186416466Y-107283250D01*
X186489763Y-107392947D01*
X186583053Y-107486237D01*
X186692750Y-107559534D01*
X186814638Y-107610022D01*
X186944034Y-107635760D01*
X187075966Y-107635760D01*
X187205362Y-107610022D01*
X187327250Y-107559534D01*
X187436947Y-107486237D01*
X187530237Y-107392947D01*
X187603534Y-107283250D01*
X187654022Y-107161362D01*
X187679760Y-107031966D01*
X187679760Y-106900034D01*
X187654022Y-106770638D01*
X187603534Y-106648750D01*
X187530237Y-106539053D01*
X187520100Y-106528916D01*
X187710570Y-106528916D01*
X187710570Y-106641084D01*
X187732453Y-106751097D01*
X187775378Y-106854726D01*
X187837695Y-106947990D01*
X187917010Y-107027305D01*
X188010274Y-107089622D01*
X188113903Y-107132547D01*
X188223916Y-107154430D01*
X188336084Y-107154430D01*
X188446097Y-107132547D01*
X188549726Y-107089622D01*
X188642990Y-107027305D01*
X188722305Y-106947990D01*
X188784622Y-106854726D01*
X188827547Y-106751097D01*
X188849430Y-106641084D01*
X188849430Y-106528916D01*
X188980570Y-106528916D01*
X188980570Y-106641084D01*
X189002453Y-106751097D01*
X189045378Y-106854726D01*
X189107695Y-106947990D01*
X189187010Y-107027305D01*
X189280274Y-107089622D01*
X189383903Y-107132547D01*
X189493916Y-107154430D01*
X189606084Y-107154430D01*
X189716097Y-107132547D01*
X189819726Y-107089622D01*
X189912990Y-107027305D01*
X189925089Y-107015206D01*
X195037916Y-112128034D01*
X195023000Y-112203020D01*
X195023000Y-112296980D01*
X195041331Y-112389136D01*
X195077288Y-112475944D01*
X195129490Y-112554070D01*
X195195930Y-112620510D01*
X195274056Y-112672712D01*
X195360864Y-112708669D01*
X195453020Y-112727000D01*
X195530078Y-112727000D01*
X195526734Y-112733256D01*
X195513777Y-112775968D01*
X195512981Y-112778591D01*
X195508337Y-112825736D01*
X195509451Y-112837047D01*
X195445930Y-112879490D01*
X195379490Y-112945930D01*
X195327288Y-113024056D01*
X195291331Y-113110864D01*
X195273000Y-113203020D01*
X195273000Y-113296980D01*
X195291331Y-113389136D01*
X195327288Y-113475944D01*
X195379490Y-113554070D01*
X195445930Y-113620510D01*
X195524056Y-113672712D01*
X195610864Y-113708669D01*
X195703020Y-113727000D01*
X195796980Y-113727000D01*
X195889136Y-113708669D01*
X195975944Y-113672712D01*
X196054070Y-113620510D01*
X196120510Y-113554070D01*
X196172712Y-113475944D01*
X196208669Y-113389136D01*
X196227000Y-113296980D01*
X196227000Y-113203020D01*
X196208669Y-113110864D01*
X196172712Y-113024056D01*
X196120510Y-112945930D01*
X196054070Y-112879490D01*
X196043456Y-112872398D01*
X196161709Y-112754146D01*
X196170882Y-112746618D01*
X196183633Y-112731080D01*
X196200935Y-112709998D01*
X196215421Y-112682895D01*
X196223267Y-112668216D01*
X196237020Y-112622882D01*
X196240500Y-112587545D01*
X196240500Y-112587544D01*
X196241663Y-112575737D01*
X196240500Y-112563930D01*
X196240500Y-112011806D01*
X196241663Y-111999999D01*
X196240500Y-111988191D01*
X196237020Y-111952854D01*
X196223267Y-111907520D01*
X196201866Y-111867480D01*
X196200935Y-111865738D01*
X196178409Y-111838290D01*
X196170882Y-111829118D01*
X196161710Y-111821591D01*
X191272640Y-106932523D01*
X191324622Y-106854726D01*
X191367547Y-106751097D01*
X191389430Y-106641084D01*
X191389430Y-106528916D01*
X191367547Y-106418903D01*
X191324622Y-106315274D01*
X191262305Y-106222010D01*
X191182990Y-106142695D01*
X191089726Y-106080378D01*
X190986097Y-106037453D01*
X190876084Y-106015570D01*
X190763916Y-106015570D01*
X190653903Y-106037453D01*
X190550274Y-106080378D01*
X190457010Y-106142695D01*
X190377695Y-106222010D01*
X190315378Y-106315274D01*
X190272453Y-106418903D01*
X190250570Y-106528916D01*
X190250570Y-106641084D01*
X190255379Y-106665262D01*
X190119430Y-106529313D01*
X190119430Y-106528916D01*
X190097547Y-106418903D01*
X190054622Y-106315274D01*
X189992305Y-106222010D01*
X189912990Y-106142695D01*
X189819726Y-106080378D01*
X189716097Y-106037453D01*
X189606084Y-106015570D01*
X189493916Y-106015570D01*
X189383903Y-106037453D01*
X189280274Y-106080378D01*
X189187010Y-106142695D01*
X189107695Y-106222010D01*
X189045378Y-106315274D01*
X189002453Y-106418903D01*
X188980570Y-106528916D01*
X188849430Y-106528916D01*
X188827547Y-106418903D01*
X188784622Y-106315274D01*
X188722305Y-106222010D01*
X188642990Y-106142695D01*
X188549726Y-106080378D01*
X188446097Y-106037453D01*
X188336084Y-106015570D01*
X188223916Y-106015570D01*
X188113903Y-106037453D01*
X188010274Y-106080378D01*
X187917010Y-106142695D01*
X187837695Y-106222010D01*
X187775378Y-106315274D01*
X187732453Y-106418903D01*
X187710570Y-106528916D01*
X187520100Y-106528916D01*
X187436947Y-106445763D01*
X187327250Y-106372466D01*
X187205362Y-106321978D01*
X187075966Y-106296240D01*
X186944034Y-106296240D01*
X186814638Y-106321978D01*
X186692750Y-106372466D01*
X186583053Y-106445763D01*
X186489763Y-106539053D01*
X186416466Y-106648750D01*
X186365978Y-106770638D01*
X186340240Y-106900034D01*
X177170676Y-106900034D01*
X178225250Y-105845460D01*
X188038039Y-105845460D01*
X188085046Y-105930396D01*
X188208850Y-105956605D01*
X188335388Y-105958158D01*
X188459798Y-105934995D01*
X188474954Y-105930396D01*
X188521961Y-105845460D01*
X188280000Y-105603500D01*
X188038039Y-105845460D01*
X178225250Y-105845460D01*
X179202676Y-104868034D01*
X186340240Y-104868034D01*
X186340240Y-104999966D01*
X186365978Y-105129362D01*
X186416466Y-105251250D01*
X186489763Y-105360947D01*
X186583053Y-105454237D01*
X186692750Y-105527534D01*
X186814638Y-105578022D01*
X186944034Y-105603760D01*
X187075966Y-105603760D01*
X187205362Y-105578022D01*
X187327250Y-105527534D01*
X187436947Y-105454237D01*
X187520796Y-105370388D01*
X187636842Y-105370388D01*
X187660005Y-105494798D01*
X187664604Y-105509954D01*
X187749540Y-105556961D01*
X187991500Y-105315000D01*
X188568500Y-105315000D01*
X188810460Y-105556961D01*
X188895396Y-105509954D01*
X188921605Y-105386150D01*
X188923158Y-105259612D01*
X188923029Y-105258916D01*
X188980570Y-105258916D01*
X188980570Y-105371084D01*
X189002453Y-105481097D01*
X189045378Y-105584726D01*
X189107695Y-105677990D01*
X189187010Y-105757305D01*
X189280274Y-105819622D01*
X189383903Y-105862547D01*
X189493916Y-105884430D01*
X189606084Y-105884430D01*
X189716097Y-105862547D01*
X189819726Y-105819622D01*
X189912990Y-105757305D01*
X189992305Y-105677990D01*
X190054622Y-105584726D01*
X190097547Y-105481097D01*
X190119430Y-105371084D01*
X190119430Y-105258916D01*
X190250570Y-105258916D01*
X190250570Y-105371084D01*
X190272453Y-105481097D01*
X190315378Y-105584726D01*
X190377695Y-105677990D01*
X190457010Y-105757305D01*
X190550274Y-105819622D01*
X190653903Y-105862547D01*
X190763916Y-105884430D01*
X190876084Y-105884430D01*
X190878703Y-105883909D01*
X191418970Y-105883909D01*
X191418970Y-106016091D01*
X191444757Y-106145732D01*
X191495341Y-106267852D01*
X191568777Y-106377757D01*
X191662243Y-106471223D01*
X191772148Y-106544659D01*
X191894268Y-106595243D01*
X192023909Y-106621030D01*
X192156091Y-106621030D01*
X192285732Y-106595243D01*
X192407852Y-106544659D01*
X192517757Y-106471223D01*
X192611223Y-106377757D01*
X192684659Y-106267852D01*
X192735243Y-106145732D01*
X192761030Y-106016091D01*
X192761030Y-105883909D01*
X192735243Y-105754268D01*
X192684659Y-105632148D01*
X192611223Y-105522243D01*
X192517757Y-105428777D01*
X192407852Y-105355341D01*
X192285732Y-105304757D01*
X192156091Y-105278970D01*
X192023909Y-105278970D01*
X191894268Y-105304757D01*
X191772148Y-105355341D01*
X191662243Y-105428777D01*
X191568777Y-105522243D01*
X191495341Y-105632148D01*
X191444757Y-105754268D01*
X191418970Y-105883909D01*
X190878703Y-105883909D01*
X190986097Y-105862547D01*
X191089726Y-105819622D01*
X191182990Y-105757305D01*
X191262305Y-105677990D01*
X191324622Y-105584726D01*
X191367547Y-105481097D01*
X191389430Y-105371084D01*
X191389430Y-105258916D01*
X191370365Y-105163071D01*
X192322954Y-105163071D01*
X199159501Y-111999619D01*
X199159500Y-113987014D01*
X199095930Y-114029490D01*
X199029490Y-114095930D01*
X198977288Y-114174056D01*
X198941331Y-114260864D01*
X198923000Y-114353020D01*
X198923000Y-114446980D01*
X198941331Y-114539136D01*
X198977288Y-114625944D01*
X199029490Y-114704070D01*
X199095930Y-114770510D01*
X199174056Y-114822712D01*
X199260864Y-114858669D01*
X199353020Y-114877000D01*
X199446980Y-114877000D01*
X199539136Y-114858669D01*
X199625944Y-114822712D01*
X199704070Y-114770510D01*
X199770510Y-114704070D01*
X199822712Y-114625944D01*
X199858669Y-114539136D01*
X199877000Y-114446980D01*
X199877000Y-114353020D01*
X199858669Y-114260864D01*
X199822712Y-114174056D01*
X199770510Y-114095930D01*
X199704070Y-114029490D01*
X199640500Y-113987014D01*
X199640500Y-112753020D01*
X205073000Y-112753020D01*
X205073000Y-112846980D01*
X205091331Y-112939136D01*
X205127288Y-113025944D01*
X205179490Y-113104070D01*
X205245930Y-113170510D01*
X205324056Y-113222712D01*
X205410864Y-113258669D01*
X205503020Y-113277000D01*
X205596980Y-113277000D01*
X205671967Y-113262084D01*
X206659500Y-114249619D01*
X206659501Y-115987013D01*
X206595930Y-116029490D01*
X206529490Y-116095930D01*
X206477288Y-116174056D01*
X206441331Y-116260864D01*
X206423000Y-116353020D01*
X206423000Y-116446980D01*
X206441331Y-116539136D01*
X206477288Y-116625944D01*
X206529490Y-116704070D01*
X206595930Y-116770510D01*
X206674056Y-116822712D01*
X206760864Y-116858669D01*
X206853020Y-116877000D01*
X206946980Y-116877000D01*
X207039136Y-116858669D01*
X207125944Y-116822712D01*
X207204070Y-116770510D01*
X207270510Y-116704070D01*
X207322712Y-116625944D01*
X207358669Y-116539136D01*
X207377000Y-116446980D01*
X207377000Y-116353020D01*
X207358669Y-116260864D01*
X207322712Y-116174056D01*
X207270510Y-116095930D01*
X207204070Y-116029490D01*
X207140500Y-115987014D01*
X207140500Y-114161806D01*
X207141663Y-114149999D01*
X207138347Y-114116331D01*
X207137020Y-114102854D01*
X207123267Y-114057520D01*
X207101866Y-114017480D01*
X207100935Y-114015738D01*
X207078409Y-113988290D01*
X207070882Y-113979118D01*
X207061710Y-113971591D01*
X207043139Y-113953020D01*
X210473000Y-113953020D01*
X210473000Y-114046980D01*
X210491331Y-114139136D01*
X210527288Y-114225944D01*
X210579490Y-114304070D01*
X210645930Y-114370510D01*
X210724056Y-114422712D01*
X210810864Y-114458669D01*
X210903020Y-114477000D01*
X210996980Y-114477000D01*
X211089136Y-114458669D01*
X211175944Y-114422712D01*
X211254070Y-114370510D01*
X211320510Y-114304070D01*
X211372712Y-114225944D01*
X211408669Y-114139136D01*
X211427000Y-114046980D01*
X211427000Y-114010557D01*
X221493000Y-114010557D01*
X221493000Y-114109443D01*
X221512292Y-114206428D01*
X221550133Y-114297786D01*
X221605071Y-114380006D01*
X221674994Y-114449929D01*
X221757214Y-114504867D01*
X221848572Y-114542708D01*
X221945557Y-114562000D01*
X222044443Y-114562000D01*
X222141428Y-114542708D01*
X222232786Y-114504867D01*
X222315006Y-114449929D01*
X222384929Y-114380006D01*
X222439867Y-114297786D01*
X222477708Y-114206428D01*
X222497000Y-114109443D01*
X222497000Y-114010557D01*
X222477708Y-113913572D01*
X222439867Y-113822214D01*
X222384929Y-113739994D01*
X222315006Y-113670071D01*
X222232786Y-113615133D01*
X222141428Y-113577292D01*
X222044443Y-113558000D01*
X221945557Y-113558000D01*
X221848572Y-113577292D01*
X221757214Y-113615133D01*
X221674994Y-113670071D01*
X221605071Y-113739994D01*
X221550133Y-113822214D01*
X221512292Y-113913572D01*
X221493000Y-114010557D01*
X211427000Y-114010557D01*
X211427000Y-113953020D01*
X211408669Y-113860864D01*
X211372712Y-113774056D01*
X211320510Y-113695930D01*
X211265500Y-113640920D01*
X211265500Y-112944391D01*
X220234075Y-112944391D01*
X220240419Y-113016081D01*
X220328702Y-113140267D01*
X220439516Y-113244843D01*
X220568602Y-113325791D01*
X220711000Y-113380000D01*
X221261000Y-113380000D01*
X221261000Y-112834000D01*
X221669000Y-112834000D01*
X221669000Y-113380000D01*
X222219000Y-113380000D01*
X222361398Y-113325791D01*
X222490484Y-113244843D01*
X222601298Y-113140267D01*
X222689581Y-113016081D01*
X222695925Y-112944391D01*
X224664075Y-112944391D01*
X224692335Y-113036592D01*
X224784198Y-113156108D01*
X224897612Y-113255406D01*
X225028219Y-113330670D01*
X225171000Y-113379008D01*
X225320468Y-113398562D01*
X225441000Y-113330437D01*
X225441000Y-112834000D01*
X225849000Y-112834000D01*
X225849000Y-113330437D01*
X225969532Y-113398562D01*
X226119000Y-113379008D01*
X226261781Y-113330670D01*
X226392388Y-113255406D01*
X226505802Y-113156108D01*
X226597665Y-113036592D01*
X226625925Y-112944391D01*
X226601537Y-112834000D01*
X225849000Y-112834000D01*
X225441000Y-112834000D01*
X224688463Y-112834000D01*
X224664075Y-112944391D01*
X222695925Y-112944391D01*
X222671537Y-112834000D01*
X221669000Y-112834000D01*
X221261000Y-112834000D01*
X220258463Y-112834000D01*
X220234075Y-112944391D01*
X211265500Y-112944391D01*
X211265500Y-112315609D01*
X220234075Y-112315609D01*
X220258463Y-112426000D01*
X221261000Y-112426000D01*
X221261000Y-111880000D01*
X221669000Y-111880000D01*
X221669000Y-112426000D01*
X222671537Y-112426000D01*
X222695925Y-112315609D01*
X224664075Y-112315609D01*
X224688463Y-112426000D01*
X225441000Y-112426000D01*
X225441000Y-111929563D01*
X225849000Y-111929563D01*
X225849000Y-112426000D01*
X226601537Y-112426000D01*
X226625925Y-112315609D01*
X226597665Y-112223408D01*
X226505802Y-112103892D01*
X226392388Y-112004594D01*
X226261781Y-111929330D01*
X226119000Y-111880992D01*
X225969532Y-111861438D01*
X225849000Y-111929563D01*
X225441000Y-111929563D01*
X225320468Y-111861438D01*
X225171000Y-111880992D01*
X225028219Y-111929330D01*
X224897612Y-112004594D01*
X224784198Y-112103892D01*
X224692335Y-112223408D01*
X224664075Y-112315609D01*
X222695925Y-112315609D01*
X222689581Y-112243919D01*
X222601298Y-112119733D01*
X222490484Y-112015157D01*
X222361398Y-111934209D01*
X222219000Y-111880000D01*
X221669000Y-111880000D01*
X221261000Y-111880000D01*
X220711000Y-111880000D01*
X220568602Y-111934209D01*
X220439516Y-112015157D01*
X220328702Y-112119733D01*
X220240419Y-112243919D01*
X220234075Y-112315609D01*
X211265500Y-112315609D01*
X211265500Y-111874617D01*
X213278034Y-109862084D01*
X213353020Y-109877000D01*
X213446980Y-109877000D01*
X213539136Y-109858669D01*
X213625944Y-109822712D01*
X213704070Y-109770510D01*
X213770510Y-109704070D01*
X213822712Y-109625944D01*
X213858669Y-109539136D01*
X213877000Y-109446980D01*
X213877000Y-109353020D01*
X213858669Y-109260864D01*
X213822712Y-109174056D01*
X213770510Y-109095930D01*
X213704070Y-109029490D01*
X213625944Y-108977288D01*
X213539136Y-108941331D01*
X213446980Y-108923000D01*
X213353020Y-108923000D01*
X213260864Y-108941331D01*
X213174056Y-108977288D01*
X213095930Y-109029490D01*
X213029490Y-109095930D01*
X212977288Y-109174056D01*
X212941331Y-109260864D01*
X212923000Y-109353020D01*
X212923000Y-109446980D01*
X212937916Y-109521966D01*
X210863301Y-111596582D01*
X210854118Y-111604118D01*
X210824065Y-111640739D01*
X210801733Y-111682521D01*
X210787980Y-111727855D01*
X210785134Y-111756755D01*
X210783337Y-111775000D01*
X210784500Y-111786807D01*
X210784501Y-113552251D01*
X210724056Y-113577288D01*
X210645930Y-113629490D01*
X210579490Y-113695930D01*
X210527288Y-113774056D01*
X210491331Y-113860864D01*
X210473000Y-113953020D01*
X207043139Y-113953020D01*
X206012084Y-112921967D01*
X206027000Y-112846980D01*
X206027000Y-112753020D01*
X206008669Y-112660864D01*
X205972712Y-112574056D01*
X205920510Y-112495930D01*
X205854070Y-112429490D01*
X205775944Y-112377288D01*
X205689136Y-112341331D01*
X205596980Y-112323000D01*
X205503020Y-112323000D01*
X205410864Y-112341331D01*
X205324056Y-112377288D01*
X205245930Y-112429490D01*
X205179490Y-112495930D01*
X205127288Y-112574056D01*
X205091331Y-112660864D01*
X205073000Y-112753020D01*
X199640500Y-112753020D01*
X199640500Y-111911807D01*
X199641663Y-111900000D01*
X199639643Y-111879490D01*
X199637020Y-111852854D01*
X199623267Y-111807520D01*
X199623267Y-111807519D01*
X199600935Y-111765739D01*
X199598671Y-111762980D01*
X199570882Y-111729118D01*
X199561704Y-111721586D01*
X197393138Y-109553020D01*
X206123000Y-109553020D01*
X206123000Y-109646980D01*
X206141331Y-109739136D01*
X206177288Y-109825944D01*
X206229490Y-109904070D01*
X206295930Y-109970510D01*
X206374056Y-110022712D01*
X206460864Y-110058669D01*
X206553020Y-110077000D01*
X206646980Y-110077000D01*
X206739136Y-110058669D01*
X206825944Y-110022712D01*
X206904070Y-109970510D01*
X206970510Y-109904070D01*
X207022712Y-109825944D01*
X207054382Y-109749486D01*
X207349487Y-109454382D01*
X207425944Y-109422712D01*
X207504070Y-109370510D01*
X207570510Y-109304070D01*
X207622712Y-109225944D01*
X207654381Y-109149487D01*
X208386692Y-108417176D01*
X214159069Y-108417176D01*
X214159069Y-108582824D01*
X214191385Y-108745291D01*
X214254777Y-108898330D01*
X214346806Y-109036062D01*
X214463938Y-109153194D01*
X214601670Y-109245223D01*
X214754709Y-109308615D01*
X214917176Y-109340931D01*
X215082824Y-109340931D01*
X215245291Y-109308615D01*
X215398330Y-109245223D01*
X215536062Y-109153194D01*
X215653194Y-109036062D01*
X215745223Y-108898330D01*
X215808615Y-108745291D01*
X215840931Y-108582824D01*
X215840931Y-108417176D01*
X215808615Y-108254709D01*
X215745223Y-108101670D01*
X215653194Y-107963938D01*
X215536062Y-107846806D01*
X215398330Y-107754777D01*
X215245291Y-107691385D01*
X215082824Y-107659069D01*
X214917176Y-107659069D01*
X214754709Y-107691385D01*
X214601670Y-107754777D01*
X214463938Y-107846806D01*
X214346806Y-107963938D01*
X214254777Y-108101670D01*
X214191385Y-108254709D01*
X214159069Y-108417176D01*
X208386692Y-108417176D01*
X209376870Y-107427000D01*
X216023132Y-107427000D01*
X220283236Y-111687105D01*
X220296605Y-111703395D01*
X220312895Y-111716764D01*
X220312899Y-111716768D01*
X220361623Y-111756756D01*
X220418538Y-111787176D01*
X220435804Y-111796405D01*
X220516293Y-111820822D01*
X220579022Y-111827000D01*
X220579033Y-111827000D01*
X220600000Y-111829065D01*
X220620967Y-111827000D01*
X220984408Y-111827000D01*
X221060864Y-111858669D01*
X221153020Y-111877000D01*
X221246980Y-111877000D01*
X221339136Y-111858669D01*
X221415592Y-111827000D01*
X221784408Y-111827000D01*
X221860864Y-111858669D01*
X221953020Y-111877000D01*
X222046980Y-111877000D01*
X222139136Y-111858669D01*
X222225944Y-111822712D01*
X222304070Y-111770510D01*
X222370510Y-111704070D01*
X222422712Y-111625944D01*
X222458669Y-111539136D01*
X222477000Y-111446980D01*
X222477000Y-111353020D01*
X222458669Y-111260864D01*
X222422712Y-111174056D01*
X222370510Y-111095930D01*
X222304070Y-111029490D01*
X222225944Y-110977288D01*
X222139136Y-110941331D01*
X222046980Y-110923000D01*
X221953020Y-110923000D01*
X221860864Y-110941331D01*
X221784408Y-110973000D01*
X221415592Y-110973000D01*
X221339136Y-110941331D01*
X221246980Y-110923000D01*
X221153020Y-110923000D01*
X221060864Y-110941331D01*
X220984408Y-110973000D01*
X220776869Y-110973000D01*
X219869937Y-110066068D01*
X219899065Y-110085531D01*
X220245207Y-110228907D01*
X220612669Y-110302000D01*
X220987331Y-110302000D01*
X221354793Y-110228907D01*
X221700935Y-110085531D01*
X222012454Y-109877380D01*
X222277380Y-109612454D01*
X222485531Y-109300935D01*
X222628907Y-108954793D01*
X222702000Y-108587331D01*
X222702000Y-108212669D01*
X222628907Y-107845207D01*
X222485531Y-107499065D01*
X222277380Y-107187546D01*
X222012454Y-106922620D01*
X221700935Y-106714469D01*
X221354793Y-106571093D01*
X220987331Y-106498000D01*
X220612669Y-106498000D01*
X220245207Y-106571093D01*
X219899065Y-106714469D01*
X219587546Y-106922620D01*
X219322620Y-107187546D01*
X219114469Y-107499065D01*
X218971093Y-107845207D01*
X218898000Y-108212669D01*
X218898000Y-108587331D01*
X218971093Y-108954793D01*
X219114469Y-109300935D01*
X219133932Y-109330064D01*
X216516768Y-106712900D01*
X216503395Y-106696605D01*
X216438376Y-106643245D01*
X216364196Y-106603595D01*
X216283707Y-106579178D01*
X216220978Y-106573000D01*
X216220967Y-106573000D01*
X216200000Y-106570935D01*
X216179033Y-106573000D01*
X209220964Y-106573000D01*
X209199999Y-106570935D01*
X209179034Y-106573000D01*
X209179022Y-106573000D01*
X209116293Y-106579178D01*
X209035804Y-106603595D01*
X209006862Y-106619065D01*
X208961623Y-106643245D01*
X208912898Y-106683232D01*
X208912889Y-106683241D01*
X208896605Y-106696605D01*
X208883241Y-106712889D01*
X207050513Y-108545619D01*
X206974056Y-108577288D01*
X206895930Y-108629490D01*
X206829490Y-108695930D01*
X206777288Y-108774056D01*
X206745618Y-108850513D01*
X206450514Y-109145618D01*
X206374056Y-109177288D01*
X206295930Y-109229490D01*
X206229490Y-109295930D01*
X206177288Y-109374056D01*
X206141331Y-109460864D01*
X206123000Y-109553020D01*
X197393138Y-109553020D01*
X192600989Y-104760872D01*
X192593453Y-104751689D01*
X192556832Y-104721636D01*
X192515051Y-104699304D01*
X192469717Y-104685551D01*
X192434380Y-104682071D01*
X192434378Y-104682071D01*
X192422571Y-104680908D01*
X192410764Y-104682071D01*
X191224235Y-104682071D01*
X191212428Y-104680908D01*
X191200621Y-104682071D01*
X191200620Y-104682071D01*
X191165283Y-104685551D01*
X191119949Y-104699304D01*
X191100499Y-104709700D01*
X191078167Y-104721636D01*
X191057450Y-104738638D01*
X191041547Y-104751689D01*
X191034020Y-104760861D01*
X191015322Y-104779559D01*
X190986097Y-104767453D01*
X190876084Y-104745570D01*
X190763916Y-104745570D01*
X190653903Y-104767453D01*
X190550274Y-104810378D01*
X190457010Y-104872695D01*
X190377695Y-104952010D01*
X190315378Y-105045274D01*
X190272453Y-105148903D01*
X190250570Y-105258916D01*
X190119430Y-105258916D01*
X190097547Y-105148903D01*
X190054622Y-105045274D01*
X189992305Y-104952010D01*
X189912990Y-104872695D01*
X189819726Y-104810378D01*
X189716097Y-104767453D01*
X189606084Y-104745570D01*
X189493916Y-104745570D01*
X189383903Y-104767453D01*
X189280274Y-104810378D01*
X189187010Y-104872695D01*
X189107695Y-104952010D01*
X189045378Y-105045274D01*
X189002453Y-105148903D01*
X188980570Y-105258916D01*
X188923029Y-105258916D01*
X188899995Y-105135202D01*
X188895396Y-105120046D01*
X188810460Y-105073039D01*
X188568500Y-105315000D01*
X187991500Y-105315000D01*
X187749540Y-105073039D01*
X187664604Y-105120046D01*
X187638395Y-105243850D01*
X187636842Y-105370388D01*
X187520796Y-105370388D01*
X187530237Y-105360947D01*
X187603534Y-105251250D01*
X187654022Y-105129362D01*
X187679760Y-104999966D01*
X187679760Y-104868034D01*
X187663153Y-104784540D01*
X188038039Y-104784540D01*
X188280000Y-105026500D01*
X188521961Y-104784540D01*
X188474954Y-104699604D01*
X188351150Y-104673395D01*
X188224612Y-104671842D01*
X188100202Y-104695005D01*
X188085046Y-104699604D01*
X188038039Y-104784540D01*
X187663153Y-104784540D01*
X187654022Y-104738638D01*
X187603534Y-104616750D01*
X187530237Y-104507053D01*
X187436947Y-104413763D01*
X187327250Y-104340466D01*
X187205362Y-104289978D01*
X187075966Y-104264240D01*
X186944034Y-104264240D01*
X186814638Y-104289978D01*
X186692750Y-104340466D01*
X186583053Y-104413763D01*
X186489763Y-104507053D01*
X186416466Y-104616750D01*
X186365978Y-104738638D01*
X186340240Y-104868034D01*
X179202676Y-104868034D01*
X181944004Y-102126706D01*
X182021388Y-102075000D01*
X203932208Y-102075000D01*
X203936393Y-102112316D01*
X203937813Y-102118997D01*
X203939127Y-102125634D01*
X203939434Y-102126624D01*
X203939436Y-102126634D01*
X203939440Y-102126643D01*
X203968943Y-102219649D01*
X203971614Y-102225882D01*
X203974211Y-102232182D01*
X203974707Y-102233098D01*
X203974709Y-102233103D01*
X203974712Y-102233107D01*
X204021720Y-102318615D01*
X204025545Y-102324203D01*
X204029322Y-102329887D01*
X204029984Y-102330686D01*
X204029989Y-102330693D01*
X204029995Y-102330698D01*
X204092715Y-102405445D01*
X204097557Y-102410187D01*
X204102361Y-102415025D01*
X204103167Y-102415681D01*
X204103173Y-102415687D01*
X204103180Y-102415691D01*
X204179223Y-102476832D01*
X204184898Y-102480546D01*
X204190546Y-102484356D01*
X204191463Y-102484843D01*
X204191471Y-102484848D01*
X204191479Y-102484851D01*
X204277950Y-102530057D01*
X204284232Y-102532595D01*
X204290519Y-102535238D01*
X204291515Y-102535538D01*
X204291522Y-102535541D01*
X204291529Y-102535542D01*
X204385133Y-102563092D01*
X204391825Y-102564369D01*
X204398470Y-102565733D01*
X204399499Y-102565834D01*
X204399511Y-102565836D01*
X204399522Y-102565836D01*
X204496694Y-102574679D01*
X204503487Y-102574632D01*
X204510289Y-102574680D01*
X204511320Y-102574578D01*
X204511332Y-102574578D01*
X204511343Y-102574576D01*
X204608379Y-102564377D01*
X204615032Y-102563011D01*
X204621715Y-102561737D01*
X204622715Y-102561435D01*
X204622721Y-102561433D01*
X204715936Y-102532578D01*
X204722227Y-102529934D01*
X204728506Y-102527397D01*
X204729421Y-102526910D01*
X204729430Y-102526906D01*
X204729437Y-102526901D01*
X204815268Y-102480493D01*
X204820922Y-102476679D01*
X204826592Y-102472969D01*
X204827396Y-102472313D01*
X204827403Y-102472308D01*
X204827409Y-102472302D01*
X204902592Y-102410106D01*
X204907394Y-102405270D01*
X204912238Y-102400527D01*
X204912905Y-102399720D01*
X204974581Y-102324099D01*
X204978333Y-102318452D01*
X204982185Y-102312827D01*
X204982679Y-102311911D01*
X204982682Y-102311907D01*
X204982684Y-102311903D01*
X205028494Y-102225745D01*
X205031084Y-102219463D01*
X205033763Y-102213213D01*
X205034070Y-102212219D01*
X205034073Y-102212212D01*
X205034074Y-102212205D01*
X205062277Y-102118795D01*
X205063599Y-102112119D01*
X205065011Y-102105477D01*
X205065120Y-102104435D01*
X205074642Y-102007318D01*
X205074642Y-102007310D01*
X205075000Y-102003675D01*
X205075000Y-102000000D01*
X221250000Y-102000000D01*
X221250000Y-103200000D01*
X221251762Y-103213156D01*
X221255255Y-103222314D01*
X221260468Y-103230614D01*
X221267200Y-103237738D01*
X221275193Y-103243412D01*
X222325193Y-103843412D01*
X222337349Y-103848373D01*
X222347029Y-103849912D01*
X222356823Y-103849532D01*
X222366355Y-103847249D01*
X222375259Y-103843151D01*
X223400259Y-103243151D01*
X223410355Y-103235355D01*
X223416573Y-103227779D01*
X223421194Y-103219134D01*
X223424039Y-103209755D01*
X223425000Y-103200000D01*
X223425000Y-102000000D01*
X223423373Y-101987349D01*
X223419975Y-101978155D01*
X223414849Y-101969800D01*
X223408192Y-101962606D01*
X223400259Y-101956849D01*
X222375259Y-101356849D01*
X222363156Y-101351762D01*
X222353492Y-101350122D01*
X222343694Y-101350399D01*
X222334139Y-101352582D01*
X222325193Y-101356588D01*
X221275193Y-101956588D01*
X221264645Y-101964645D01*
X221258427Y-101972221D01*
X221253806Y-101980866D01*
X221250961Y-101990245D01*
X221250000Y-102000000D01*
X205075000Y-102000000D01*
X205075000Y-98109829D01*
X205080808Y-98103496D01*
X205133320Y-98075000D01*
X214916372Y-98075000D01*
X214925001Y-98080333D01*
D18*
G36*
X195851576Y-152775745D02*
G01*
X204371640Y-157644353D01*
X204409230Y-157681692D01*
X204423000Y-157732856D01*
X204423000Y-167465004D01*
X204408875Y-167516753D01*
X204370414Y-167554150D01*
X195825682Y-172276880D01*
X195775786Y-172289621D01*
X195726020Y-172276391D01*
X187378740Y-167555190D01*
X187340880Y-167517829D01*
X187327000Y-167466484D01*
X187327000Y-157731736D01*
X187340585Y-157680884D01*
X187377723Y-157643577D01*
X195749735Y-152776128D01*
X195800608Y-152762312D01*
X195851576Y-152775745D01*
G37*
X195851576Y-152775745D02*
X204371640Y-157644353D01*
X204409230Y-157681692D01*
X204423000Y-157732856D01*
X204423000Y-167465004D01*
X204408875Y-167516753D01*
X204370414Y-167554150D01*
X195825682Y-172276880D01*
X195775786Y-172289621D01*
X195726020Y-172276391D01*
X187378740Y-167555190D01*
X187340880Y-167517829D01*
X187327000Y-167466484D01*
X187327000Y-157731736D01*
X187340585Y-157680884D01*
X187377723Y-157643577D01*
X195749735Y-152776128D01*
X195800608Y-152762312D01*
X195851576Y-152775745D01*
G36*
X218850777Y-142779403D02*
G01*
X224223899Y-146041656D01*
X224259881Y-146078849D01*
X224273000Y-146128912D01*
X224273000Y-152669249D01*
X224259577Y-152719831D01*
X224222845Y-152757100D01*
X218776280Y-155972253D01*
X218724686Y-155986398D01*
X218673040Y-155972451D01*
X213177481Y-152756708D01*
X213140515Y-152719418D01*
X213127000Y-152668682D01*
X213127000Y-146131203D01*
X213140497Y-146080497D01*
X213177414Y-146043211D01*
X218746460Y-142778598D01*
X218798729Y-142764624D01*
X218850777Y-142779403D01*
G37*
X218850777Y-142779403D02*
X224223899Y-146041656D01*
X224259881Y-146078849D01*
X224273000Y-146128912D01*
X224273000Y-152669249D01*
X224259577Y-152719831D01*
X224222845Y-152757100D01*
X218776280Y-155972253D01*
X218724686Y-155986398D01*
X218673040Y-155972451D01*
X213177481Y-152756708D01*
X213140515Y-152719418D01*
X213127000Y-152668682D01*
X213127000Y-146131203D01*
X213140497Y-146080497D01*
X213177414Y-146043211D01*
X218746460Y-142778598D01*
X218798729Y-142764624D01*
X218850777Y-142779403D01*
M02*
