G04 #@! TF.GenerationSoftware,KiCad,Pcbnew,5.1.5-52549c5~84~ubuntu19.10.1*
G04 #@! TF.CreationDate,2020-03-01T21:01:51+01:00*
G04 #@! TF.ProjectId,scale,7363616c-652e-46b6-9963-61645f706362,rev?*
G04 #@! TF.SameCoordinates,Original*
G04 #@! TF.FileFunction,Copper,L2,Bot*
G04 #@! TF.FilePolarity,Positive*
%FSLAX46Y46*%
G04 Gerber Fmt 4.6, Leading zero omitted, Abs format (unit mm)*
G04 Created by KiCad (PCBNEW 5.1.5-52549c5~84~ubuntu19.10.1) date 2020-03-01 21:01:51*
%MOMM*%
%LPD*%
G04 APERTURE LIST*
%ADD10C,6.400000*%
%ADD11O,1.700000X1.700000*%
%ADD12R,1.700000X1.700000*%
%ADD13O,2.100000X1.000000*%
%ADD14O,1.600000X1.000000*%
%ADD15C,0.784860*%
%ADD16R,0.400000X5.000000*%
%ADD17C,0.600000*%
%ADD18C,0.800000*%
%ADD19C,0.500000*%
%ADD20C,0.400000*%
%ADD21C,0.300000*%
%ADD22C,0.200000*%
%ADD23C,0.127000*%
%ADD24C,0.254000*%
G04 APERTURE END LIST*
D10*
X120000000Y-97000000D03*
X120000000Y-103000000D03*
D11*
X103040000Y-82000000D03*
X100500000Y-82000000D03*
X97960000Y-82000000D03*
D12*
X95420000Y-82000000D03*
D13*
X118665000Y-91570000D03*
X118665000Y-82930000D03*
D14*
X122845000Y-91570000D03*
X122845000Y-82930000D03*
D15*
X95730000Y-84615000D03*
X95730000Y-85885000D03*
X97000000Y-84615000D03*
X97000000Y-85885000D03*
X98270000Y-84615000D03*
X98270000Y-85885000D03*
D16*
X71750000Y-96750000D03*
X71050000Y-96750000D03*
X70350000Y-96750000D03*
X69650000Y-96750000D03*
X68950000Y-96750000D03*
X68250000Y-96750000D03*
X67550000Y-96750000D03*
X66850000Y-96750000D03*
X66150000Y-96750000D03*
X65450000Y-96750000D03*
X64750000Y-96750000D03*
X72450000Y-96750000D03*
X64050000Y-96750000D03*
D17*
X102850000Y-90750000D03*
X102125000Y-90750000D03*
X87039141Y-90057597D03*
X87700000Y-93600000D03*
X92400000Y-90100000D03*
X95400000Y-91600000D03*
X95400000Y-92600000D03*
X92197107Y-93324119D03*
X105225000Y-92950000D03*
X105225000Y-94475000D03*
X105225000Y-93700000D03*
X101300000Y-92800000D03*
X101300000Y-93550000D03*
X101300000Y-94325000D03*
X77050000Y-87450000D03*
X77050000Y-88450000D03*
X79950000Y-90750000D03*
X82500000Y-89450000D03*
X83350000Y-87500000D03*
X86500000Y-86550000D03*
X87300000Y-88750000D03*
X84450000Y-89500000D03*
X90650000Y-87050000D03*
X92900000Y-84300000D03*
X91950000Y-81600000D03*
X93650000Y-82750000D03*
X96000000Y-89050000D03*
X100000000Y-89000000D03*
X92000000Y-88100000D03*
X89400000Y-90600000D03*
X85800000Y-92700000D03*
X97000000Y-94000000D03*
X97000000Y-91000000D03*
X100000000Y-91500000D03*
X78000000Y-107350000D03*
X81500000Y-110500000D03*
X88000000Y-110500000D03*
X94000000Y-110550000D03*
X98250000Y-108850000D03*
X102250000Y-106350000D03*
X108950000Y-106100000D03*
X105850000Y-108750000D03*
X105850000Y-111500000D03*
X105850000Y-114550000D03*
X101550000Y-113600000D03*
X100050000Y-113600000D03*
X97200000Y-114250000D03*
X92800000Y-114500000D03*
X88500000Y-114500000D03*
X84000000Y-114500000D03*
X79500000Y-114500000D03*
X112500000Y-112000000D03*
X114500000Y-112000000D03*
X116500000Y-113000000D03*
X116000000Y-119000000D03*
X114500000Y-119000000D03*
X107500000Y-119000000D03*
X104000000Y-119000000D03*
X100500000Y-119000000D03*
X62500000Y-108500000D03*
X64000000Y-108500000D03*
X65500000Y-108500000D03*
X67000000Y-108500000D03*
X71500000Y-108500000D03*
X73000000Y-108500000D03*
X74500000Y-108500000D03*
X76000000Y-109500000D03*
X76500000Y-111000000D03*
X76500000Y-112500000D03*
X76500000Y-114000000D03*
X76500000Y-117000000D03*
X76500000Y-118500000D03*
X72000000Y-101000000D03*
X68000000Y-105000000D03*
X63500000Y-100500000D03*
X69500000Y-106500000D03*
X73500000Y-102500000D03*
X73000000Y-92000000D03*
X75500000Y-89500000D03*
X66000000Y-92000000D03*
X69000000Y-89000000D03*
X71500000Y-86500000D03*
X74500000Y-83500000D03*
X71000000Y-82500000D03*
X68000000Y-85500000D03*
X65000000Y-88500000D03*
X62000000Y-92000000D03*
X80500000Y-82000000D03*
X110000000Y-89000000D03*
X112000000Y-90000000D03*
X113000000Y-92000000D03*
X110500000Y-93000000D03*
X114500000Y-94000000D03*
X116500000Y-92000000D03*
X82950000Y-84049996D03*
X106250000Y-85500000D03*
X105500000Y-85500000D03*
X104750000Y-85500000D03*
X104000000Y-85500000D03*
X103250000Y-85500000D03*
X101750000Y-84250000D03*
X101750000Y-85000000D03*
X101750000Y-85750000D03*
X102500000Y-84250000D03*
X102500000Y-85000000D03*
X102500000Y-85750000D03*
X93900000Y-88700000D03*
X90400000Y-91200000D03*
X88500000Y-91800000D03*
X70400000Y-93100000D03*
X71700000Y-93100000D03*
X80900000Y-81000000D03*
X80200000Y-81000000D03*
X91700000Y-82900000D03*
X111650000Y-85250000D03*
X93200000Y-116775000D03*
X94225000Y-116775000D03*
X62400000Y-93125000D03*
X116175000Y-84800000D03*
X116325000Y-89625000D03*
X98900000Y-84000000D03*
X84100000Y-80900000D03*
X83275000Y-84800000D03*
X81899992Y-84900010D03*
X106034092Y-81986498D03*
X93525000Y-81200000D03*
X111943973Y-80525002D03*
X113750000Y-87180002D03*
X116242841Y-88149990D03*
X101200000Y-88025000D03*
X101200000Y-87175000D03*
X115725000Y-86325000D03*
X74750000Y-87525000D03*
X86560203Y-85200000D03*
X86291984Y-84391248D03*
X85360191Y-85173019D03*
X88400000Y-83138534D03*
X85120855Y-84381166D03*
X88400000Y-82338521D03*
X84335962Y-84535962D03*
X101116597Y-111252495D03*
X101900000Y-112100000D03*
D18*
X102500000Y-85000000D02*
X102000000Y-85000000D01*
X102000000Y-85000000D02*
X99100000Y-87900000D01*
X93900000Y-87900000D02*
X91700000Y-85700000D01*
D19*
X80900000Y-81000000D02*
X80800000Y-81000000D01*
D18*
X99100000Y-87900000D02*
X93900000Y-87900000D01*
D20*
X93900000Y-87900000D02*
X93900000Y-88700000D01*
X89300000Y-91800000D02*
X88500000Y-91800000D01*
X90400000Y-91200000D02*
X89900000Y-91200000D01*
X89900000Y-91200000D02*
X89300000Y-91800000D01*
D21*
X70350000Y-96750000D02*
X70350000Y-93150000D01*
X70350000Y-93150000D02*
X70400000Y-93100000D01*
X71750000Y-96750000D02*
X71750000Y-95950000D01*
X71750000Y-96750000D02*
X71750000Y-93150000D01*
X71750000Y-93150000D02*
X71700000Y-93100000D01*
D18*
X91700000Y-85700000D02*
X91700000Y-82900000D01*
D22*
X98270000Y-87070000D02*
X99100000Y-87900000D01*
X98270000Y-85885000D02*
X98270000Y-87070000D01*
X102500000Y-82540000D02*
X103040000Y-82000000D01*
X102500000Y-84250000D02*
X102500000Y-82540000D01*
D18*
X91700000Y-82900000D02*
X90238511Y-81438511D01*
X81700002Y-81800002D02*
X81199999Y-81299999D01*
X81199999Y-81299999D02*
X80900000Y-81000000D01*
X84893493Y-81438511D02*
X84532002Y-81800002D01*
X90238511Y-81438511D02*
X84893493Y-81438511D01*
X84532002Y-81800002D02*
X81700002Y-81800002D01*
X94225000Y-116775000D02*
X93025000Y-116775000D01*
X93050000Y-116775000D02*
X93200000Y-116775000D01*
X61975000Y-93550000D02*
X61975000Y-101050000D01*
X61975000Y-101050000D02*
X77700000Y-116775000D01*
X74525000Y-81000000D02*
X61975000Y-93550000D01*
X80900000Y-81000000D02*
X74525000Y-81000000D01*
X77700000Y-116775000D02*
X93050000Y-116775000D01*
D19*
X116599264Y-84800000D02*
X117125000Y-85325736D01*
X116175000Y-84800000D02*
X116599264Y-84800000D01*
X117125000Y-85325736D02*
X117125000Y-88825000D01*
X117125000Y-88825000D02*
X116325000Y-89625000D01*
D22*
X95420000Y-83035000D02*
X95420000Y-82000000D01*
X97000000Y-84615000D02*
X95420000Y-83035000D01*
X100500000Y-82385000D02*
X100500000Y-82000000D01*
X98270000Y-84615000D02*
X98900000Y-84000000D01*
X98900000Y-84000000D02*
X100500000Y-82385000D01*
D23*
X83275000Y-84800000D02*
X82000002Y-84800000D01*
X82000002Y-84800000D02*
X81899992Y-84900010D01*
X104495583Y-80447989D02*
X106034092Y-81986498D01*
X84100000Y-80900000D02*
X84552011Y-80447989D01*
X84552011Y-80447989D02*
X104495583Y-80447989D01*
X105750000Y-82550000D02*
X103975000Y-80775000D01*
X106550000Y-82550000D02*
X105750000Y-82550000D01*
X93950000Y-80775000D02*
X93525000Y-81200000D01*
X109083509Y-81908509D02*
X107191491Y-81908509D01*
X110467016Y-80525002D02*
X109083509Y-81908509D01*
X111943973Y-80525002D02*
X110467016Y-80525002D01*
X103975000Y-80775000D02*
X93950000Y-80775000D01*
X107191491Y-81908509D02*
X106550000Y-82550000D01*
D22*
X115272853Y-87180002D02*
X116242841Y-88149990D01*
X113750000Y-87180002D02*
X115272853Y-87180002D01*
X109593200Y-87325000D02*
X113605002Y-87325000D01*
X113605002Y-87325000D02*
X113750000Y-87180002D01*
X101200000Y-88025000D02*
X101400000Y-87825000D01*
X109093200Y-87825000D02*
X109593200Y-87325000D01*
X101400000Y-87825000D02*
X109093200Y-87825000D01*
X101200000Y-87175000D02*
X101400000Y-87375000D01*
X101400000Y-87375000D02*
X108906800Y-87375000D01*
X108906800Y-87375000D02*
X109406800Y-86875000D01*
X109406800Y-86875000D02*
X111800000Y-86875000D01*
X111800000Y-86875000D02*
X113125000Y-86875000D01*
X113125000Y-86875000D02*
X113425000Y-86575000D01*
X113425000Y-86575000D02*
X115400000Y-86575000D01*
X115400000Y-86575000D02*
X115650000Y-86325000D01*
X115650000Y-86325000D02*
X115725000Y-86325000D01*
X71050000Y-91225000D02*
X74450001Y-87824999D01*
X74450001Y-87824999D02*
X74750000Y-87525000D01*
X71050000Y-96750000D02*
X71050000Y-91225000D01*
D23*
X86560203Y-85314797D02*
X86560203Y-85200000D01*
X85103444Y-86771556D02*
X86560203Y-85314797D01*
X74578444Y-86771556D02*
X85103444Y-86771556D01*
X68250000Y-96750000D02*
X68250000Y-93100000D01*
X68250000Y-93100000D02*
X74578444Y-86771556D01*
X67550000Y-96750000D02*
X67550000Y-93337537D01*
X74442992Y-86444545D02*
X84892993Y-86444545D01*
X67550000Y-93337537D02*
X74442992Y-86444545D01*
X85991985Y-84691247D02*
X86291984Y-84391248D01*
X85991985Y-85345553D02*
X85991985Y-84691247D01*
X84892993Y-86444545D02*
X85991985Y-85345553D01*
X74307540Y-86117534D02*
X84415676Y-86117534D01*
X85060192Y-85473018D02*
X85360191Y-85173019D01*
X66850000Y-93575074D02*
X74307540Y-86117534D01*
X84415676Y-86117534D02*
X85060192Y-85473018D01*
X66850000Y-96750000D02*
X66850000Y-93575074D01*
X88400000Y-83138534D02*
X86363487Y-83138534D01*
X86363487Y-83138534D02*
X85120855Y-84381166D01*
X74172088Y-85790523D02*
X83897481Y-85790523D01*
X66150000Y-93812611D02*
X74172088Y-85790523D01*
X83897481Y-85790523D02*
X85120855Y-84567149D01*
X85120855Y-84567149D02*
X85120855Y-84381166D01*
X66150000Y-96750000D02*
X66150000Y-93812611D01*
X86109139Y-82338521D02*
X84335962Y-84111698D01*
X88400000Y-82338521D02*
X86109139Y-82338521D01*
X84335962Y-84111698D02*
X84335962Y-84535962D01*
X84035963Y-84835961D02*
X84335962Y-84535962D01*
X83408412Y-85463512D02*
X84035963Y-84835961D01*
X74036636Y-85463512D02*
X83408412Y-85463512D01*
X65450000Y-94050148D02*
X74036636Y-85463512D01*
X65450000Y-96750000D02*
X65450000Y-94050148D01*
X101116597Y-111316597D02*
X101116597Y-111252495D01*
X101900000Y-112100000D02*
X101116597Y-111316597D01*
D24*
G36*
X115123000Y-85937491D02*
G01*
X115107533Y-86015251D01*
X115070570Y-86070570D01*
X115015251Y-86107533D01*
X114937491Y-86123000D01*
X101562509Y-86123000D01*
X101484749Y-86107533D01*
X101429430Y-86070570D01*
X101392467Y-86015251D01*
X101377000Y-85937491D01*
X101377000Y-84062509D01*
X101392467Y-83984749D01*
X101429430Y-83929430D01*
X101484749Y-83892467D01*
X101562509Y-83877000D01*
X104125736Y-83877000D01*
X104150512Y-83874560D01*
X104265317Y-83851724D01*
X104289142Y-83844497D01*
X104311099Y-83832761D01*
X104408426Y-83767729D01*
X104427671Y-83751935D01*
X105413678Y-82765928D01*
X105460314Y-82812565D01*
X105472539Y-82827461D01*
X105532000Y-82876260D01*
X105599839Y-82912520D01*
X105673448Y-82934849D01*
X105749999Y-82942389D01*
X105769178Y-82940500D01*
X106530822Y-82940500D01*
X106550000Y-82942389D01*
X106569178Y-82940500D01*
X106626551Y-82934849D01*
X106700161Y-82912520D01*
X106768000Y-82876260D01*
X106827461Y-82827461D01*
X106839690Y-82812560D01*
X107353241Y-82299009D01*
X108681833Y-82299009D01*
X108679320Y-82300050D01*
X108568437Y-82374140D01*
X108474140Y-82468437D01*
X108400050Y-82579320D01*
X108349016Y-82702526D01*
X108323000Y-82833321D01*
X108323000Y-82966679D01*
X108349016Y-83097474D01*
X108400050Y-83220680D01*
X108474140Y-83331563D01*
X108568437Y-83425860D01*
X108679320Y-83499950D01*
X108802526Y-83550984D01*
X108933321Y-83577000D01*
X109066679Y-83577000D01*
X109197474Y-83550984D01*
X109320680Y-83499950D01*
X109431563Y-83425860D01*
X109525860Y-83331563D01*
X109599950Y-83220680D01*
X109650984Y-83097474D01*
X109677000Y-82966679D01*
X109677000Y-82833321D01*
X109650984Y-82702526D01*
X109599950Y-82579320D01*
X109525860Y-82468437D01*
X109431563Y-82374140D01*
X109320680Y-82300050D01*
X109241069Y-82267074D01*
X109301509Y-82234769D01*
X109360970Y-82185970D01*
X109373199Y-82171069D01*
X110628766Y-80915502D01*
X111450810Y-80915502D01*
X111456950Y-80924691D01*
X111544284Y-81012025D01*
X111646977Y-81080642D01*
X111761084Y-81127907D01*
X111882219Y-81152002D01*
X112005727Y-81152002D01*
X112126862Y-81127907D01*
X112240969Y-81080642D01*
X112343662Y-81012025D01*
X112430996Y-80924691D01*
X112499613Y-80821998D01*
X112546878Y-80707891D01*
X112570973Y-80586756D01*
X112570973Y-80463248D01*
X112548845Y-80352000D01*
X115123000Y-80352000D01*
X115123000Y-85937491D01*
G37*
X115123000Y-85937491D02*
X115107533Y-86015251D01*
X115070570Y-86070570D01*
X115015251Y-86107533D01*
X114937491Y-86123000D01*
X101562509Y-86123000D01*
X101484749Y-86107533D01*
X101429430Y-86070570D01*
X101392467Y-86015251D01*
X101377000Y-85937491D01*
X101377000Y-84062509D01*
X101392467Y-83984749D01*
X101429430Y-83929430D01*
X101484749Y-83892467D01*
X101562509Y-83877000D01*
X104125736Y-83877000D01*
X104150512Y-83874560D01*
X104265317Y-83851724D01*
X104289142Y-83844497D01*
X104311099Y-83832761D01*
X104408426Y-83767729D01*
X104427671Y-83751935D01*
X105413678Y-82765928D01*
X105460314Y-82812565D01*
X105472539Y-82827461D01*
X105532000Y-82876260D01*
X105599839Y-82912520D01*
X105673448Y-82934849D01*
X105749999Y-82942389D01*
X105769178Y-82940500D01*
X106530822Y-82940500D01*
X106550000Y-82942389D01*
X106569178Y-82940500D01*
X106626551Y-82934849D01*
X106700161Y-82912520D01*
X106768000Y-82876260D01*
X106827461Y-82827461D01*
X106839690Y-82812560D01*
X107353241Y-82299009D01*
X108681833Y-82299009D01*
X108679320Y-82300050D01*
X108568437Y-82374140D01*
X108474140Y-82468437D01*
X108400050Y-82579320D01*
X108349016Y-82702526D01*
X108323000Y-82833321D01*
X108323000Y-82966679D01*
X108349016Y-83097474D01*
X108400050Y-83220680D01*
X108474140Y-83331563D01*
X108568437Y-83425860D01*
X108679320Y-83499950D01*
X108802526Y-83550984D01*
X108933321Y-83577000D01*
X109066679Y-83577000D01*
X109197474Y-83550984D01*
X109320680Y-83499950D01*
X109431563Y-83425860D01*
X109525860Y-83331563D01*
X109599950Y-83220680D01*
X109650984Y-83097474D01*
X109677000Y-82966679D01*
X109677000Y-82833321D01*
X109650984Y-82702526D01*
X109599950Y-82579320D01*
X109525860Y-82468437D01*
X109431563Y-82374140D01*
X109320680Y-82300050D01*
X109241069Y-82267074D01*
X109301509Y-82234769D01*
X109360970Y-82185970D01*
X109373199Y-82171069D01*
X110628766Y-80915502D01*
X111450810Y-80915502D01*
X111456950Y-80924691D01*
X111544284Y-81012025D01*
X111646977Y-81080642D01*
X111761084Y-81127907D01*
X111882219Y-81152002D01*
X112005727Y-81152002D01*
X112126862Y-81127907D01*
X112240969Y-81080642D01*
X112343662Y-81012025D01*
X112430996Y-80924691D01*
X112499613Y-80821998D01*
X112546878Y-80707891D01*
X112570973Y-80586756D01*
X112570973Y-80463248D01*
X112548845Y-80352000D01*
X115123000Y-80352000D01*
X115123000Y-85937491D01*
G36*
X63148001Y-80982699D02*
G01*
X63146297Y-81000000D01*
X63153093Y-81069004D01*
X63173221Y-81135356D01*
X63205907Y-81196507D01*
X63249894Y-81250106D01*
X63303493Y-81294093D01*
X63364644Y-81326779D01*
X63430996Y-81346907D01*
X63482708Y-81352000D01*
X63482709Y-81352000D01*
X63500000Y-81353703D01*
X63517292Y-81352000D01*
X72982708Y-81352000D01*
X73000000Y-81353703D01*
X73017291Y-81352000D01*
X73017292Y-81352000D01*
X73069004Y-81346907D01*
X73135356Y-81326779D01*
X73196507Y-81294093D01*
X73231454Y-81265413D01*
X61486190Y-93010678D01*
X61458446Y-93033447D01*
X61367597Y-93144148D01*
X61342968Y-93190225D01*
X61300090Y-93270444D01*
X61258520Y-93407483D01*
X61244483Y-93550000D01*
X61248000Y-93585708D01*
X61248001Y-101014282D01*
X61244483Y-101050000D01*
X61258520Y-101192517D01*
X61300090Y-101329556D01*
X61300091Y-101329557D01*
X61367598Y-101455853D01*
X61458447Y-101566554D01*
X61486189Y-101589321D01*
X77160679Y-117263812D01*
X77183446Y-117291554D01*
X77294147Y-117382403D01*
X77420443Y-117449910D01*
X77557483Y-117491480D01*
X77664292Y-117502000D01*
X77664294Y-117502000D01*
X77699999Y-117505517D01*
X77735705Y-117502000D01*
X94260708Y-117502000D01*
X94367517Y-117491480D01*
X94504557Y-117449910D01*
X94630853Y-117382403D01*
X94741554Y-117291554D01*
X94832403Y-117180853D01*
X94899910Y-117054557D01*
X94941480Y-116917517D01*
X94955517Y-116775000D01*
X94941480Y-116632483D01*
X94899910Y-116495443D01*
X94832403Y-116369147D01*
X94741554Y-116258446D01*
X94630853Y-116167597D01*
X94504557Y-116100090D01*
X94367517Y-116058520D01*
X94260708Y-116048000D01*
X78001133Y-116048000D01*
X73143874Y-111190741D01*
X100489597Y-111190741D01*
X100489597Y-111314249D01*
X100513692Y-111435384D01*
X100560957Y-111549491D01*
X100629574Y-111652184D01*
X100716908Y-111739518D01*
X100819601Y-111808135D01*
X100933708Y-111855400D01*
X101054843Y-111879495D01*
X101127245Y-111879495D01*
X101275156Y-112027406D01*
X101273000Y-112038246D01*
X101273000Y-112161754D01*
X101297095Y-112282889D01*
X101344360Y-112396996D01*
X101412977Y-112499689D01*
X101500311Y-112587023D01*
X101603004Y-112655640D01*
X101717111Y-112702905D01*
X101838246Y-112727000D01*
X101961754Y-112727000D01*
X102082889Y-112702905D01*
X102196996Y-112655640D01*
X102299689Y-112587023D01*
X102387023Y-112499689D01*
X102455640Y-112396996D01*
X102502905Y-112282889D01*
X102527000Y-112161754D01*
X102527000Y-112038246D01*
X102502905Y-111917111D01*
X102455640Y-111803004D01*
X102387023Y-111700311D01*
X102299689Y-111612977D01*
X102196996Y-111544360D01*
X102082889Y-111497095D01*
X101961754Y-111473000D01*
X101838246Y-111473000D01*
X101827406Y-111475156D01*
X101730806Y-111378556D01*
X101743597Y-111314249D01*
X101743597Y-111190741D01*
X101719502Y-111069606D01*
X101672237Y-110955499D01*
X101603620Y-110852806D01*
X101516286Y-110765472D01*
X101413593Y-110696855D01*
X101299486Y-110649590D01*
X101178351Y-110625495D01*
X101054843Y-110625495D01*
X100933708Y-110649590D01*
X100819601Y-110696855D01*
X100716908Y-110765472D01*
X100629574Y-110852806D01*
X100560957Y-110955499D01*
X100513692Y-111069606D01*
X100489597Y-111190741D01*
X73143874Y-111190741D01*
X67820424Y-105867291D01*
X75898000Y-105867291D01*
X75899475Y-105882267D01*
X75899458Y-105884695D01*
X75899938Y-105889587D01*
X75908098Y-105967225D01*
X75914512Y-105998471D01*
X75920491Y-106029816D01*
X75921912Y-106034521D01*
X75944997Y-106109096D01*
X75957351Y-106138484D01*
X75969310Y-106168085D01*
X75971618Y-106172425D01*
X76008748Y-106241096D01*
X76026595Y-106267555D01*
X76044057Y-106294241D01*
X76047164Y-106298050D01*
X76096925Y-106358201D01*
X76119542Y-106380660D01*
X76141885Y-106403476D01*
X76145672Y-106406609D01*
X76206169Y-106455949D01*
X76232738Y-106473601D01*
X76259066Y-106491628D01*
X76263390Y-106493966D01*
X76332319Y-106530616D01*
X76361771Y-106542755D01*
X76391135Y-106555341D01*
X76395831Y-106556794D01*
X76470565Y-106579358D01*
X76501816Y-106585546D01*
X76533068Y-106592189D01*
X76537957Y-106592702D01*
X76615436Y-106600299D01*
X76632708Y-106602000D01*
X83867292Y-106602000D01*
X83882268Y-106600525D01*
X83884695Y-106600542D01*
X83889587Y-106600062D01*
X83967225Y-106591902D01*
X83998471Y-106585488D01*
X84029816Y-106579509D01*
X84034521Y-106578088D01*
X84109096Y-106555003D01*
X84138484Y-106542649D01*
X84168085Y-106530690D01*
X84172425Y-106528382D01*
X84241096Y-106491252D01*
X84267555Y-106473405D01*
X84294241Y-106455943D01*
X84298050Y-106452836D01*
X84358201Y-106403075D01*
X84380660Y-106380458D01*
X84403476Y-106358115D01*
X84406609Y-106354328D01*
X84455949Y-106293831D01*
X84473601Y-106267262D01*
X84491628Y-106240934D01*
X84493966Y-106236610D01*
X84530616Y-106167681D01*
X84542755Y-106138229D01*
X84555341Y-106108865D01*
X84556794Y-106104169D01*
X84579358Y-106029435D01*
X84585546Y-105998184D01*
X84592189Y-105966932D01*
X84592702Y-105962043D01*
X84600320Y-105884349D01*
X84602000Y-105867292D01*
X84602000Y-105740714D01*
X117645366Y-105740714D01*
X118025443Y-106182199D01*
X118684200Y-106506271D01*
X119393523Y-106695599D01*
X120126152Y-106742907D01*
X120853933Y-106646377D01*
X121548898Y-106409719D01*
X121974557Y-106182199D01*
X122354634Y-105740714D01*
X120000000Y-103386080D01*
X117645366Y-105740714D01*
X84602000Y-105740714D01*
X84602000Y-105167215D01*
X84604570Y-105141006D01*
X84607183Y-105132352D01*
X84611426Y-105124372D01*
X84617139Y-105117367D01*
X84624101Y-105111607D01*
X84632054Y-105107307D01*
X84640688Y-105104634D01*
X84665752Y-105102000D01*
X115867292Y-105102000D01*
X115882268Y-105100525D01*
X115884695Y-105100542D01*
X115889587Y-105100062D01*
X115967225Y-105091902D01*
X115998471Y-105085488D01*
X116029816Y-105079509D01*
X116034521Y-105078088D01*
X116109096Y-105055003D01*
X116138484Y-105042649D01*
X116168085Y-105030690D01*
X116172425Y-105028382D01*
X116241096Y-104991252D01*
X116267555Y-104973405D01*
X116294241Y-104955943D01*
X116298050Y-104952836D01*
X116358201Y-104903075D01*
X116380660Y-104880458D01*
X116403476Y-104858115D01*
X116406609Y-104854328D01*
X116455949Y-104793831D01*
X116473601Y-104767262D01*
X116491628Y-104740934D01*
X116493966Y-104736610D01*
X116530616Y-104667681D01*
X116542755Y-104638229D01*
X116555341Y-104608865D01*
X116556794Y-104604169D01*
X116579358Y-104529435D01*
X116580937Y-104521459D01*
X116590281Y-104548898D01*
X116817801Y-104974557D01*
X117259286Y-105354634D01*
X119613920Y-103000000D01*
X120386080Y-103000000D01*
X122740714Y-105354634D01*
X123182199Y-104974557D01*
X123506271Y-104315800D01*
X123695599Y-103606477D01*
X123742907Y-102873848D01*
X123646377Y-102146067D01*
X123409719Y-101451102D01*
X123182199Y-101025443D01*
X122740714Y-100645366D01*
X120386080Y-103000000D01*
X119613920Y-103000000D01*
X117259286Y-100645366D01*
X116817801Y-101025443D01*
X116602000Y-101464112D01*
X116602000Y-99740714D01*
X117645366Y-99740714D01*
X117868587Y-100000000D01*
X117645366Y-100259286D01*
X120000000Y-102613920D01*
X122354634Y-100259286D01*
X122131413Y-100000000D01*
X122354634Y-99740714D01*
X120000000Y-97386080D01*
X117645366Y-99740714D01*
X116602000Y-99740714D01*
X116602000Y-98570823D01*
X116817801Y-98974557D01*
X117259286Y-99354634D01*
X119613920Y-97000000D01*
X120386080Y-97000000D01*
X122740714Y-99354634D01*
X123182199Y-98974557D01*
X123506271Y-98315800D01*
X123695599Y-97606477D01*
X123742907Y-96873848D01*
X123646377Y-96146067D01*
X123409719Y-95451102D01*
X123182199Y-95025443D01*
X122740714Y-94645366D01*
X120386080Y-97000000D01*
X119613920Y-97000000D01*
X117259286Y-94645366D01*
X116817801Y-95025443D01*
X116584959Y-95498753D01*
X116579509Y-95470184D01*
X116578088Y-95465479D01*
X116555003Y-95390904D01*
X116542635Y-95361483D01*
X116530689Y-95331915D01*
X116528382Y-95327575D01*
X116491252Y-95258904D01*
X116473420Y-95232468D01*
X116455943Y-95205759D01*
X116452836Y-95201950D01*
X116403075Y-95141799D01*
X116380458Y-95119340D01*
X116358115Y-95096524D01*
X116354328Y-95093391D01*
X116293831Y-95044051D01*
X116267262Y-95026399D01*
X116240934Y-95008372D01*
X116236610Y-95006034D01*
X116167681Y-94969384D01*
X116138229Y-94957245D01*
X116108865Y-94944659D01*
X116104169Y-94943206D01*
X116029435Y-94920642D01*
X115998191Y-94914456D01*
X115966932Y-94907811D01*
X115962044Y-94907298D01*
X115884564Y-94899701D01*
X115867292Y-94898000D01*
X84667216Y-94898000D01*
X84641006Y-94895430D01*
X84632352Y-94892817D01*
X84624372Y-94888574D01*
X84617367Y-94882861D01*
X84611607Y-94875899D01*
X84607307Y-94867946D01*
X84604634Y-94859312D01*
X84602000Y-94834248D01*
X84602000Y-94259286D01*
X117645366Y-94259286D01*
X120000000Y-96613920D01*
X122354634Y-94259286D01*
X121974557Y-93817801D01*
X121315800Y-93493729D01*
X120606477Y-93304401D01*
X119873848Y-93257093D01*
X119146067Y-93353623D01*
X118451102Y-93590281D01*
X118025443Y-93817801D01*
X117645366Y-94259286D01*
X84602000Y-94259286D01*
X84602000Y-94132708D01*
X84600525Y-94117732D01*
X84600542Y-94115305D01*
X84600062Y-94110414D01*
X84591902Y-94032775D01*
X84585490Y-94001542D01*
X84579509Y-93970184D01*
X84578088Y-93965479D01*
X84555003Y-93890904D01*
X84542635Y-93861483D01*
X84530689Y-93831915D01*
X84528382Y-93827575D01*
X84491252Y-93758904D01*
X84473420Y-93732468D01*
X84455943Y-93705759D01*
X84452836Y-93701950D01*
X84403075Y-93641799D01*
X84380458Y-93619340D01*
X84358115Y-93596524D01*
X84354328Y-93593391D01*
X84293831Y-93544051D01*
X84267262Y-93526399D01*
X84240934Y-93508372D01*
X84236610Y-93506034D01*
X84167681Y-93469384D01*
X84138229Y-93457245D01*
X84108865Y-93444659D01*
X84104169Y-93443206D01*
X84029435Y-93420642D01*
X83998191Y-93414456D01*
X83966932Y-93407811D01*
X83962044Y-93407298D01*
X83884564Y-93399701D01*
X83867292Y-93398000D01*
X76632708Y-93398000D01*
X76617732Y-93399475D01*
X76615305Y-93399458D01*
X76610414Y-93399938D01*
X76532775Y-93408098D01*
X76501542Y-93414510D01*
X76470184Y-93420491D01*
X76465479Y-93421912D01*
X76390904Y-93444997D01*
X76361483Y-93457365D01*
X76331915Y-93469311D01*
X76327575Y-93471618D01*
X76258904Y-93508748D01*
X76232468Y-93526580D01*
X76205759Y-93544057D01*
X76201950Y-93547164D01*
X76141799Y-93596925D01*
X76119340Y-93619542D01*
X76096524Y-93641885D01*
X76093391Y-93645672D01*
X76044051Y-93706169D01*
X76026399Y-93732738D01*
X76008372Y-93759066D01*
X76006034Y-93763390D01*
X75969384Y-93832319D01*
X75957245Y-93861771D01*
X75944659Y-93891135D01*
X75943206Y-93895831D01*
X75920642Y-93970565D01*
X75914456Y-94001809D01*
X75907811Y-94033068D01*
X75907298Y-94037956D01*
X75899680Y-94115651D01*
X75899680Y-94115660D01*
X75898001Y-94132708D01*
X75898000Y-105867291D01*
X67820424Y-105867291D01*
X62702000Y-100748868D01*
X62702000Y-93851132D01*
X74826133Y-81727000D01*
X80598867Y-81727000D01*
X80711182Y-81839315D01*
X80711187Y-81839319D01*
X81160680Y-82288813D01*
X81183448Y-82316556D01*
X81294149Y-82407405D01*
X81408836Y-82468707D01*
X81420445Y-82474912D01*
X81557484Y-82516482D01*
X81700001Y-82530519D01*
X81735709Y-82527002D01*
X84496294Y-82527002D01*
X84532002Y-82530519D01*
X84648731Y-82519022D01*
X84674519Y-82516482D01*
X84811559Y-82474912D01*
X84937855Y-82407405D01*
X85048556Y-82316556D01*
X85071328Y-82288808D01*
X85194625Y-82165511D01*
X85729898Y-82165511D01*
X84073402Y-83822008D01*
X84058501Y-83834237D01*
X84009702Y-83893699D01*
X83975868Y-83957000D01*
X83973442Y-83961538D01*
X83951113Y-84035147D01*
X83950704Y-84039296D01*
X83936273Y-84048939D01*
X83848939Y-84136273D01*
X83780322Y-84238966D01*
X83733057Y-84353073D01*
X83730026Y-84368314D01*
X83674689Y-84312977D01*
X83571996Y-84244360D01*
X83457889Y-84197095D01*
X83336754Y-84173000D01*
X83213246Y-84173000D01*
X83092111Y-84197095D01*
X82978004Y-84244360D01*
X82875311Y-84312977D01*
X82787977Y-84400311D01*
X82781837Y-84409500D01*
X82294462Y-84409500D01*
X82196988Y-84344370D01*
X82082881Y-84297105D01*
X81961746Y-84273010D01*
X81838238Y-84273010D01*
X81717103Y-84297105D01*
X81602996Y-84344370D01*
X81500303Y-84412987D01*
X81412969Y-84500321D01*
X81344352Y-84603014D01*
X81297087Y-84717121D01*
X81272992Y-84838256D01*
X81272992Y-84961764D01*
X81295120Y-85073012D01*
X74055814Y-85073012D01*
X74036635Y-85071123D01*
X73960084Y-85078663D01*
X73901389Y-85096468D01*
X73886475Y-85100992D01*
X73818636Y-85137252D01*
X73759175Y-85186051D01*
X73746950Y-85200947D01*
X65187436Y-93760462D01*
X65172540Y-93772687D01*
X65160315Y-93787583D01*
X65160314Y-93787584D01*
X65154056Y-93795209D01*
X65123741Y-93832148D01*
X65114289Y-93849832D01*
X65087480Y-93899988D01*
X65073590Y-93945777D01*
X65014103Y-93927732D01*
X64950000Y-93921418D01*
X64550000Y-93921418D01*
X64485897Y-93927732D01*
X64424257Y-93946430D01*
X64400000Y-93959396D01*
X64375743Y-93946430D01*
X64314103Y-93927732D01*
X64250000Y-93921418D01*
X63850000Y-93921418D01*
X63785897Y-93927732D01*
X63724257Y-93946430D01*
X63667450Y-93976794D01*
X63617657Y-94017657D01*
X63576794Y-94067450D01*
X63546430Y-94124257D01*
X63527732Y-94185897D01*
X63521418Y-94250000D01*
X63521418Y-99250000D01*
X63527732Y-99314103D01*
X63546430Y-99375743D01*
X63576794Y-99432550D01*
X63617657Y-99482343D01*
X63667450Y-99523206D01*
X63724257Y-99553570D01*
X63785897Y-99572268D01*
X63850000Y-99578582D01*
X64250000Y-99578582D01*
X64314103Y-99572268D01*
X64375743Y-99553570D01*
X64400000Y-99540604D01*
X64424257Y-99553570D01*
X64485897Y-99572268D01*
X64550000Y-99578582D01*
X64950000Y-99578582D01*
X65014103Y-99572268D01*
X65075743Y-99553570D01*
X65100000Y-99540604D01*
X65124257Y-99553570D01*
X65185897Y-99572268D01*
X65250000Y-99578582D01*
X65650000Y-99578582D01*
X65714103Y-99572268D01*
X65775743Y-99553570D01*
X65800000Y-99540604D01*
X65824257Y-99553570D01*
X65885897Y-99572268D01*
X65950000Y-99578582D01*
X66350000Y-99578582D01*
X66414103Y-99572268D01*
X66475743Y-99553570D01*
X66500000Y-99540604D01*
X66524257Y-99553570D01*
X66585897Y-99572268D01*
X66650000Y-99578582D01*
X67050000Y-99578582D01*
X67114103Y-99572268D01*
X67175743Y-99553570D01*
X67200000Y-99540604D01*
X67224257Y-99553570D01*
X67285897Y-99572268D01*
X67350000Y-99578582D01*
X67750000Y-99578582D01*
X67814103Y-99572268D01*
X67875743Y-99553570D01*
X67900000Y-99540604D01*
X67924257Y-99553570D01*
X67985897Y-99572268D01*
X68050000Y-99578582D01*
X68337918Y-99578582D01*
X68375230Y-99624126D01*
X68455419Y-99690052D01*
X68546930Y-99739066D01*
X68646244Y-99769286D01*
X68745250Y-99777000D01*
X68877000Y-99645250D01*
X68877000Y-97023000D01*
X68778582Y-97023000D01*
X68778582Y-96477000D01*
X68877000Y-96477000D01*
X68877000Y-93854750D01*
X68745250Y-93723000D01*
X68646244Y-93730714D01*
X68640500Y-93732462D01*
X68640500Y-93261750D01*
X70623001Y-91279249D01*
X70623001Y-92513710D01*
X70582889Y-92497095D01*
X70461754Y-92473000D01*
X70338246Y-92473000D01*
X70217111Y-92497095D01*
X70103004Y-92544360D01*
X70000311Y-92612977D01*
X69912977Y-92700311D01*
X69844360Y-92803004D01*
X69797095Y-92917111D01*
X69773000Y-93038246D01*
X69773000Y-93161754D01*
X69797095Y-93282889D01*
X69844360Y-93396996D01*
X69873001Y-93439860D01*
X69873001Y-93923684D01*
X69850000Y-93921418D01*
X69562082Y-93921418D01*
X69524770Y-93875874D01*
X69444581Y-93809948D01*
X69353070Y-93760934D01*
X69253756Y-93730714D01*
X69154750Y-93723000D01*
X69023000Y-93854750D01*
X69023000Y-96477000D01*
X69121418Y-96477000D01*
X69121418Y-97023000D01*
X69023000Y-97023000D01*
X69023000Y-99645250D01*
X69154750Y-99777000D01*
X69253756Y-99769286D01*
X69353070Y-99739066D01*
X69444581Y-99690052D01*
X69524770Y-99624126D01*
X69562082Y-99578582D01*
X69850000Y-99578582D01*
X69914103Y-99572268D01*
X69975743Y-99553570D01*
X70000000Y-99540604D01*
X70024257Y-99553570D01*
X70085897Y-99572268D01*
X70150000Y-99578582D01*
X70550000Y-99578582D01*
X70614103Y-99572268D01*
X70675743Y-99553570D01*
X70700000Y-99540604D01*
X70724257Y-99553570D01*
X70785897Y-99572268D01*
X70850000Y-99578582D01*
X71250000Y-99578582D01*
X71314103Y-99572268D01*
X71375743Y-99553570D01*
X71400000Y-99540604D01*
X71424257Y-99553570D01*
X71485897Y-99572268D01*
X71550000Y-99578582D01*
X71837918Y-99578582D01*
X71875230Y-99624126D01*
X71955419Y-99690052D01*
X72046930Y-99739066D01*
X72146244Y-99769286D01*
X72245250Y-99777000D01*
X72377000Y-99645250D01*
X72377000Y-97023000D01*
X72523000Y-97023000D01*
X72523000Y-99645250D01*
X72654750Y-99777000D01*
X72753756Y-99769286D01*
X72853070Y-99739066D01*
X72944581Y-99690052D01*
X73024770Y-99624126D01*
X73090557Y-99543824D01*
X73139414Y-99452229D01*
X73169463Y-99352864D01*
X73179550Y-99249545D01*
X73177000Y-97154750D01*
X73045250Y-97023000D01*
X72523000Y-97023000D01*
X72377000Y-97023000D01*
X72278582Y-97023000D01*
X72278582Y-96477000D01*
X72377000Y-96477000D01*
X72377000Y-93854750D01*
X72523000Y-93854750D01*
X72523000Y-96477000D01*
X73045250Y-96477000D01*
X73177000Y-96345250D01*
X73179550Y-94250455D01*
X73169463Y-94147136D01*
X73139414Y-94047771D01*
X73090557Y-93956176D01*
X73024770Y-93875874D01*
X72944581Y-93809948D01*
X72853070Y-93760934D01*
X72753756Y-93730714D01*
X72654750Y-93723000D01*
X72523000Y-93854750D01*
X72377000Y-93854750D01*
X72245250Y-93723000D01*
X72227000Y-93724422D01*
X72227000Y-93439859D01*
X72255640Y-93396996D01*
X72302905Y-93282889D01*
X72327000Y-93161754D01*
X72327000Y-93038246D01*
X72302905Y-92917111D01*
X72255640Y-92803004D01*
X72187023Y-92700311D01*
X72099689Y-92612977D01*
X71996996Y-92544360D01*
X71882889Y-92497095D01*
X71761754Y-92473000D01*
X71638246Y-92473000D01*
X71517111Y-92497095D01*
X71477000Y-92513710D01*
X71477000Y-91738246D01*
X87873000Y-91738246D01*
X87873000Y-91861754D01*
X87897095Y-91982889D01*
X87944360Y-92096996D01*
X88012977Y-92199689D01*
X88100311Y-92287023D01*
X88203004Y-92355640D01*
X88317111Y-92402905D01*
X88438246Y-92427000D01*
X88561754Y-92427000D01*
X88682889Y-92402905D01*
X88796996Y-92355640D01*
X88839859Y-92327000D01*
X89274119Y-92327000D01*
X89300000Y-92329549D01*
X89325881Y-92327000D01*
X89403310Y-92319374D01*
X89502650Y-92289239D01*
X89594202Y-92240304D01*
X89674448Y-92174448D01*
X89690955Y-92154334D01*
X89850772Y-91994517D01*
X117179845Y-91994517D01*
X117195761Y-92103159D01*
X117317438Y-92272249D01*
X117469765Y-92414352D01*
X117646888Y-92524007D01*
X117842000Y-92597000D01*
X118392000Y-92597000D01*
X118392000Y-91843000D01*
X118938000Y-91843000D01*
X118938000Y-92597000D01*
X119488000Y-92597000D01*
X119683112Y-92524007D01*
X119860235Y-92414352D01*
X120012562Y-92272249D01*
X120134239Y-92103159D01*
X120150155Y-91994517D01*
X121609845Y-91994517D01*
X121620388Y-92025983D01*
X121727112Y-92197604D01*
X121865267Y-92345107D01*
X122029544Y-92462823D01*
X122213629Y-92546228D01*
X122410449Y-92592117D01*
X122572000Y-92468831D01*
X122572000Y-91843000D01*
X123118000Y-91843000D01*
X123118000Y-92468831D01*
X123279551Y-92592117D01*
X123476371Y-92546228D01*
X123660456Y-92462823D01*
X123824733Y-92345107D01*
X123962888Y-92197604D01*
X124069612Y-92025983D01*
X124080155Y-91994517D01*
X123997610Y-91843000D01*
X123118000Y-91843000D01*
X122572000Y-91843000D01*
X121692390Y-91843000D01*
X121609845Y-91994517D01*
X120150155Y-91994517D01*
X120067610Y-91843000D01*
X118938000Y-91843000D01*
X118392000Y-91843000D01*
X117262390Y-91843000D01*
X117179845Y-91994517D01*
X89850772Y-91994517D01*
X90094999Y-91750291D01*
X90103004Y-91755640D01*
X90217111Y-91802905D01*
X90338246Y-91827000D01*
X90461754Y-91827000D01*
X90582889Y-91802905D01*
X90696996Y-91755640D01*
X90799689Y-91687023D01*
X90887023Y-91599689D01*
X90955640Y-91496996D01*
X91002905Y-91382889D01*
X91027000Y-91261754D01*
X91027000Y-91145483D01*
X117179845Y-91145483D01*
X117262390Y-91297000D01*
X118392000Y-91297000D01*
X118392000Y-90543000D01*
X117842000Y-90543000D01*
X117646888Y-90615993D01*
X117469765Y-90725648D01*
X117317438Y-90867751D01*
X117195761Y-91036841D01*
X117179845Y-91145483D01*
X91027000Y-91145483D01*
X91027000Y-91138246D01*
X91002905Y-91017111D01*
X90955640Y-90903004D01*
X90887023Y-90800311D01*
X90799689Y-90712977D01*
X90696996Y-90644360D01*
X90582889Y-90597095D01*
X90461754Y-90573000D01*
X90338246Y-90573000D01*
X90217111Y-90597095D01*
X90103004Y-90644360D01*
X90060141Y-90673000D01*
X89925880Y-90673000D01*
X89899999Y-90670451D01*
X89796690Y-90680626D01*
X89697350Y-90710761D01*
X89605798Y-90759696D01*
X89525552Y-90825552D01*
X89509049Y-90845661D01*
X89081711Y-91273000D01*
X88839859Y-91273000D01*
X88796996Y-91244360D01*
X88682889Y-91197095D01*
X88561754Y-91173000D01*
X88438246Y-91173000D01*
X88317111Y-91197095D01*
X88203004Y-91244360D01*
X88100311Y-91312977D01*
X88012977Y-91400311D01*
X87944360Y-91503004D01*
X87897095Y-91617111D01*
X87873000Y-91738246D01*
X71477000Y-91738246D01*
X71477000Y-91401868D01*
X74726869Y-88152000D01*
X74811754Y-88152000D01*
X74932889Y-88127905D01*
X75046996Y-88080640D01*
X75149689Y-88012023D01*
X75237023Y-87924689D01*
X75305640Y-87821996D01*
X75352905Y-87707889D01*
X75377000Y-87586754D01*
X75377000Y-87463246D01*
X75352905Y-87342111D01*
X75305640Y-87228004D01*
X75261575Y-87162056D01*
X85084266Y-87162056D01*
X85103444Y-87163945D01*
X85122622Y-87162056D01*
X85179995Y-87156405D01*
X85253605Y-87134076D01*
X85321444Y-87097816D01*
X85380905Y-87049017D01*
X85393134Y-87034116D01*
X86600250Y-85827000D01*
X86621957Y-85827000D01*
X86743092Y-85802905D01*
X86857199Y-85755640D01*
X86959892Y-85687023D01*
X87047226Y-85599689D01*
X87115843Y-85496996D01*
X87163108Y-85382889D01*
X87187203Y-85261754D01*
X87187203Y-85138246D01*
X87163108Y-85017111D01*
X87115843Y-84903004D01*
X87047226Y-84800311D01*
X86959892Y-84712977D01*
X86863937Y-84648862D01*
X86894889Y-84574137D01*
X86918984Y-84453002D01*
X86918984Y-84329494D01*
X86894889Y-84208359D01*
X86847624Y-84094252D01*
X86779007Y-83991559D01*
X86691673Y-83904225D01*
X86588980Y-83835608D01*
X86474873Y-83788343D01*
X86353738Y-83764248D01*
X86290024Y-83764248D01*
X86525238Y-83529034D01*
X87906837Y-83529034D01*
X87912977Y-83538223D01*
X88000311Y-83625557D01*
X88103004Y-83694174D01*
X88217111Y-83741439D01*
X88338246Y-83765534D01*
X88461754Y-83765534D01*
X88582889Y-83741439D01*
X88696996Y-83694174D01*
X88799689Y-83625557D01*
X88887023Y-83538223D01*
X88955640Y-83435530D01*
X89002905Y-83321423D01*
X89027000Y-83200288D01*
X89027000Y-83076780D01*
X89002905Y-82955645D01*
X88955640Y-82841538D01*
X88887023Y-82738845D01*
X88886706Y-82738528D01*
X88887023Y-82738210D01*
X88955640Y-82635517D01*
X89002905Y-82521410D01*
X89027000Y-82400275D01*
X89027000Y-82276767D01*
X89004870Y-82165511D01*
X89937379Y-82165511D01*
X90973001Y-83201134D01*
X90973000Y-85664292D01*
X90969483Y-85700000D01*
X90983520Y-85842517D01*
X91013298Y-85940683D01*
X91025090Y-85979556D01*
X91092597Y-86105852D01*
X91183446Y-86216553D01*
X91211189Y-86239321D01*
X93356581Y-88384715D01*
X93344360Y-88403004D01*
X93297095Y-88517111D01*
X93273000Y-88638246D01*
X93273000Y-88761754D01*
X93297095Y-88882889D01*
X93344360Y-88996996D01*
X93412977Y-89099689D01*
X93500311Y-89187023D01*
X93603004Y-89255640D01*
X93717111Y-89302905D01*
X93838246Y-89327000D01*
X93961754Y-89327000D01*
X94082889Y-89302905D01*
X94196996Y-89255640D01*
X94299689Y-89187023D01*
X94387023Y-89099689D01*
X94455640Y-88996996D01*
X94502905Y-88882889D01*
X94527000Y-88761754D01*
X94527000Y-88638246D01*
X94524763Y-88627000D01*
X99064292Y-88627000D01*
X99100000Y-88630517D01*
X99242517Y-88616480D01*
X99360667Y-88580640D01*
X99379557Y-88574910D01*
X99505853Y-88507403D01*
X99616554Y-88416554D01*
X99639326Y-88388806D01*
X100618520Y-87409613D01*
X100644360Y-87471996D01*
X100712977Y-87574689D01*
X100738288Y-87600000D01*
X100712977Y-87625311D01*
X100644360Y-87728004D01*
X100597095Y-87842111D01*
X100573000Y-87963246D01*
X100573000Y-88086754D01*
X100597095Y-88207889D01*
X100644360Y-88321996D01*
X100712977Y-88424689D01*
X100800311Y-88512023D01*
X100903004Y-88580640D01*
X101017111Y-88627905D01*
X101138246Y-88652000D01*
X101261754Y-88652000D01*
X101382889Y-88627905D01*
X101496996Y-88580640D01*
X101599689Y-88512023D01*
X101687023Y-88424689D01*
X101755640Y-88321996D01*
X101784633Y-88252000D01*
X109072233Y-88252000D01*
X109093200Y-88254065D01*
X109114167Y-88252000D01*
X109114178Y-88252000D01*
X109176907Y-88245822D01*
X109257396Y-88221405D01*
X109331576Y-88181755D01*
X109396595Y-88128395D01*
X109409968Y-88112100D01*
X109770069Y-87752000D01*
X113492495Y-87752000D01*
X113567111Y-87782907D01*
X113688246Y-87807002D01*
X113811754Y-87807002D01*
X113932889Y-87782907D01*
X114046996Y-87735642D01*
X114149689Y-87667025D01*
X114209712Y-87607002D01*
X115095985Y-87607002D01*
X115615841Y-88126859D01*
X115615841Y-88211744D01*
X115639936Y-88332879D01*
X115687201Y-88446986D01*
X115755818Y-88549679D01*
X115843152Y-88637013D01*
X115945845Y-88705630D01*
X116059952Y-88752895D01*
X116181087Y-88776990D01*
X116304595Y-88776990D01*
X116370023Y-88763976D01*
X116090544Y-89043455D01*
X116028004Y-89069360D01*
X115925311Y-89137977D01*
X115837977Y-89225311D01*
X115769360Y-89328004D01*
X115722095Y-89442111D01*
X115698000Y-89563246D01*
X115698000Y-89686754D01*
X115722095Y-89807889D01*
X115769360Y-89921996D01*
X115837977Y-90024689D01*
X115925311Y-90112023D01*
X116028004Y-90180640D01*
X116142111Y-90227905D01*
X116263246Y-90252000D01*
X116386754Y-90252000D01*
X116507889Y-90227905D01*
X116621996Y-90180640D01*
X116724689Y-90112023D01*
X116760928Y-90075784D01*
X118543000Y-90075784D01*
X118543000Y-90204216D01*
X118568056Y-90330181D01*
X118617205Y-90448838D01*
X118688558Y-90555626D01*
X118779374Y-90646442D01*
X118886162Y-90717795D01*
X118938000Y-90739267D01*
X118938000Y-91297000D01*
X120067610Y-91297000D01*
X120150155Y-91145483D01*
X121609845Y-91145483D01*
X121692390Y-91297000D01*
X122572000Y-91297000D01*
X122572000Y-90671169D01*
X123118000Y-90671169D01*
X123118000Y-91297000D01*
X123997610Y-91297000D01*
X124080155Y-91145483D01*
X124069612Y-91114017D01*
X123962888Y-90942396D01*
X123824733Y-90794893D01*
X123660456Y-90677177D01*
X123476371Y-90593772D01*
X123279551Y-90547883D01*
X123118000Y-90671169D01*
X122572000Y-90671169D01*
X122410449Y-90547883D01*
X122213629Y-90593772D01*
X122029544Y-90677177D01*
X121865267Y-90794893D01*
X121727112Y-90942396D01*
X121620388Y-91114017D01*
X121609845Y-91145483D01*
X120150155Y-91145483D01*
X120134239Y-91036841D01*
X120012562Y-90867751D01*
X119860235Y-90725648D01*
X119683112Y-90615993D01*
X119652520Y-90604548D01*
X119701442Y-90555626D01*
X119772795Y-90448838D01*
X119821944Y-90330181D01*
X119847000Y-90204216D01*
X119847000Y-90075784D01*
X119821944Y-89949819D01*
X119772795Y-89831162D01*
X119701442Y-89724374D01*
X119610626Y-89633558D01*
X119503838Y-89562205D01*
X119385181Y-89513056D01*
X119259216Y-89488000D01*
X119130784Y-89488000D01*
X119004819Y-89513056D01*
X118886162Y-89562205D01*
X118779374Y-89633558D01*
X118688558Y-89724374D01*
X118617205Y-89831162D01*
X118568056Y-89949819D01*
X118543000Y-90075784D01*
X116760928Y-90075784D01*
X116812023Y-90024689D01*
X116880640Y-89921996D01*
X116906545Y-89859456D01*
X117512962Y-89253039D01*
X117534974Y-89234974D01*
X117607079Y-89147115D01*
X117660657Y-89046876D01*
X117675788Y-88996996D01*
X117693651Y-88938112D01*
X117704790Y-88825000D01*
X117702000Y-88796669D01*
X117702000Y-85354067D01*
X117704790Y-85325736D01*
X117701680Y-85294147D01*
X117698610Y-85262977D01*
X117693651Y-85212624D01*
X117671088Y-85138246D01*
X117660657Y-85103860D01*
X117607079Y-85003621D01*
X117558444Y-84944360D01*
X117553037Y-84937771D01*
X117553035Y-84937769D01*
X117534974Y-84915762D01*
X117512968Y-84897702D01*
X117027303Y-84412038D01*
X117009238Y-84390026D01*
X116921379Y-84317921D01*
X116879963Y-84295784D01*
X118543000Y-84295784D01*
X118543000Y-84424216D01*
X118568056Y-84550181D01*
X118617205Y-84668838D01*
X118688558Y-84775626D01*
X118779374Y-84866442D01*
X118886162Y-84937795D01*
X119004819Y-84986944D01*
X119130784Y-85012000D01*
X119259216Y-85012000D01*
X119385181Y-84986944D01*
X119503838Y-84937795D01*
X119610626Y-84866442D01*
X119701442Y-84775626D01*
X119772795Y-84668838D01*
X119821944Y-84550181D01*
X119847000Y-84424216D01*
X119847000Y-84295784D01*
X119821944Y-84169819D01*
X119772795Y-84051162D01*
X119701442Y-83944374D01*
X119652520Y-83895452D01*
X119683112Y-83884007D01*
X119860235Y-83774352D01*
X120012562Y-83632249D01*
X120134239Y-83463159D01*
X120150155Y-83354517D01*
X121609845Y-83354517D01*
X121620388Y-83385983D01*
X121727112Y-83557604D01*
X121865267Y-83705107D01*
X122029544Y-83822823D01*
X122213629Y-83906228D01*
X122410449Y-83952117D01*
X122572000Y-83828831D01*
X122572000Y-83203000D01*
X123118000Y-83203000D01*
X123118000Y-83828831D01*
X123279551Y-83952117D01*
X123476371Y-83906228D01*
X123660456Y-83822823D01*
X123824733Y-83705107D01*
X123962888Y-83557604D01*
X124069612Y-83385983D01*
X124080155Y-83354517D01*
X123997610Y-83203000D01*
X123118000Y-83203000D01*
X122572000Y-83203000D01*
X121692390Y-83203000D01*
X121609845Y-83354517D01*
X120150155Y-83354517D01*
X120067610Y-83203000D01*
X118938000Y-83203000D01*
X118938000Y-83760733D01*
X118886162Y-83782205D01*
X118779374Y-83853558D01*
X118688558Y-83944374D01*
X118617205Y-84051162D01*
X118568056Y-84169819D01*
X118543000Y-84295784D01*
X116879963Y-84295784D01*
X116821140Y-84264343D01*
X116757034Y-84244897D01*
X116712375Y-84231349D01*
X116657309Y-84225926D01*
X116627600Y-84223000D01*
X116627595Y-84223000D01*
X116599264Y-84220210D01*
X116570933Y-84223000D01*
X116420429Y-84223000D01*
X116357889Y-84197095D01*
X116236754Y-84173000D01*
X116113246Y-84173000D01*
X115992111Y-84197095D01*
X115878004Y-84244360D01*
X115775311Y-84312977D01*
X115687977Y-84400311D01*
X115619360Y-84503004D01*
X115577000Y-84605269D01*
X115577000Y-83354517D01*
X117179845Y-83354517D01*
X117195761Y-83463159D01*
X117317438Y-83632249D01*
X117469765Y-83774352D01*
X117646888Y-83884007D01*
X117842000Y-83957000D01*
X118392000Y-83957000D01*
X118392000Y-83203000D01*
X117262390Y-83203000D01*
X117179845Y-83354517D01*
X115577000Y-83354517D01*
X115577000Y-82505483D01*
X117179845Y-82505483D01*
X117262390Y-82657000D01*
X118392000Y-82657000D01*
X118392000Y-81903000D01*
X118938000Y-81903000D01*
X118938000Y-82657000D01*
X120067610Y-82657000D01*
X120150155Y-82505483D01*
X121609845Y-82505483D01*
X121692390Y-82657000D01*
X122572000Y-82657000D01*
X122572000Y-82031169D01*
X123118000Y-82031169D01*
X123118000Y-82657000D01*
X123997610Y-82657000D01*
X124080155Y-82505483D01*
X124069612Y-82474017D01*
X123962888Y-82302396D01*
X123824733Y-82154893D01*
X123660456Y-82037177D01*
X123476371Y-81953772D01*
X123279551Y-81907883D01*
X123118000Y-82031169D01*
X122572000Y-82031169D01*
X122410449Y-81907883D01*
X122213629Y-81953772D01*
X122029544Y-82037177D01*
X121865267Y-82154893D01*
X121727112Y-82302396D01*
X121620388Y-82474017D01*
X121609845Y-82505483D01*
X120150155Y-82505483D01*
X120134239Y-82396841D01*
X120012562Y-82227751D01*
X119860235Y-82085648D01*
X119683112Y-81975993D01*
X119488000Y-81903000D01*
X118938000Y-81903000D01*
X118392000Y-81903000D01*
X117842000Y-81903000D01*
X117646888Y-81975993D01*
X117469765Y-82085648D01*
X117317438Y-82227751D01*
X117195761Y-82396841D01*
X117179845Y-82505483D01*
X115577000Y-82505483D01*
X115577000Y-80352000D01*
X122982795Y-80352000D01*
X123319768Y-80385041D01*
X123627358Y-80477906D01*
X123911057Y-80628751D01*
X124160048Y-80831824D01*
X124364856Y-81079395D01*
X124517675Y-81362027D01*
X124612687Y-81668961D01*
X124648001Y-82004954D01*
X124648000Y-117982784D01*
X124614958Y-118319768D01*
X124522091Y-118627361D01*
X124371250Y-118911052D01*
X124168176Y-119160046D01*
X123920607Y-119364854D01*
X123637974Y-119517673D01*
X123331039Y-119612685D01*
X122995046Y-119648000D01*
X62017206Y-119648000D01*
X61680232Y-119614959D01*
X61372639Y-119522092D01*
X61088943Y-119371248D01*
X60839954Y-119168178D01*
X60635144Y-118920605D01*
X60482325Y-118637973D01*
X60387314Y-118331039D01*
X60352000Y-117995056D01*
X60351998Y-82017225D01*
X60385041Y-81680232D01*
X60477906Y-81372642D01*
X60628751Y-81088943D01*
X60831824Y-80839952D01*
X61079395Y-80635144D01*
X61362027Y-80482325D01*
X61668961Y-80387313D01*
X62004944Y-80352000D01*
X63148000Y-80352000D01*
X63148001Y-80982699D01*
G37*
X63148001Y-80982699D02*
X63146297Y-81000000D01*
X63153093Y-81069004D01*
X63173221Y-81135356D01*
X63205907Y-81196507D01*
X63249894Y-81250106D01*
X63303493Y-81294093D01*
X63364644Y-81326779D01*
X63430996Y-81346907D01*
X63482708Y-81352000D01*
X63482709Y-81352000D01*
X63500000Y-81353703D01*
X63517292Y-81352000D01*
X72982708Y-81352000D01*
X73000000Y-81353703D01*
X73017291Y-81352000D01*
X73017292Y-81352000D01*
X73069004Y-81346907D01*
X73135356Y-81326779D01*
X73196507Y-81294093D01*
X73231454Y-81265413D01*
X61486190Y-93010678D01*
X61458446Y-93033447D01*
X61367597Y-93144148D01*
X61342968Y-93190225D01*
X61300090Y-93270444D01*
X61258520Y-93407483D01*
X61244483Y-93550000D01*
X61248000Y-93585708D01*
X61248001Y-101014282D01*
X61244483Y-101050000D01*
X61258520Y-101192517D01*
X61300090Y-101329556D01*
X61300091Y-101329557D01*
X61367598Y-101455853D01*
X61458447Y-101566554D01*
X61486189Y-101589321D01*
X77160679Y-117263812D01*
X77183446Y-117291554D01*
X77294147Y-117382403D01*
X77420443Y-117449910D01*
X77557483Y-117491480D01*
X77664292Y-117502000D01*
X77664294Y-117502000D01*
X77699999Y-117505517D01*
X77735705Y-117502000D01*
X94260708Y-117502000D01*
X94367517Y-117491480D01*
X94504557Y-117449910D01*
X94630853Y-117382403D01*
X94741554Y-117291554D01*
X94832403Y-117180853D01*
X94899910Y-117054557D01*
X94941480Y-116917517D01*
X94955517Y-116775000D01*
X94941480Y-116632483D01*
X94899910Y-116495443D01*
X94832403Y-116369147D01*
X94741554Y-116258446D01*
X94630853Y-116167597D01*
X94504557Y-116100090D01*
X94367517Y-116058520D01*
X94260708Y-116048000D01*
X78001133Y-116048000D01*
X73143874Y-111190741D01*
X100489597Y-111190741D01*
X100489597Y-111314249D01*
X100513692Y-111435384D01*
X100560957Y-111549491D01*
X100629574Y-111652184D01*
X100716908Y-111739518D01*
X100819601Y-111808135D01*
X100933708Y-111855400D01*
X101054843Y-111879495D01*
X101127245Y-111879495D01*
X101275156Y-112027406D01*
X101273000Y-112038246D01*
X101273000Y-112161754D01*
X101297095Y-112282889D01*
X101344360Y-112396996D01*
X101412977Y-112499689D01*
X101500311Y-112587023D01*
X101603004Y-112655640D01*
X101717111Y-112702905D01*
X101838246Y-112727000D01*
X101961754Y-112727000D01*
X102082889Y-112702905D01*
X102196996Y-112655640D01*
X102299689Y-112587023D01*
X102387023Y-112499689D01*
X102455640Y-112396996D01*
X102502905Y-112282889D01*
X102527000Y-112161754D01*
X102527000Y-112038246D01*
X102502905Y-111917111D01*
X102455640Y-111803004D01*
X102387023Y-111700311D01*
X102299689Y-111612977D01*
X102196996Y-111544360D01*
X102082889Y-111497095D01*
X101961754Y-111473000D01*
X101838246Y-111473000D01*
X101827406Y-111475156D01*
X101730806Y-111378556D01*
X101743597Y-111314249D01*
X101743597Y-111190741D01*
X101719502Y-111069606D01*
X101672237Y-110955499D01*
X101603620Y-110852806D01*
X101516286Y-110765472D01*
X101413593Y-110696855D01*
X101299486Y-110649590D01*
X101178351Y-110625495D01*
X101054843Y-110625495D01*
X100933708Y-110649590D01*
X100819601Y-110696855D01*
X100716908Y-110765472D01*
X100629574Y-110852806D01*
X100560957Y-110955499D01*
X100513692Y-111069606D01*
X100489597Y-111190741D01*
X73143874Y-111190741D01*
X67820424Y-105867291D01*
X75898000Y-105867291D01*
X75899475Y-105882267D01*
X75899458Y-105884695D01*
X75899938Y-105889587D01*
X75908098Y-105967225D01*
X75914512Y-105998471D01*
X75920491Y-106029816D01*
X75921912Y-106034521D01*
X75944997Y-106109096D01*
X75957351Y-106138484D01*
X75969310Y-106168085D01*
X75971618Y-106172425D01*
X76008748Y-106241096D01*
X76026595Y-106267555D01*
X76044057Y-106294241D01*
X76047164Y-106298050D01*
X76096925Y-106358201D01*
X76119542Y-106380660D01*
X76141885Y-106403476D01*
X76145672Y-106406609D01*
X76206169Y-106455949D01*
X76232738Y-106473601D01*
X76259066Y-106491628D01*
X76263390Y-106493966D01*
X76332319Y-106530616D01*
X76361771Y-106542755D01*
X76391135Y-106555341D01*
X76395831Y-106556794D01*
X76470565Y-106579358D01*
X76501816Y-106585546D01*
X76533068Y-106592189D01*
X76537957Y-106592702D01*
X76615436Y-106600299D01*
X76632708Y-106602000D01*
X83867292Y-106602000D01*
X83882268Y-106600525D01*
X83884695Y-106600542D01*
X83889587Y-106600062D01*
X83967225Y-106591902D01*
X83998471Y-106585488D01*
X84029816Y-106579509D01*
X84034521Y-106578088D01*
X84109096Y-106555003D01*
X84138484Y-106542649D01*
X84168085Y-106530690D01*
X84172425Y-106528382D01*
X84241096Y-106491252D01*
X84267555Y-106473405D01*
X84294241Y-106455943D01*
X84298050Y-106452836D01*
X84358201Y-106403075D01*
X84380660Y-106380458D01*
X84403476Y-106358115D01*
X84406609Y-106354328D01*
X84455949Y-106293831D01*
X84473601Y-106267262D01*
X84491628Y-106240934D01*
X84493966Y-106236610D01*
X84530616Y-106167681D01*
X84542755Y-106138229D01*
X84555341Y-106108865D01*
X84556794Y-106104169D01*
X84579358Y-106029435D01*
X84585546Y-105998184D01*
X84592189Y-105966932D01*
X84592702Y-105962043D01*
X84600320Y-105884349D01*
X84602000Y-105867292D01*
X84602000Y-105740714D01*
X117645366Y-105740714D01*
X118025443Y-106182199D01*
X118684200Y-106506271D01*
X119393523Y-106695599D01*
X120126152Y-106742907D01*
X120853933Y-106646377D01*
X121548898Y-106409719D01*
X121974557Y-106182199D01*
X122354634Y-105740714D01*
X120000000Y-103386080D01*
X117645366Y-105740714D01*
X84602000Y-105740714D01*
X84602000Y-105167215D01*
X84604570Y-105141006D01*
X84607183Y-105132352D01*
X84611426Y-105124372D01*
X84617139Y-105117367D01*
X84624101Y-105111607D01*
X84632054Y-105107307D01*
X84640688Y-105104634D01*
X84665752Y-105102000D01*
X115867292Y-105102000D01*
X115882268Y-105100525D01*
X115884695Y-105100542D01*
X115889587Y-105100062D01*
X115967225Y-105091902D01*
X115998471Y-105085488D01*
X116029816Y-105079509D01*
X116034521Y-105078088D01*
X116109096Y-105055003D01*
X116138484Y-105042649D01*
X116168085Y-105030690D01*
X116172425Y-105028382D01*
X116241096Y-104991252D01*
X116267555Y-104973405D01*
X116294241Y-104955943D01*
X116298050Y-104952836D01*
X116358201Y-104903075D01*
X116380660Y-104880458D01*
X116403476Y-104858115D01*
X116406609Y-104854328D01*
X116455949Y-104793831D01*
X116473601Y-104767262D01*
X116491628Y-104740934D01*
X116493966Y-104736610D01*
X116530616Y-104667681D01*
X116542755Y-104638229D01*
X116555341Y-104608865D01*
X116556794Y-104604169D01*
X116579358Y-104529435D01*
X116580937Y-104521459D01*
X116590281Y-104548898D01*
X116817801Y-104974557D01*
X117259286Y-105354634D01*
X119613920Y-103000000D01*
X120386080Y-103000000D01*
X122740714Y-105354634D01*
X123182199Y-104974557D01*
X123506271Y-104315800D01*
X123695599Y-103606477D01*
X123742907Y-102873848D01*
X123646377Y-102146067D01*
X123409719Y-101451102D01*
X123182199Y-101025443D01*
X122740714Y-100645366D01*
X120386080Y-103000000D01*
X119613920Y-103000000D01*
X117259286Y-100645366D01*
X116817801Y-101025443D01*
X116602000Y-101464112D01*
X116602000Y-99740714D01*
X117645366Y-99740714D01*
X117868587Y-100000000D01*
X117645366Y-100259286D01*
X120000000Y-102613920D01*
X122354634Y-100259286D01*
X122131413Y-100000000D01*
X122354634Y-99740714D01*
X120000000Y-97386080D01*
X117645366Y-99740714D01*
X116602000Y-99740714D01*
X116602000Y-98570823D01*
X116817801Y-98974557D01*
X117259286Y-99354634D01*
X119613920Y-97000000D01*
X120386080Y-97000000D01*
X122740714Y-99354634D01*
X123182199Y-98974557D01*
X123506271Y-98315800D01*
X123695599Y-97606477D01*
X123742907Y-96873848D01*
X123646377Y-96146067D01*
X123409719Y-95451102D01*
X123182199Y-95025443D01*
X122740714Y-94645366D01*
X120386080Y-97000000D01*
X119613920Y-97000000D01*
X117259286Y-94645366D01*
X116817801Y-95025443D01*
X116584959Y-95498753D01*
X116579509Y-95470184D01*
X116578088Y-95465479D01*
X116555003Y-95390904D01*
X116542635Y-95361483D01*
X116530689Y-95331915D01*
X116528382Y-95327575D01*
X116491252Y-95258904D01*
X116473420Y-95232468D01*
X116455943Y-95205759D01*
X116452836Y-95201950D01*
X116403075Y-95141799D01*
X116380458Y-95119340D01*
X116358115Y-95096524D01*
X116354328Y-95093391D01*
X116293831Y-95044051D01*
X116267262Y-95026399D01*
X116240934Y-95008372D01*
X116236610Y-95006034D01*
X116167681Y-94969384D01*
X116138229Y-94957245D01*
X116108865Y-94944659D01*
X116104169Y-94943206D01*
X116029435Y-94920642D01*
X115998191Y-94914456D01*
X115966932Y-94907811D01*
X115962044Y-94907298D01*
X115884564Y-94899701D01*
X115867292Y-94898000D01*
X84667216Y-94898000D01*
X84641006Y-94895430D01*
X84632352Y-94892817D01*
X84624372Y-94888574D01*
X84617367Y-94882861D01*
X84611607Y-94875899D01*
X84607307Y-94867946D01*
X84604634Y-94859312D01*
X84602000Y-94834248D01*
X84602000Y-94259286D01*
X117645366Y-94259286D01*
X120000000Y-96613920D01*
X122354634Y-94259286D01*
X121974557Y-93817801D01*
X121315800Y-93493729D01*
X120606477Y-93304401D01*
X119873848Y-93257093D01*
X119146067Y-93353623D01*
X118451102Y-93590281D01*
X118025443Y-93817801D01*
X117645366Y-94259286D01*
X84602000Y-94259286D01*
X84602000Y-94132708D01*
X84600525Y-94117732D01*
X84600542Y-94115305D01*
X84600062Y-94110414D01*
X84591902Y-94032775D01*
X84585490Y-94001542D01*
X84579509Y-93970184D01*
X84578088Y-93965479D01*
X84555003Y-93890904D01*
X84542635Y-93861483D01*
X84530689Y-93831915D01*
X84528382Y-93827575D01*
X84491252Y-93758904D01*
X84473420Y-93732468D01*
X84455943Y-93705759D01*
X84452836Y-93701950D01*
X84403075Y-93641799D01*
X84380458Y-93619340D01*
X84358115Y-93596524D01*
X84354328Y-93593391D01*
X84293831Y-93544051D01*
X84267262Y-93526399D01*
X84240934Y-93508372D01*
X84236610Y-93506034D01*
X84167681Y-93469384D01*
X84138229Y-93457245D01*
X84108865Y-93444659D01*
X84104169Y-93443206D01*
X84029435Y-93420642D01*
X83998191Y-93414456D01*
X83966932Y-93407811D01*
X83962044Y-93407298D01*
X83884564Y-93399701D01*
X83867292Y-93398000D01*
X76632708Y-93398000D01*
X76617732Y-93399475D01*
X76615305Y-93399458D01*
X76610414Y-93399938D01*
X76532775Y-93408098D01*
X76501542Y-93414510D01*
X76470184Y-93420491D01*
X76465479Y-93421912D01*
X76390904Y-93444997D01*
X76361483Y-93457365D01*
X76331915Y-93469311D01*
X76327575Y-93471618D01*
X76258904Y-93508748D01*
X76232468Y-93526580D01*
X76205759Y-93544057D01*
X76201950Y-93547164D01*
X76141799Y-93596925D01*
X76119340Y-93619542D01*
X76096524Y-93641885D01*
X76093391Y-93645672D01*
X76044051Y-93706169D01*
X76026399Y-93732738D01*
X76008372Y-93759066D01*
X76006034Y-93763390D01*
X75969384Y-93832319D01*
X75957245Y-93861771D01*
X75944659Y-93891135D01*
X75943206Y-93895831D01*
X75920642Y-93970565D01*
X75914456Y-94001809D01*
X75907811Y-94033068D01*
X75907298Y-94037956D01*
X75899680Y-94115651D01*
X75899680Y-94115660D01*
X75898001Y-94132708D01*
X75898000Y-105867291D01*
X67820424Y-105867291D01*
X62702000Y-100748868D01*
X62702000Y-93851132D01*
X74826133Y-81727000D01*
X80598867Y-81727000D01*
X80711182Y-81839315D01*
X80711187Y-81839319D01*
X81160680Y-82288813D01*
X81183448Y-82316556D01*
X81294149Y-82407405D01*
X81408836Y-82468707D01*
X81420445Y-82474912D01*
X81557484Y-82516482D01*
X81700001Y-82530519D01*
X81735709Y-82527002D01*
X84496294Y-82527002D01*
X84532002Y-82530519D01*
X84648731Y-82519022D01*
X84674519Y-82516482D01*
X84811559Y-82474912D01*
X84937855Y-82407405D01*
X85048556Y-82316556D01*
X85071328Y-82288808D01*
X85194625Y-82165511D01*
X85729898Y-82165511D01*
X84073402Y-83822008D01*
X84058501Y-83834237D01*
X84009702Y-83893699D01*
X83975868Y-83957000D01*
X83973442Y-83961538D01*
X83951113Y-84035147D01*
X83950704Y-84039296D01*
X83936273Y-84048939D01*
X83848939Y-84136273D01*
X83780322Y-84238966D01*
X83733057Y-84353073D01*
X83730026Y-84368314D01*
X83674689Y-84312977D01*
X83571996Y-84244360D01*
X83457889Y-84197095D01*
X83336754Y-84173000D01*
X83213246Y-84173000D01*
X83092111Y-84197095D01*
X82978004Y-84244360D01*
X82875311Y-84312977D01*
X82787977Y-84400311D01*
X82781837Y-84409500D01*
X82294462Y-84409500D01*
X82196988Y-84344370D01*
X82082881Y-84297105D01*
X81961746Y-84273010D01*
X81838238Y-84273010D01*
X81717103Y-84297105D01*
X81602996Y-84344370D01*
X81500303Y-84412987D01*
X81412969Y-84500321D01*
X81344352Y-84603014D01*
X81297087Y-84717121D01*
X81272992Y-84838256D01*
X81272992Y-84961764D01*
X81295120Y-85073012D01*
X74055814Y-85073012D01*
X74036635Y-85071123D01*
X73960084Y-85078663D01*
X73901389Y-85096468D01*
X73886475Y-85100992D01*
X73818636Y-85137252D01*
X73759175Y-85186051D01*
X73746950Y-85200947D01*
X65187436Y-93760462D01*
X65172540Y-93772687D01*
X65160315Y-93787583D01*
X65160314Y-93787584D01*
X65154056Y-93795209D01*
X65123741Y-93832148D01*
X65114289Y-93849832D01*
X65087480Y-93899988D01*
X65073590Y-93945777D01*
X65014103Y-93927732D01*
X64950000Y-93921418D01*
X64550000Y-93921418D01*
X64485897Y-93927732D01*
X64424257Y-93946430D01*
X64400000Y-93959396D01*
X64375743Y-93946430D01*
X64314103Y-93927732D01*
X64250000Y-93921418D01*
X63850000Y-93921418D01*
X63785897Y-93927732D01*
X63724257Y-93946430D01*
X63667450Y-93976794D01*
X63617657Y-94017657D01*
X63576794Y-94067450D01*
X63546430Y-94124257D01*
X63527732Y-94185897D01*
X63521418Y-94250000D01*
X63521418Y-99250000D01*
X63527732Y-99314103D01*
X63546430Y-99375743D01*
X63576794Y-99432550D01*
X63617657Y-99482343D01*
X63667450Y-99523206D01*
X63724257Y-99553570D01*
X63785897Y-99572268D01*
X63850000Y-99578582D01*
X64250000Y-99578582D01*
X64314103Y-99572268D01*
X64375743Y-99553570D01*
X64400000Y-99540604D01*
X64424257Y-99553570D01*
X64485897Y-99572268D01*
X64550000Y-99578582D01*
X64950000Y-99578582D01*
X65014103Y-99572268D01*
X65075743Y-99553570D01*
X65100000Y-99540604D01*
X65124257Y-99553570D01*
X65185897Y-99572268D01*
X65250000Y-99578582D01*
X65650000Y-99578582D01*
X65714103Y-99572268D01*
X65775743Y-99553570D01*
X65800000Y-99540604D01*
X65824257Y-99553570D01*
X65885897Y-99572268D01*
X65950000Y-99578582D01*
X66350000Y-99578582D01*
X66414103Y-99572268D01*
X66475743Y-99553570D01*
X66500000Y-99540604D01*
X66524257Y-99553570D01*
X66585897Y-99572268D01*
X66650000Y-99578582D01*
X67050000Y-99578582D01*
X67114103Y-99572268D01*
X67175743Y-99553570D01*
X67200000Y-99540604D01*
X67224257Y-99553570D01*
X67285897Y-99572268D01*
X67350000Y-99578582D01*
X67750000Y-99578582D01*
X67814103Y-99572268D01*
X67875743Y-99553570D01*
X67900000Y-99540604D01*
X67924257Y-99553570D01*
X67985897Y-99572268D01*
X68050000Y-99578582D01*
X68337918Y-99578582D01*
X68375230Y-99624126D01*
X68455419Y-99690052D01*
X68546930Y-99739066D01*
X68646244Y-99769286D01*
X68745250Y-99777000D01*
X68877000Y-99645250D01*
X68877000Y-97023000D01*
X68778582Y-97023000D01*
X68778582Y-96477000D01*
X68877000Y-96477000D01*
X68877000Y-93854750D01*
X68745250Y-93723000D01*
X68646244Y-93730714D01*
X68640500Y-93732462D01*
X68640500Y-93261750D01*
X70623001Y-91279249D01*
X70623001Y-92513710D01*
X70582889Y-92497095D01*
X70461754Y-92473000D01*
X70338246Y-92473000D01*
X70217111Y-92497095D01*
X70103004Y-92544360D01*
X70000311Y-92612977D01*
X69912977Y-92700311D01*
X69844360Y-92803004D01*
X69797095Y-92917111D01*
X69773000Y-93038246D01*
X69773000Y-93161754D01*
X69797095Y-93282889D01*
X69844360Y-93396996D01*
X69873001Y-93439860D01*
X69873001Y-93923684D01*
X69850000Y-93921418D01*
X69562082Y-93921418D01*
X69524770Y-93875874D01*
X69444581Y-93809948D01*
X69353070Y-93760934D01*
X69253756Y-93730714D01*
X69154750Y-93723000D01*
X69023000Y-93854750D01*
X69023000Y-96477000D01*
X69121418Y-96477000D01*
X69121418Y-97023000D01*
X69023000Y-97023000D01*
X69023000Y-99645250D01*
X69154750Y-99777000D01*
X69253756Y-99769286D01*
X69353070Y-99739066D01*
X69444581Y-99690052D01*
X69524770Y-99624126D01*
X69562082Y-99578582D01*
X69850000Y-99578582D01*
X69914103Y-99572268D01*
X69975743Y-99553570D01*
X70000000Y-99540604D01*
X70024257Y-99553570D01*
X70085897Y-99572268D01*
X70150000Y-99578582D01*
X70550000Y-99578582D01*
X70614103Y-99572268D01*
X70675743Y-99553570D01*
X70700000Y-99540604D01*
X70724257Y-99553570D01*
X70785897Y-99572268D01*
X70850000Y-99578582D01*
X71250000Y-99578582D01*
X71314103Y-99572268D01*
X71375743Y-99553570D01*
X71400000Y-99540604D01*
X71424257Y-99553570D01*
X71485897Y-99572268D01*
X71550000Y-99578582D01*
X71837918Y-99578582D01*
X71875230Y-99624126D01*
X71955419Y-99690052D01*
X72046930Y-99739066D01*
X72146244Y-99769286D01*
X72245250Y-99777000D01*
X72377000Y-99645250D01*
X72377000Y-97023000D01*
X72523000Y-97023000D01*
X72523000Y-99645250D01*
X72654750Y-99777000D01*
X72753756Y-99769286D01*
X72853070Y-99739066D01*
X72944581Y-99690052D01*
X73024770Y-99624126D01*
X73090557Y-99543824D01*
X73139414Y-99452229D01*
X73169463Y-99352864D01*
X73179550Y-99249545D01*
X73177000Y-97154750D01*
X73045250Y-97023000D01*
X72523000Y-97023000D01*
X72377000Y-97023000D01*
X72278582Y-97023000D01*
X72278582Y-96477000D01*
X72377000Y-96477000D01*
X72377000Y-93854750D01*
X72523000Y-93854750D01*
X72523000Y-96477000D01*
X73045250Y-96477000D01*
X73177000Y-96345250D01*
X73179550Y-94250455D01*
X73169463Y-94147136D01*
X73139414Y-94047771D01*
X73090557Y-93956176D01*
X73024770Y-93875874D01*
X72944581Y-93809948D01*
X72853070Y-93760934D01*
X72753756Y-93730714D01*
X72654750Y-93723000D01*
X72523000Y-93854750D01*
X72377000Y-93854750D01*
X72245250Y-93723000D01*
X72227000Y-93724422D01*
X72227000Y-93439859D01*
X72255640Y-93396996D01*
X72302905Y-93282889D01*
X72327000Y-93161754D01*
X72327000Y-93038246D01*
X72302905Y-92917111D01*
X72255640Y-92803004D01*
X72187023Y-92700311D01*
X72099689Y-92612977D01*
X71996996Y-92544360D01*
X71882889Y-92497095D01*
X71761754Y-92473000D01*
X71638246Y-92473000D01*
X71517111Y-92497095D01*
X71477000Y-92513710D01*
X71477000Y-91738246D01*
X87873000Y-91738246D01*
X87873000Y-91861754D01*
X87897095Y-91982889D01*
X87944360Y-92096996D01*
X88012977Y-92199689D01*
X88100311Y-92287023D01*
X88203004Y-92355640D01*
X88317111Y-92402905D01*
X88438246Y-92427000D01*
X88561754Y-92427000D01*
X88682889Y-92402905D01*
X88796996Y-92355640D01*
X88839859Y-92327000D01*
X89274119Y-92327000D01*
X89300000Y-92329549D01*
X89325881Y-92327000D01*
X89403310Y-92319374D01*
X89502650Y-92289239D01*
X89594202Y-92240304D01*
X89674448Y-92174448D01*
X89690955Y-92154334D01*
X89850772Y-91994517D01*
X117179845Y-91994517D01*
X117195761Y-92103159D01*
X117317438Y-92272249D01*
X117469765Y-92414352D01*
X117646888Y-92524007D01*
X117842000Y-92597000D01*
X118392000Y-92597000D01*
X118392000Y-91843000D01*
X118938000Y-91843000D01*
X118938000Y-92597000D01*
X119488000Y-92597000D01*
X119683112Y-92524007D01*
X119860235Y-92414352D01*
X120012562Y-92272249D01*
X120134239Y-92103159D01*
X120150155Y-91994517D01*
X121609845Y-91994517D01*
X121620388Y-92025983D01*
X121727112Y-92197604D01*
X121865267Y-92345107D01*
X122029544Y-92462823D01*
X122213629Y-92546228D01*
X122410449Y-92592117D01*
X122572000Y-92468831D01*
X122572000Y-91843000D01*
X123118000Y-91843000D01*
X123118000Y-92468831D01*
X123279551Y-92592117D01*
X123476371Y-92546228D01*
X123660456Y-92462823D01*
X123824733Y-92345107D01*
X123962888Y-92197604D01*
X124069612Y-92025983D01*
X124080155Y-91994517D01*
X123997610Y-91843000D01*
X123118000Y-91843000D01*
X122572000Y-91843000D01*
X121692390Y-91843000D01*
X121609845Y-91994517D01*
X120150155Y-91994517D01*
X120067610Y-91843000D01*
X118938000Y-91843000D01*
X118392000Y-91843000D01*
X117262390Y-91843000D01*
X117179845Y-91994517D01*
X89850772Y-91994517D01*
X90094999Y-91750291D01*
X90103004Y-91755640D01*
X90217111Y-91802905D01*
X90338246Y-91827000D01*
X90461754Y-91827000D01*
X90582889Y-91802905D01*
X90696996Y-91755640D01*
X90799689Y-91687023D01*
X90887023Y-91599689D01*
X90955640Y-91496996D01*
X91002905Y-91382889D01*
X91027000Y-91261754D01*
X91027000Y-91145483D01*
X117179845Y-91145483D01*
X117262390Y-91297000D01*
X118392000Y-91297000D01*
X118392000Y-90543000D01*
X117842000Y-90543000D01*
X117646888Y-90615993D01*
X117469765Y-90725648D01*
X117317438Y-90867751D01*
X117195761Y-91036841D01*
X117179845Y-91145483D01*
X91027000Y-91145483D01*
X91027000Y-91138246D01*
X91002905Y-91017111D01*
X90955640Y-90903004D01*
X90887023Y-90800311D01*
X90799689Y-90712977D01*
X90696996Y-90644360D01*
X90582889Y-90597095D01*
X90461754Y-90573000D01*
X90338246Y-90573000D01*
X90217111Y-90597095D01*
X90103004Y-90644360D01*
X90060141Y-90673000D01*
X89925880Y-90673000D01*
X89899999Y-90670451D01*
X89796690Y-90680626D01*
X89697350Y-90710761D01*
X89605798Y-90759696D01*
X89525552Y-90825552D01*
X89509049Y-90845661D01*
X89081711Y-91273000D01*
X88839859Y-91273000D01*
X88796996Y-91244360D01*
X88682889Y-91197095D01*
X88561754Y-91173000D01*
X88438246Y-91173000D01*
X88317111Y-91197095D01*
X88203004Y-91244360D01*
X88100311Y-91312977D01*
X88012977Y-91400311D01*
X87944360Y-91503004D01*
X87897095Y-91617111D01*
X87873000Y-91738246D01*
X71477000Y-91738246D01*
X71477000Y-91401868D01*
X74726869Y-88152000D01*
X74811754Y-88152000D01*
X74932889Y-88127905D01*
X75046996Y-88080640D01*
X75149689Y-88012023D01*
X75237023Y-87924689D01*
X75305640Y-87821996D01*
X75352905Y-87707889D01*
X75377000Y-87586754D01*
X75377000Y-87463246D01*
X75352905Y-87342111D01*
X75305640Y-87228004D01*
X75261575Y-87162056D01*
X85084266Y-87162056D01*
X85103444Y-87163945D01*
X85122622Y-87162056D01*
X85179995Y-87156405D01*
X85253605Y-87134076D01*
X85321444Y-87097816D01*
X85380905Y-87049017D01*
X85393134Y-87034116D01*
X86600250Y-85827000D01*
X86621957Y-85827000D01*
X86743092Y-85802905D01*
X86857199Y-85755640D01*
X86959892Y-85687023D01*
X87047226Y-85599689D01*
X87115843Y-85496996D01*
X87163108Y-85382889D01*
X87187203Y-85261754D01*
X87187203Y-85138246D01*
X87163108Y-85017111D01*
X87115843Y-84903004D01*
X87047226Y-84800311D01*
X86959892Y-84712977D01*
X86863937Y-84648862D01*
X86894889Y-84574137D01*
X86918984Y-84453002D01*
X86918984Y-84329494D01*
X86894889Y-84208359D01*
X86847624Y-84094252D01*
X86779007Y-83991559D01*
X86691673Y-83904225D01*
X86588980Y-83835608D01*
X86474873Y-83788343D01*
X86353738Y-83764248D01*
X86290024Y-83764248D01*
X86525238Y-83529034D01*
X87906837Y-83529034D01*
X87912977Y-83538223D01*
X88000311Y-83625557D01*
X88103004Y-83694174D01*
X88217111Y-83741439D01*
X88338246Y-83765534D01*
X88461754Y-83765534D01*
X88582889Y-83741439D01*
X88696996Y-83694174D01*
X88799689Y-83625557D01*
X88887023Y-83538223D01*
X88955640Y-83435530D01*
X89002905Y-83321423D01*
X89027000Y-83200288D01*
X89027000Y-83076780D01*
X89002905Y-82955645D01*
X88955640Y-82841538D01*
X88887023Y-82738845D01*
X88886706Y-82738528D01*
X88887023Y-82738210D01*
X88955640Y-82635517D01*
X89002905Y-82521410D01*
X89027000Y-82400275D01*
X89027000Y-82276767D01*
X89004870Y-82165511D01*
X89937379Y-82165511D01*
X90973001Y-83201134D01*
X90973000Y-85664292D01*
X90969483Y-85700000D01*
X90983520Y-85842517D01*
X91013298Y-85940683D01*
X91025090Y-85979556D01*
X91092597Y-86105852D01*
X91183446Y-86216553D01*
X91211189Y-86239321D01*
X93356581Y-88384715D01*
X93344360Y-88403004D01*
X93297095Y-88517111D01*
X93273000Y-88638246D01*
X93273000Y-88761754D01*
X93297095Y-88882889D01*
X93344360Y-88996996D01*
X93412977Y-89099689D01*
X93500311Y-89187023D01*
X93603004Y-89255640D01*
X93717111Y-89302905D01*
X93838246Y-89327000D01*
X93961754Y-89327000D01*
X94082889Y-89302905D01*
X94196996Y-89255640D01*
X94299689Y-89187023D01*
X94387023Y-89099689D01*
X94455640Y-88996996D01*
X94502905Y-88882889D01*
X94527000Y-88761754D01*
X94527000Y-88638246D01*
X94524763Y-88627000D01*
X99064292Y-88627000D01*
X99100000Y-88630517D01*
X99242517Y-88616480D01*
X99360667Y-88580640D01*
X99379557Y-88574910D01*
X99505853Y-88507403D01*
X99616554Y-88416554D01*
X99639326Y-88388806D01*
X100618520Y-87409613D01*
X100644360Y-87471996D01*
X100712977Y-87574689D01*
X100738288Y-87600000D01*
X100712977Y-87625311D01*
X100644360Y-87728004D01*
X100597095Y-87842111D01*
X100573000Y-87963246D01*
X100573000Y-88086754D01*
X100597095Y-88207889D01*
X100644360Y-88321996D01*
X100712977Y-88424689D01*
X100800311Y-88512023D01*
X100903004Y-88580640D01*
X101017111Y-88627905D01*
X101138246Y-88652000D01*
X101261754Y-88652000D01*
X101382889Y-88627905D01*
X101496996Y-88580640D01*
X101599689Y-88512023D01*
X101687023Y-88424689D01*
X101755640Y-88321996D01*
X101784633Y-88252000D01*
X109072233Y-88252000D01*
X109093200Y-88254065D01*
X109114167Y-88252000D01*
X109114178Y-88252000D01*
X109176907Y-88245822D01*
X109257396Y-88221405D01*
X109331576Y-88181755D01*
X109396595Y-88128395D01*
X109409968Y-88112100D01*
X109770069Y-87752000D01*
X113492495Y-87752000D01*
X113567111Y-87782907D01*
X113688246Y-87807002D01*
X113811754Y-87807002D01*
X113932889Y-87782907D01*
X114046996Y-87735642D01*
X114149689Y-87667025D01*
X114209712Y-87607002D01*
X115095985Y-87607002D01*
X115615841Y-88126859D01*
X115615841Y-88211744D01*
X115639936Y-88332879D01*
X115687201Y-88446986D01*
X115755818Y-88549679D01*
X115843152Y-88637013D01*
X115945845Y-88705630D01*
X116059952Y-88752895D01*
X116181087Y-88776990D01*
X116304595Y-88776990D01*
X116370023Y-88763976D01*
X116090544Y-89043455D01*
X116028004Y-89069360D01*
X115925311Y-89137977D01*
X115837977Y-89225311D01*
X115769360Y-89328004D01*
X115722095Y-89442111D01*
X115698000Y-89563246D01*
X115698000Y-89686754D01*
X115722095Y-89807889D01*
X115769360Y-89921996D01*
X115837977Y-90024689D01*
X115925311Y-90112023D01*
X116028004Y-90180640D01*
X116142111Y-90227905D01*
X116263246Y-90252000D01*
X116386754Y-90252000D01*
X116507889Y-90227905D01*
X116621996Y-90180640D01*
X116724689Y-90112023D01*
X116760928Y-90075784D01*
X118543000Y-90075784D01*
X118543000Y-90204216D01*
X118568056Y-90330181D01*
X118617205Y-90448838D01*
X118688558Y-90555626D01*
X118779374Y-90646442D01*
X118886162Y-90717795D01*
X118938000Y-90739267D01*
X118938000Y-91297000D01*
X120067610Y-91297000D01*
X120150155Y-91145483D01*
X121609845Y-91145483D01*
X121692390Y-91297000D01*
X122572000Y-91297000D01*
X122572000Y-90671169D01*
X123118000Y-90671169D01*
X123118000Y-91297000D01*
X123997610Y-91297000D01*
X124080155Y-91145483D01*
X124069612Y-91114017D01*
X123962888Y-90942396D01*
X123824733Y-90794893D01*
X123660456Y-90677177D01*
X123476371Y-90593772D01*
X123279551Y-90547883D01*
X123118000Y-90671169D01*
X122572000Y-90671169D01*
X122410449Y-90547883D01*
X122213629Y-90593772D01*
X122029544Y-90677177D01*
X121865267Y-90794893D01*
X121727112Y-90942396D01*
X121620388Y-91114017D01*
X121609845Y-91145483D01*
X120150155Y-91145483D01*
X120134239Y-91036841D01*
X120012562Y-90867751D01*
X119860235Y-90725648D01*
X119683112Y-90615993D01*
X119652520Y-90604548D01*
X119701442Y-90555626D01*
X119772795Y-90448838D01*
X119821944Y-90330181D01*
X119847000Y-90204216D01*
X119847000Y-90075784D01*
X119821944Y-89949819D01*
X119772795Y-89831162D01*
X119701442Y-89724374D01*
X119610626Y-89633558D01*
X119503838Y-89562205D01*
X119385181Y-89513056D01*
X119259216Y-89488000D01*
X119130784Y-89488000D01*
X119004819Y-89513056D01*
X118886162Y-89562205D01*
X118779374Y-89633558D01*
X118688558Y-89724374D01*
X118617205Y-89831162D01*
X118568056Y-89949819D01*
X118543000Y-90075784D01*
X116760928Y-90075784D01*
X116812023Y-90024689D01*
X116880640Y-89921996D01*
X116906545Y-89859456D01*
X117512962Y-89253039D01*
X117534974Y-89234974D01*
X117607079Y-89147115D01*
X117660657Y-89046876D01*
X117675788Y-88996996D01*
X117693651Y-88938112D01*
X117704790Y-88825000D01*
X117702000Y-88796669D01*
X117702000Y-85354067D01*
X117704790Y-85325736D01*
X117701680Y-85294147D01*
X117698610Y-85262977D01*
X117693651Y-85212624D01*
X117671088Y-85138246D01*
X117660657Y-85103860D01*
X117607079Y-85003621D01*
X117558444Y-84944360D01*
X117553037Y-84937771D01*
X117553035Y-84937769D01*
X117534974Y-84915762D01*
X117512968Y-84897702D01*
X117027303Y-84412038D01*
X117009238Y-84390026D01*
X116921379Y-84317921D01*
X116879963Y-84295784D01*
X118543000Y-84295784D01*
X118543000Y-84424216D01*
X118568056Y-84550181D01*
X118617205Y-84668838D01*
X118688558Y-84775626D01*
X118779374Y-84866442D01*
X118886162Y-84937795D01*
X119004819Y-84986944D01*
X119130784Y-85012000D01*
X119259216Y-85012000D01*
X119385181Y-84986944D01*
X119503838Y-84937795D01*
X119610626Y-84866442D01*
X119701442Y-84775626D01*
X119772795Y-84668838D01*
X119821944Y-84550181D01*
X119847000Y-84424216D01*
X119847000Y-84295784D01*
X119821944Y-84169819D01*
X119772795Y-84051162D01*
X119701442Y-83944374D01*
X119652520Y-83895452D01*
X119683112Y-83884007D01*
X119860235Y-83774352D01*
X120012562Y-83632249D01*
X120134239Y-83463159D01*
X120150155Y-83354517D01*
X121609845Y-83354517D01*
X121620388Y-83385983D01*
X121727112Y-83557604D01*
X121865267Y-83705107D01*
X122029544Y-83822823D01*
X122213629Y-83906228D01*
X122410449Y-83952117D01*
X122572000Y-83828831D01*
X122572000Y-83203000D01*
X123118000Y-83203000D01*
X123118000Y-83828831D01*
X123279551Y-83952117D01*
X123476371Y-83906228D01*
X123660456Y-83822823D01*
X123824733Y-83705107D01*
X123962888Y-83557604D01*
X124069612Y-83385983D01*
X124080155Y-83354517D01*
X123997610Y-83203000D01*
X123118000Y-83203000D01*
X122572000Y-83203000D01*
X121692390Y-83203000D01*
X121609845Y-83354517D01*
X120150155Y-83354517D01*
X120067610Y-83203000D01*
X118938000Y-83203000D01*
X118938000Y-83760733D01*
X118886162Y-83782205D01*
X118779374Y-83853558D01*
X118688558Y-83944374D01*
X118617205Y-84051162D01*
X118568056Y-84169819D01*
X118543000Y-84295784D01*
X116879963Y-84295784D01*
X116821140Y-84264343D01*
X116757034Y-84244897D01*
X116712375Y-84231349D01*
X116657309Y-84225926D01*
X116627600Y-84223000D01*
X116627595Y-84223000D01*
X116599264Y-84220210D01*
X116570933Y-84223000D01*
X116420429Y-84223000D01*
X116357889Y-84197095D01*
X116236754Y-84173000D01*
X116113246Y-84173000D01*
X115992111Y-84197095D01*
X115878004Y-84244360D01*
X115775311Y-84312977D01*
X115687977Y-84400311D01*
X115619360Y-84503004D01*
X115577000Y-84605269D01*
X115577000Y-83354517D01*
X117179845Y-83354517D01*
X117195761Y-83463159D01*
X117317438Y-83632249D01*
X117469765Y-83774352D01*
X117646888Y-83884007D01*
X117842000Y-83957000D01*
X118392000Y-83957000D01*
X118392000Y-83203000D01*
X117262390Y-83203000D01*
X117179845Y-83354517D01*
X115577000Y-83354517D01*
X115577000Y-82505483D01*
X117179845Y-82505483D01*
X117262390Y-82657000D01*
X118392000Y-82657000D01*
X118392000Y-81903000D01*
X118938000Y-81903000D01*
X118938000Y-82657000D01*
X120067610Y-82657000D01*
X120150155Y-82505483D01*
X121609845Y-82505483D01*
X121692390Y-82657000D01*
X122572000Y-82657000D01*
X122572000Y-82031169D01*
X123118000Y-82031169D01*
X123118000Y-82657000D01*
X123997610Y-82657000D01*
X124080155Y-82505483D01*
X124069612Y-82474017D01*
X123962888Y-82302396D01*
X123824733Y-82154893D01*
X123660456Y-82037177D01*
X123476371Y-81953772D01*
X123279551Y-81907883D01*
X123118000Y-82031169D01*
X122572000Y-82031169D01*
X122410449Y-81907883D01*
X122213629Y-81953772D01*
X122029544Y-82037177D01*
X121865267Y-82154893D01*
X121727112Y-82302396D01*
X121620388Y-82474017D01*
X121609845Y-82505483D01*
X120150155Y-82505483D01*
X120134239Y-82396841D01*
X120012562Y-82227751D01*
X119860235Y-82085648D01*
X119683112Y-81975993D01*
X119488000Y-81903000D01*
X118938000Y-81903000D01*
X118392000Y-81903000D01*
X117842000Y-81903000D01*
X117646888Y-81975993D01*
X117469765Y-82085648D01*
X117317438Y-82227751D01*
X117195761Y-82396841D01*
X117179845Y-82505483D01*
X115577000Y-82505483D01*
X115577000Y-80352000D01*
X122982795Y-80352000D01*
X123319768Y-80385041D01*
X123627358Y-80477906D01*
X123911057Y-80628751D01*
X124160048Y-80831824D01*
X124364856Y-81079395D01*
X124517675Y-81362027D01*
X124612687Y-81668961D01*
X124648001Y-82004954D01*
X124648000Y-117982784D01*
X124614958Y-118319768D01*
X124522091Y-118627361D01*
X124371250Y-118911052D01*
X124168176Y-119160046D01*
X123920607Y-119364854D01*
X123637974Y-119517673D01*
X123331039Y-119612685D01*
X122995046Y-119648000D01*
X62017206Y-119648000D01*
X61680232Y-119614959D01*
X61372639Y-119522092D01*
X61088943Y-119371248D01*
X60839954Y-119168178D01*
X60635144Y-118920605D01*
X60482325Y-118637973D01*
X60387314Y-118331039D01*
X60352000Y-117995056D01*
X60351998Y-82017225D01*
X60385041Y-81680232D01*
X60477906Y-81372642D01*
X60628751Y-81088943D01*
X60831824Y-80839952D01*
X61079395Y-80635144D01*
X61362027Y-80482325D01*
X61668961Y-80387313D01*
X62004944Y-80352000D01*
X63148000Y-80352000D01*
X63148001Y-80982699D01*
G36*
X92969360Y-80903004D02*
G01*
X92922095Y-81017111D01*
X92898000Y-81138246D01*
X92898000Y-81261754D01*
X92922095Y-81382889D01*
X92969360Y-81496996D01*
X93037977Y-81599689D01*
X93125311Y-81687023D01*
X93228004Y-81755640D01*
X93342111Y-81802905D01*
X93463246Y-81827000D01*
X93586754Y-81827000D01*
X93707889Y-81802905D01*
X93821996Y-81755640D01*
X93924689Y-81687023D01*
X94012023Y-81599689D01*
X94080640Y-81496996D01*
X94127905Y-81382889D01*
X94152000Y-81261754D01*
X94152000Y-81165500D01*
X94241418Y-81165500D01*
X94241418Y-82850000D01*
X94247732Y-82914103D01*
X94266430Y-82975743D01*
X94296794Y-83032550D01*
X94337657Y-83082343D01*
X94387450Y-83123206D01*
X94444257Y-83153570D01*
X94505897Y-83172268D01*
X94570000Y-83178582D01*
X95017342Y-83178582D01*
X95023595Y-83199195D01*
X95032089Y-83215086D01*
X95063245Y-83273376D01*
X95103232Y-83322100D01*
X95116605Y-83338395D01*
X95132900Y-83351768D01*
X95676702Y-83895570D01*
X95659142Y-83895570D01*
X95520150Y-83923217D01*
X95389222Y-83977449D01*
X95271390Y-84056182D01*
X95262265Y-84065307D01*
X95248257Y-83994885D01*
X95186461Y-83845698D01*
X95096749Y-83711434D01*
X94982566Y-83597251D01*
X94848302Y-83507539D01*
X94699115Y-83445743D01*
X94540739Y-83414240D01*
X94379261Y-83414240D01*
X94220885Y-83445743D01*
X94071698Y-83507539D01*
X93937434Y-83597251D01*
X93823251Y-83711434D01*
X93733539Y-83845698D01*
X93671743Y-83994885D01*
X93640240Y-84153261D01*
X93640240Y-84314739D01*
X93671743Y-84473115D01*
X93733539Y-84622302D01*
X93823251Y-84756566D01*
X93937434Y-84870749D01*
X94071698Y-84960461D01*
X94220885Y-85022257D01*
X94379261Y-85053760D01*
X94540739Y-85053760D01*
X94699115Y-85022257D01*
X94848302Y-84960461D01*
X94982566Y-84870749D01*
X95036599Y-84816716D01*
X95038217Y-84824850D01*
X95092449Y-84955778D01*
X95171182Y-85073610D01*
X95271390Y-85173818D01*
X95389222Y-85252551D01*
X95520150Y-85306783D01*
X95528898Y-85308523D01*
X95730000Y-85509625D01*
X95931102Y-85308523D01*
X95939850Y-85306783D01*
X96070778Y-85252551D01*
X96188610Y-85173818D01*
X96288818Y-85073610D01*
X96365000Y-84959596D01*
X96441182Y-85073610D01*
X96541390Y-85173818D01*
X96655404Y-85250000D01*
X96541390Y-85326182D01*
X96441182Y-85426390D01*
X96362449Y-85544222D01*
X96308217Y-85675150D01*
X96306477Y-85683898D01*
X96105375Y-85885000D01*
X96306477Y-86086102D01*
X96308217Y-86094850D01*
X96362449Y-86225778D01*
X96441182Y-86343610D01*
X96541390Y-86443818D01*
X96659222Y-86522551D01*
X96790150Y-86576783D01*
X96929142Y-86604430D01*
X97070858Y-86604430D01*
X97209850Y-86576783D01*
X97340778Y-86522551D01*
X97458610Y-86443818D01*
X97558818Y-86343610D01*
X97635000Y-86229596D01*
X97711182Y-86343610D01*
X97811390Y-86443818D01*
X97843000Y-86464940D01*
X97843001Y-87049023D01*
X97840935Y-87070000D01*
X97843001Y-87090977D01*
X97843001Y-87090978D01*
X97849179Y-87153707D01*
X97855032Y-87173000D01*
X94201134Y-87173000D01*
X93213394Y-86185261D01*
X93640240Y-86185261D01*
X93640240Y-86346739D01*
X93671743Y-86505115D01*
X93733539Y-86654302D01*
X93823251Y-86788566D01*
X93937434Y-86902749D01*
X94071698Y-86992461D01*
X94220885Y-87054257D01*
X94379261Y-87085760D01*
X94540739Y-87085760D01*
X94699115Y-87054257D01*
X94848302Y-86992461D01*
X94982566Y-86902749D01*
X95096749Y-86788566D01*
X95186461Y-86654302D01*
X95188555Y-86649248D01*
X95270195Y-86730888D01*
X95391889Y-86609194D01*
X95424589Y-86756939D01*
X95600565Y-86799768D01*
X95781514Y-86807442D01*
X95960484Y-86779668D01*
X96035411Y-86756939D01*
X96070051Y-86600426D01*
X95730000Y-86260375D01*
X95710505Y-86279870D01*
X95335130Y-85904495D01*
X95354625Y-85885000D01*
X95014574Y-85544949D01*
X94895756Y-85571246D01*
X94848302Y-85539539D01*
X94699115Y-85477743D01*
X94540739Y-85446240D01*
X94379261Y-85446240D01*
X94220885Y-85477743D01*
X94071698Y-85539539D01*
X93937434Y-85629251D01*
X93823251Y-85743434D01*
X93733539Y-85877698D01*
X93671743Y-86026885D01*
X93640240Y-86185261D01*
X93213394Y-86185261D01*
X92427000Y-85398868D01*
X92427000Y-82935708D01*
X92430517Y-82900000D01*
X92416480Y-82757482D01*
X92374910Y-82620443D01*
X92307403Y-82494147D01*
X92216554Y-82383446D01*
X92188812Y-82360679D01*
X90777837Y-80949705D01*
X90755065Y-80921957D01*
X90653358Y-80838489D01*
X93012467Y-80838489D01*
X92969360Y-80903004D01*
G37*
X92969360Y-80903004D02*
X92922095Y-81017111D01*
X92898000Y-81138246D01*
X92898000Y-81261754D01*
X92922095Y-81382889D01*
X92969360Y-81496996D01*
X93037977Y-81599689D01*
X93125311Y-81687023D01*
X93228004Y-81755640D01*
X93342111Y-81802905D01*
X93463246Y-81827000D01*
X93586754Y-81827000D01*
X93707889Y-81802905D01*
X93821996Y-81755640D01*
X93924689Y-81687023D01*
X94012023Y-81599689D01*
X94080640Y-81496996D01*
X94127905Y-81382889D01*
X94152000Y-81261754D01*
X94152000Y-81165500D01*
X94241418Y-81165500D01*
X94241418Y-82850000D01*
X94247732Y-82914103D01*
X94266430Y-82975743D01*
X94296794Y-83032550D01*
X94337657Y-83082343D01*
X94387450Y-83123206D01*
X94444257Y-83153570D01*
X94505897Y-83172268D01*
X94570000Y-83178582D01*
X95017342Y-83178582D01*
X95023595Y-83199195D01*
X95032089Y-83215086D01*
X95063245Y-83273376D01*
X95103232Y-83322100D01*
X95116605Y-83338395D01*
X95132900Y-83351768D01*
X95676702Y-83895570D01*
X95659142Y-83895570D01*
X95520150Y-83923217D01*
X95389222Y-83977449D01*
X95271390Y-84056182D01*
X95262265Y-84065307D01*
X95248257Y-83994885D01*
X95186461Y-83845698D01*
X95096749Y-83711434D01*
X94982566Y-83597251D01*
X94848302Y-83507539D01*
X94699115Y-83445743D01*
X94540739Y-83414240D01*
X94379261Y-83414240D01*
X94220885Y-83445743D01*
X94071698Y-83507539D01*
X93937434Y-83597251D01*
X93823251Y-83711434D01*
X93733539Y-83845698D01*
X93671743Y-83994885D01*
X93640240Y-84153261D01*
X93640240Y-84314739D01*
X93671743Y-84473115D01*
X93733539Y-84622302D01*
X93823251Y-84756566D01*
X93937434Y-84870749D01*
X94071698Y-84960461D01*
X94220885Y-85022257D01*
X94379261Y-85053760D01*
X94540739Y-85053760D01*
X94699115Y-85022257D01*
X94848302Y-84960461D01*
X94982566Y-84870749D01*
X95036599Y-84816716D01*
X95038217Y-84824850D01*
X95092449Y-84955778D01*
X95171182Y-85073610D01*
X95271390Y-85173818D01*
X95389222Y-85252551D01*
X95520150Y-85306783D01*
X95528898Y-85308523D01*
X95730000Y-85509625D01*
X95931102Y-85308523D01*
X95939850Y-85306783D01*
X96070778Y-85252551D01*
X96188610Y-85173818D01*
X96288818Y-85073610D01*
X96365000Y-84959596D01*
X96441182Y-85073610D01*
X96541390Y-85173818D01*
X96655404Y-85250000D01*
X96541390Y-85326182D01*
X96441182Y-85426390D01*
X96362449Y-85544222D01*
X96308217Y-85675150D01*
X96306477Y-85683898D01*
X96105375Y-85885000D01*
X96306477Y-86086102D01*
X96308217Y-86094850D01*
X96362449Y-86225778D01*
X96441182Y-86343610D01*
X96541390Y-86443818D01*
X96659222Y-86522551D01*
X96790150Y-86576783D01*
X96929142Y-86604430D01*
X97070858Y-86604430D01*
X97209850Y-86576783D01*
X97340778Y-86522551D01*
X97458610Y-86443818D01*
X97558818Y-86343610D01*
X97635000Y-86229596D01*
X97711182Y-86343610D01*
X97811390Y-86443818D01*
X97843000Y-86464940D01*
X97843001Y-87049023D01*
X97840935Y-87070000D01*
X97843001Y-87090977D01*
X97843001Y-87090978D01*
X97849179Y-87153707D01*
X97855032Y-87173000D01*
X94201134Y-87173000D01*
X93213394Y-86185261D01*
X93640240Y-86185261D01*
X93640240Y-86346739D01*
X93671743Y-86505115D01*
X93733539Y-86654302D01*
X93823251Y-86788566D01*
X93937434Y-86902749D01*
X94071698Y-86992461D01*
X94220885Y-87054257D01*
X94379261Y-87085760D01*
X94540739Y-87085760D01*
X94699115Y-87054257D01*
X94848302Y-86992461D01*
X94982566Y-86902749D01*
X95096749Y-86788566D01*
X95186461Y-86654302D01*
X95188555Y-86649248D01*
X95270195Y-86730888D01*
X95391889Y-86609194D01*
X95424589Y-86756939D01*
X95600565Y-86799768D01*
X95781514Y-86807442D01*
X95960484Y-86779668D01*
X96035411Y-86756939D01*
X96070051Y-86600426D01*
X95730000Y-86260375D01*
X95710505Y-86279870D01*
X95335130Y-85904495D01*
X95354625Y-85885000D01*
X95014574Y-85544949D01*
X94895756Y-85571246D01*
X94848302Y-85539539D01*
X94699115Y-85477743D01*
X94540739Y-85446240D01*
X94379261Y-85446240D01*
X94220885Y-85477743D01*
X94071698Y-85539539D01*
X93937434Y-85629251D01*
X93823251Y-85743434D01*
X93733539Y-85877698D01*
X93671743Y-86026885D01*
X93640240Y-86185261D01*
X93213394Y-86185261D01*
X92427000Y-85398868D01*
X92427000Y-82935708D01*
X92430517Y-82900000D01*
X92416480Y-82757482D01*
X92374910Y-82620443D01*
X92307403Y-82494147D01*
X92216554Y-82383446D01*
X92188812Y-82360679D01*
X90777837Y-80949705D01*
X90755065Y-80921957D01*
X90653358Y-80838489D01*
X93012467Y-80838489D01*
X92969360Y-80903004D01*
G36*
X98233000Y-81727000D02*
G01*
X98253000Y-81727000D01*
X98253000Y-82273000D01*
X98233000Y-82273000D01*
X98233000Y-83214956D01*
X98440773Y-83290344D01*
X98532460Y-83252378D01*
X98765787Y-83116633D01*
X98968148Y-82937976D01*
X99131767Y-82723273D01*
X99250355Y-82480775D01*
X99177929Y-82273002D01*
X99337000Y-82273002D01*
X99337000Y-82186307D01*
X99368231Y-82343318D01*
X99456956Y-82557519D01*
X99566134Y-82720915D01*
X98920106Y-83373000D01*
X98838246Y-83373000D01*
X98717111Y-83397095D01*
X98603004Y-83444360D01*
X98500311Y-83512977D01*
X98412977Y-83600311D01*
X98344360Y-83703004D01*
X98297095Y-83817111D01*
X98281489Y-83895570D01*
X98199142Y-83895570D01*
X98060150Y-83923217D01*
X97929222Y-83977449D01*
X97811390Y-84056182D01*
X97711182Y-84156390D01*
X97635000Y-84270404D01*
X97558818Y-84156390D01*
X97458610Y-84056182D01*
X97340778Y-83977449D01*
X97209850Y-83923217D01*
X97070858Y-83895570D01*
X96929142Y-83895570D01*
X96891855Y-83902987D01*
X96167450Y-83178582D01*
X96270000Y-83178582D01*
X96334103Y-83172268D01*
X96395743Y-83153570D01*
X96452550Y-83123206D01*
X96502343Y-83082343D01*
X96543206Y-83032550D01*
X96573570Y-82975743D01*
X96592268Y-82914103D01*
X96598582Y-82850000D01*
X96598582Y-82273002D01*
X96742071Y-82273002D01*
X96669645Y-82480775D01*
X96788233Y-82723273D01*
X96951852Y-82937976D01*
X97154213Y-83116633D01*
X97387540Y-83252378D01*
X97479227Y-83290344D01*
X97687000Y-83214956D01*
X97687000Y-82273000D01*
X97667000Y-82273000D01*
X97667000Y-81727000D01*
X97687000Y-81727000D01*
X97687000Y-81707000D01*
X98233000Y-81707000D01*
X98233000Y-81727000D01*
G37*
X98233000Y-81727000D02*
X98253000Y-81727000D01*
X98253000Y-82273000D01*
X98233000Y-82273000D01*
X98233000Y-83214956D01*
X98440773Y-83290344D01*
X98532460Y-83252378D01*
X98765787Y-83116633D01*
X98968148Y-82937976D01*
X99131767Y-82723273D01*
X99250355Y-82480775D01*
X99177929Y-82273002D01*
X99337000Y-82273002D01*
X99337000Y-82186307D01*
X99368231Y-82343318D01*
X99456956Y-82557519D01*
X99566134Y-82720915D01*
X98920106Y-83373000D01*
X98838246Y-83373000D01*
X98717111Y-83397095D01*
X98603004Y-83444360D01*
X98500311Y-83512977D01*
X98412977Y-83600311D01*
X98344360Y-83703004D01*
X98297095Y-83817111D01*
X98281489Y-83895570D01*
X98199142Y-83895570D01*
X98060150Y-83923217D01*
X97929222Y-83977449D01*
X97811390Y-84056182D01*
X97711182Y-84156390D01*
X97635000Y-84270404D01*
X97558818Y-84156390D01*
X97458610Y-84056182D01*
X97340778Y-83977449D01*
X97209850Y-83923217D01*
X97070858Y-83895570D01*
X96929142Y-83895570D01*
X96891855Y-83902987D01*
X96167450Y-83178582D01*
X96270000Y-83178582D01*
X96334103Y-83172268D01*
X96395743Y-83153570D01*
X96452550Y-83123206D01*
X96502343Y-83082343D01*
X96543206Y-83032550D01*
X96573570Y-82975743D01*
X96592268Y-82914103D01*
X96598582Y-82850000D01*
X96598582Y-82273002D01*
X96742071Y-82273002D01*
X96669645Y-82480775D01*
X96788233Y-82723273D01*
X96951852Y-82937976D01*
X97154213Y-83116633D01*
X97387540Y-83252378D01*
X97479227Y-83290344D01*
X97687000Y-83214956D01*
X97687000Y-82273000D01*
X97667000Y-82273000D01*
X97667000Y-81727000D01*
X97687000Y-81727000D01*
X97687000Y-81707000D01*
X98233000Y-81707000D01*
X98233000Y-81727000D01*
M02*
