G04 #@! TF.GenerationSoftware,KiCad,Pcbnew,5.1.5-52549c5~84~ubuntu19.10.1*
G04 #@! TF.CreationDate,2020-03-01T21:01:51+01:00*
G04 #@! TF.ProjectId,scale,7363616c-652e-46b6-9963-61645f706362,rev?*
G04 #@! TF.SameCoordinates,Original*
G04 #@! TF.FileFunction,Legend,Bot*
G04 #@! TF.FilePolarity,Positive*
%FSLAX46Y46*%
G04 Gerber Fmt 4.6, Leading zero omitted, Abs format (unit mm)*
G04 Created by KiCad (PCBNEW 5.1.5-52549c5~84~ubuntu19.10.1) date 2020-03-01 21:01:51*
%MOMM*%
%LPD*%
G04 APERTURE LIST*
%ADD10C,0.120000*%
%ADD11C,0.100000*%
%ADD12C,0.127000*%
G04 APERTURE END LIST*
D10*
X101950000Y-83550000D02*
X102250000Y-83450000D01*
X101950000Y-83550000D02*
X102100000Y-83850000D01*
X103550000Y-84050000D02*
X101950000Y-83550000D01*
D11*
X111647619Y-84361904D02*
X111152380Y-84361904D01*
X111419047Y-84666666D01*
X111304761Y-84666666D01*
X111228571Y-84704761D01*
X111190476Y-84742857D01*
X111152380Y-84819047D01*
X111152380Y-85009523D01*
X111190476Y-85085714D01*
X111228571Y-85123809D01*
X111304761Y-85161904D01*
X111533333Y-85161904D01*
X111609523Y-85123809D01*
X111647619Y-85085714D01*
X110809523Y-85085714D02*
X110771428Y-85123809D01*
X110809523Y-85161904D01*
X110847619Y-85123809D01*
X110809523Y-85085714D01*
X110809523Y-85161904D01*
X110504761Y-84361904D02*
X110009523Y-84361904D01*
X110276190Y-84666666D01*
X110161904Y-84666666D01*
X110085714Y-84704761D01*
X110047619Y-84742857D01*
X110009523Y-84819047D01*
X110009523Y-85009523D01*
X110047619Y-85085714D01*
X110085714Y-85123809D01*
X110161904Y-85161904D01*
X110390476Y-85161904D01*
X110466666Y-85123809D01*
X110504761Y-85085714D01*
X109780952Y-84361904D02*
X109514285Y-85161904D01*
X109247619Y-84361904D01*
X108371428Y-85161904D02*
X108371428Y-84361904D01*
X108180952Y-84361904D01*
X108066666Y-84400000D01*
X107990476Y-84476190D01*
X107952380Y-84552380D01*
X107914285Y-84704761D01*
X107914285Y-84819047D01*
X107952380Y-84971428D01*
X107990476Y-85047619D01*
X108066666Y-85123809D01*
X108180952Y-85161904D01*
X108371428Y-85161904D01*
X107571428Y-85161904D02*
X107571428Y-84361904D01*
X107038095Y-84361904D02*
X106885714Y-84361904D01*
X106809523Y-84400000D01*
X106733333Y-84476190D01*
X106695238Y-84628571D01*
X106695238Y-84895238D01*
X106733333Y-85047619D01*
X106809523Y-85123809D01*
X106885714Y-85161904D01*
X107038095Y-85161904D01*
X107114285Y-85123809D01*
X107190476Y-85047619D01*
X107228571Y-84895238D01*
X107228571Y-84628571D01*
X107190476Y-84476190D01*
X107114285Y-84400000D01*
X107038095Y-84361904D01*
X105323809Y-84400000D02*
X105400000Y-84361904D01*
X105514285Y-84361904D01*
X105628571Y-84400000D01*
X105704761Y-84476190D01*
X105742857Y-84552380D01*
X105780952Y-84704761D01*
X105780952Y-84819047D01*
X105742857Y-84971428D01*
X105704761Y-85047619D01*
X105628571Y-85123809D01*
X105514285Y-85161904D01*
X105438095Y-85161904D01*
X105323809Y-85123809D01*
X105285714Y-85085714D01*
X105285714Y-84819047D01*
X105438095Y-84819047D01*
X104942857Y-85161904D02*
X104942857Y-84361904D01*
X104485714Y-85161904D01*
X104485714Y-84361904D01*
X104104761Y-85161904D02*
X104104761Y-84361904D01*
X103914285Y-84361904D01*
X103800000Y-84400000D01*
X103723809Y-84476190D01*
X103685714Y-84552380D01*
X103647619Y-84704761D01*
X103647619Y-84819047D01*
X103685714Y-84971428D01*
X103723809Y-85047619D01*
X103800000Y-85123809D01*
X103914285Y-85161904D01*
X104104761Y-85161904D01*
X102238095Y-85085714D02*
X102276190Y-85123809D01*
X102390476Y-85161904D01*
X102466666Y-85161904D01*
X102580952Y-85123809D01*
X102657142Y-85047619D01*
X102695238Y-84971428D01*
X102733333Y-84819047D01*
X102733333Y-84704761D01*
X102695238Y-84552380D01*
X102657142Y-84476190D01*
X102580952Y-84400000D01*
X102466666Y-84361904D01*
X102390476Y-84361904D01*
X102276190Y-84400000D01*
X102238095Y-84438095D01*
X101514285Y-85161904D02*
X101895238Y-85161904D01*
X101895238Y-84361904D01*
X101247619Y-85161904D02*
X101247619Y-84361904D01*
X100790476Y-85161904D02*
X101133333Y-84704761D01*
X100790476Y-84361904D02*
X101247619Y-84819047D01*
D10*
X94090000Y-80670000D02*
X94090000Y-82000000D01*
X95420000Y-80670000D02*
X94090000Y-80670000D01*
X96690000Y-80670000D02*
X96690000Y-83330000D01*
X96690000Y-83330000D02*
X104370000Y-83330000D01*
X96690000Y-80670000D02*
X104370000Y-80670000D01*
X104370000Y-80670000D02*
X104370000Y-83330000D01*
D12*
X93444000Y-84297500D02*
G75*
G02X94396500Y-83345000I952500J0D01*
G01*
X94396500Y-87155000D02*
G75*
G02X93444000Y-86202500I0J952500D01*
G01*
X93444000Y-84297500D02*
X93444000Y-86202500D01*
X100263900Y-84526100D02*
G75*
G02X100263900Y-85973900I-723900J-723900D01*
G01*
X100263900Y-84526100D02*
X99082800Y-83345000D01*
X100263900Y-85973900D02*
X99082800Y-87155000D01*
X94396500Y-83345000D02*
X99082800Y-83345000D01*
X94396500Y-87155000D02*
X99082800Y-87155000D01*
M02*
